<?xml version="1.0" standalone="no"?>
<!DOCTYPE svg PUBLIC "-//W3C//DTD SVG 1.1//EN" "http://www.w3.org/Graphics/SVG/1.1/DTD/svg11.dtd" >
<svg xmlns="http://www.w3.org/2000/svg" xmlns:xlink="http://www.w3.org/1999/xlink" version="1.1">
<metadata>
Created by FontForge 20170910 at Wed Oct 24 12:55:52 2007
 By Jimmy Wärting
Copyright (c) The Font Bureau, Inc., 2003. All rights reserved.
</metadata>
<defs>
<font id="Stainless-Light" horiz-adv-x="700" >
  <font-face 
    font-family="Stainless Light"
    font-weight="300"
    font-stretch="normal"
    units-per-em="1000"
    panose-1="2 0 5 3 4 0 0 2 0 4"
    ascent="795"
    descent="-205"
    x-height="465"
    cap-height="726"
    bbox="-79 -205 1203 946"
    underline-thickness="20"
    underline-position="-133"
    stemh="57"
    stemv="65"
    unicode-range="U+0020-FB02"
  />
<missing-glyph horiz-adv-x="500" 
 />
    <glyph glyph-name="fi" unicode="fi" horiz-adv-x="577" 
d="M109 0v399h-83v66h83v101c0 104 48 149 301 181l8 -69c-217 -29 -236 -52 -236 -116v-97h324v-465h-73v399h-251v-399h-73z" />
    <glyph glyph-name="fl" unicode="fl" horiz-adv-x="577" 
d="M109 0v399h-83v66h83v112c0 100 33 140 183 171l14 -66c-110 -23 -124 -43 -124 -109v-108h125v-66h-125v-399h-73zM433 0v746h73v-746h-73z" />
    <glyph glyph-name="f_f" unicode="ff" horiz-adv-x="660" 
d="M109 0v399h-83v66h83v75c0 100 28 137 193 171l14 -66c-123 -26 -134 -43 -134 -109v-71h255v112c0 100 28 137 193 171l14 -66c-123 -26 -134 -43 -134 -109v-108h125v-66h-125v-399h-73v399h-255v-399h-73z" />
    <glyph glyph-name="f_f_i" unicode="ffi" horiz-adv-x="905" 
d="M109 0v399h-83v66h83v75c0 100 28 137 193 171l14 -66c-123 -26 -134 -43 -134 -109v-71h255v101c0 104 48 149 301 181l8 -69c-217 -29 -236 -52 -236 -116v-97h324v-465h-73v399h-251v-399h-73v399h-255v-399h-73z" />
    <glyph glyph-name="f_f_l" unicode="ffl" horiz-adv-x="905" 
d="M109 0v399h-83v66h83v75c0 100 28 137 193 171l14 -66c-123 -26 -134 -43 -134 -109v-71h255v112c0 100 33 140 183 171l14 -66c-110 -23 -124 -43 -124 -109v-108h125v-66h-125v-399h-73v399h-255v-399h-73zM761 0v746h73v-746h-73z" />
    <glyph glyph-name="f_j" unicode="fj" horiz-adv-x="577" 
d="M313 -199l-14 66c123 26 134 41 134 109v423h-251v-399h-73v399h-83v66h83v101c0 104 48 149 301 181l8 -69c-217 -29 -236 -52 -236 -116v-97h324v-493c0 -101 -28 -137 -193 -171z" />
    <glyph glyph-name="f_t" unicode="ft" horiz-adv-x="682" 
d="M534 -5c-65 0 -98 44 -98 129v275h-254v-399h-73v399h-83v66h83v112c0 100 28 137 193 171l14 -66c-123 -26 -134 -43 -134 -109v-108h254v164l72 20v-184h126v-66h-126v-265c0 -57 13 -70 38 -70c22 0 43 1 87 7l6 -68c-53 -7 -79 -8 -105 -8z" />
    <glyph glyph-name=".notdef" horiz-adv-x="500" 
 />
    <glyph glyph-name="Eth" unicode="&#xd0;" horiz-adv-x="691" 
d="M116 345h-90v66h90v315h242c181 0 291 -67 291 -363s-110 -363 -291 -363c-137 0 -242 -2 -242 -2v347zM189 411h122v-66h-122v-281h168c132 0 214 54 214 275v48c0 222 -82 275 -214 275h-168v-251z" />
    <glyph glyph-name="eth" unicode="&#xf0;" horiz-adv-x="530" 
d="M395 552h-100v67h84c-10 34 -22 67 -36 104l68 23c6 -13 26 -57 44 -127h84v-67h-70c13 -65 22 -143 22 -233c0 -213 -19 -331 -226 -331c-96 0 -220 25 -220 253s93 235 173 235c64 0 142 -19 196 -48c-5 47 -11 87 -19 124zM268 55c144 0 151 83 151 264
c0 13 0 26 -1 38c-52 30 -130 52 -179 52c-87 0 -120 -21 -120 -166c0 -147 53 -188 149 -188z" />
    <glyph glyph-name="Lslash" unicode="&#x141;" horiz-adv-x="598" 
d="M106 313l-80 -28v66l80 28v347h74v-321l131 46v-66l-131 -46v-273h396v-66h-470v313z" />
    <glyph glyph-name="lslash" unicode="&#x142;" horiz-adv-x="316" 
d="M123 321c0 1 -97 -36 -97 -36v66s97 37 97 36v359h72v-331l96 36v-66l-96 -36v-349h-72v321z" />
    <glyph glyph-name="Scaron" unicode="&#x160;" horiz-adv-x="583" 
d="M274 -5c-84 0 -186 19 -224 33l13 66c39 -10 136 -30 212 -30c120 0 176 20 176 132c0 96 -33 108 -160 138c-181 43 -232 74 -232 213c0 131 85 187 239 187c94 0 177 -16 202 -23l-13 -66c-24 6 -114 20 -191 20c-105 0 -160 -25 -160 -116c0 -97 36 -113 170 -144
c139 -33 223 -58 223 -207c0 -161 -95 -203 -255 -203zM257 776l-123 156h53l105 -85l104 85h53l-123 -156h-69z" />
    <glyph glyph-name="scaron" unicode="&#x161;" horiz-adv-x="464" 
d="M221 -10c-62 0 -140 14 -173 26l13 63c25 -8 104 -24 160 -24c103 0 127 17 127 82c0 46 -23 57 -101 68c-147 20 -190 33 -190 140c0 99 62 136 186 136c67 0 139 -10 160 -16l-13 -63c-23 5 -101 14 -149 14c-85 0 -110 -18 -110 -69c0 -53 19 -60 127 -73
c125 -15 165 -44 165 -135c0 -126 -69 -149 -202 -149zM198 536l-123 156h53l105 -85l104 85h53l-123 -156h-69z" />
    <glyph glyph-name="Yacute" unicode="&#xdd;" horiz-adv-x="652" 
d="M289 0v295l-270 431h81l228 -364l229 364h76l-271 -431v-295h-73zM271 776l86 170h126l-166 -170h-46z" />
    <glyph glyph-name="yacute" unicode="&#xfd;" horiz-adv-x="473" 
d="M205 3l-186 462h79s145 -372 145 -373l141 373h70l-254 -665h-73s78 204 78 203zM181 536l86 170h126l-166 -170h-46z" />
    <glyph glyph-name="Thorn" unicode="&#xde;" horiz-adv-x="599" 
d="M76 0v726h73v-145h214c137 0 205 -53 205 -209s-70 -211 -207 -211h-212v-161h-73zM149 226h214c71 0 132 14 132 144s-63 146 -134 146h-212v-290z" />
    <glyph glyph-name="thorn" unicode="&#xfe;" horiz-adv-x="531" 
d="M66 -200v946h73v-326c25 14 110 56 194 56c69 0 153 -13 153 -241s-89 -243 -157 -243c-80 0 -164 32 -190 43v-235h-73zM310 59c72 0 101 29 101 174s-28 176 -100 176c-58 0 -138 -32 -172 -52v-258c28 -13 113 -40 171 -40z" />
    <glyph glyph-name="Zcaron" unicode="&#x17d;" horiz-adv-x="577" 
d="M29 0v57l418 601h-409v68h497v-63l-414 -595h419v-68h-511zM254 776l-123 156h53l105 -85l104 85h53l-123 -156h-69z" />
    <glyph glyph-name="zcaron" unicode="&#x17e;" horiz-adv-x="432" 
d="M26 0v55l281 347h-268v63h355v-55l-279 -347h292v-63h-381zM182 536l-123 156h53l105 -85l104 85h53l-123 -156h-69z" />
    <glyph glyph-name="onehalf" unicode="&#xbd;" horiz-adv-x="869" 
d="M148 266v395h-83v65h151v-460h-68zM192 0l282 726h64l-282 -726h-64zM480 0v53l117 120c100 102 106 100 106 169c0 45 -20 60 -86 60c-41 0 -86 -8 -123 -16l-13 61c39 11 93 20 137 20c114 0 155 -39 155 -124c0 -93 -24 -106 -122 -207l-70 -72h207v-64h-308z" />
    <glyph glyph-name="onequarter" unicode="&#xbc;" horiz-adv-x="808" 
d="M148 266v395h-83v65h151v-460h-68zM192 0l282 726h64l-282 -726h-64zM638 0v106h-220v62l175 294h74l-174 -291h145v132h69v-132h53v-65h-53v-106h-69z" />
    <glyph glyph-name="onesuperior" unicode="&#xb9;" horiz-adv-x="311" 
d="M148 266v395h-83v65h151v-460h-68z" />
    <glyph glyph-name="threequarters" unicode="&#xbe;" horiz-adv-x="893" 
d="M69 260l-4 64c116 5 177 14 205 31c18 11 20 38 20 65s-2 53 -19 63c-28 17 -74 21 -114 24v53l94 102h-199v64h286v-57l-102 -109c22 -5 49 -10 68 -21c40 -22 56 -60 56 -117c0 -58 -15 -98 -54 -121s-116 -38 -237 -41zM277 0l282 726h64l-282 -726h-64zM723 0v106
h-220v62l175 294h74l-174 -291h145v132h69v-132h53v-65h-53v-106h-69z" />
    <glyph glyph-name="threesuperior" unicode="&#xb3;" horiz-adv-x="422" 
d="M69 260l-4 64c116 5 177 14 205 31c18 11 20 38 20 65s-2 53 -19 63c-28 17 -74 21 -114 24v53l94 102h-199v64h286v-57l-102 -109c22 -5 49 -10 68 -21c40 -22 56 -60 56 -117c0 -58 -15 -98 -54 -121s-116 -38 -237 -41z" />
    <glyph glyph-name="twosuperior" unicode="&#xb2;" horiz-adv-x="418" 
d="M52 265v53l117 120c100 102 106 100 106 169c0 45 -20 60 -86 60c-41 0 -86 -8 -123 -16l-13 61c39 11 93 20 137 20c114 0 155 -39 155 -124c0 -93 -24 -106 -122 -207l-70 -72h207v-64h-308z" />
    <glyph glyph-name="brokenbar" unicode="&#xa6;" horiz-adv-x="309" 
d="M125 364v426h59v-426h-59zM125 -200v426h59v-426h-59z" />
    <glyph glyph-name="minus" unicode="&#x2212;" horiz-adv-x="507" 
d="M60 300v65h387v-65h-387z" />
    <glyph glyph-name="multiply" unicode="&#xd7;" horiz-adv-x="503" 
d="M125 159l-46 46l127 127l-127 127l46 46l127 -127l126 127l46 -46l-126 -127l126 -127l-46 -46l-126 127z" />
    <glyph glyph-name="space" unicode=" " horiz-adv-x="246" 
 />
    <glyph glyph-name="space" unicode="&#xa0;" horiz-adv-x="246" 
 />
    <glyph glyph-name="exclam" unicode="!" horiz-adv-x="283" 
d="M117 201l-21 525h94l-21 -525h-52zM86 0v110h111v-110h-111z" />
    <glyph glyph-name="quotedbl" unicode="&#x22;" horiz-adv-x="406" 
d="M263 491l-24 235h105l-24 -235h-57zM86 491l-23 235h104l-24 -235h-57z" />
    <glyph glyph-name="numbersign" unicode="#" horiz-adv-x="553" 
d="M78 -20l42 249h-90v65h100l24 138h-124v65h134l42 249h65l-42 -249h139l41 249h65l-42 -249h91v-65h-102l-23 -138h125v-65h-136l-42 -249h-63l41 249h-139l-41 -249h-65zM192 291h144l24 144h-144z" />
    <glyph glyph-name="dollar" unicode="$" horiz-adv-x="579" 
d="M257 -5c-112 2 -179 16 -203 22l13 67c25 -5 109 -18 192 -21v280c-161 42 -206 75 -206 204c0 104 40 179 204 186v107h65v-107c82 -2 143 -13 178 -22l-14 -64c-22 4 -93 15 -166 18v-263c136 -32 214 -71 214 -204c0 -127 -53 -193 -212 -202v-123h-65v122zM259 665
c-100 -4 -129 -34 -129 -116c0 -77 17 -102 129 -132v248zM320 64c104 5 136 36 136 132c0 79 -26 103 -136 131v-263z" />
    <glyph glyph-name="percent" unicode="%" horiz-adv-x="839" 
d="M182 285c-101 0 -164 46 -164 226s65 228 166 228c102 0 165 -46 165 -226s-65 -228 -167 -228zM262 0l252 726h64l-252 -726h-64zM655 -11c-101 0 -164 46 -164 226s65 228 166 228c102 0 165 -46 165 -226s-65 -228 -167 -228zM184 347c62 0 94 33 94 138v52
c0 105 -34 140 -96 140c-61 0 -94 -33 -94 -138v-52c0 -105 35 -140 96 -140zM657 51c62 0 94 33 94 138v52c0 105 -34 140 -96 140c-61 0 -94 -33 -94 -138v-52c0 -105 35 -140 96 -140z" />
    <glyph glyph-name="ampersand" unicode="&#x26;" horiz-adv-x="682" 
d="M521 165c0 1 140 -165 140 -165h-88l-85 100c-47 -85 -89 -110 -172 -110c-180 0 -273 29 -273 226c0 128 56 171 179 198c-58 72 -80 114 -80 171c0 111 60 154 190 154c79 0 160 -17 188 -26l-14 -65c-32 8 -112 22 -174 22c-102 0 -116 -25 -116 -85
c0 -54 27 -92 140 -225c0 0 119 -140 119 -141l87 188h72zM443 153l-179 210c-117 -23 -150 -54 -150 -149c0 -137 58 -157 196 -157c63 0 90 14 133 96z" />
    <glyph glyph-name="quotesingle" unicode="'" horiz-adv-x="229" 
d="M86 491l-23 235h104l-24 -235h-57z" />
    <glyph glyph-name="parenleft" unicode="(" horiz-adv-x="338" 
d="M313 -120c-203 4 -272 45 -272 433s68 429 272 433v-67c-152 0 -205 -21 -205 -366c0 -343 53 -366 205 -366v-67z" />
    <glyph glyph-name="parenright" unicode=")" horiz-adv-x="338" 
d="M27 -120v67c151 0 204 23 204 366c0 345 -54 366 -205 366v67c204 -4 272 -45 272 -433s-69 -429 -271 -433z" />
    <glyph glyph-name="asterisk" unicode="*" horiz-adv-x="389" 
d="M164 367l4 138l-113 -73l-29 54l117 69l-115 66l29 54l112 -73l-3 137h59l-4 -139l113 73l30 -54l-117 -66l116 -66l-30 -54l-113 73l3 -139h-59z" />
    <glyph glyph-name="plus" unicode="+" horiz-adv-x="507" 
d="M219 138v162h-159v65h159v162h70v-162h158v-65h-158v-162h-70z" />
    <glyph glyph-name="comma" unicode="," horiz-adv-x="242" 
d="M54 -154l-39 24l59 246h127z" />
    <glyph glyph-name="hyphen" unicode="-" horiz-adv-x="392" 
d="M60 232v72h272v-72h-272z" />
    <glyph glyph-name="hyphen" unicode="&#xad;" horiz-adv-x="392" 
d="M60 232v72h272v-72h-272z" />
    <glyph glyph-name="period" unicode="." horiz-adv-x="242" 
d="M63 0v116h117v-116h-117z" />
    <glyph glyph-name="slash" unicode="/" horiz-adv-x="306" 
d="M-5 0l250 726h66l-251 -726h-65z" />
    <glyph glyph-name="zero" unicode="0" horiz-adv-x="615" 
d="M307 -11c-182 0 -266 81 -266 374s86 376 268 376c181 0 266 -81 266 -374s-87 -376 -268 -376zM309 58c131 0 189 64 189 265v80c0 201 -60 267 -191 267s-189 -64 -189 -265v-80c0 -201 60 -267 191 -267z" />
    <glyph glyph-name="one" unicode="1" horiz-adv-x="316" 
d="M166 0v658h-139v68h212v-726h-73z" />
    <glyph glyph-name="two" unicode="2" horiz-adv-x="547" 
d="M36 0v61l190 195c171 176 181 174 181 295c0 86 -35 119 -164 119c-69 0 -146 -12 -190 -23l-12 64c46 13 132 28 204 28c173 0 238 -57 238 -186c0 -150 -38 -170 -197 -333l-149 -152h372v-68h-473z" />
    <glyph glyph-name="three" unicode="3" horiz-adv-x="537" 
d="M56 -11l-5 66c180 9 284 26 332 56c34 21 43 72 43 125s-10 100 -43 121c-48 30 -129 39 -186 42v61l182 198h-350v68h436v-68l-186 -201c36 -4 100 -17 140 -40c60 -34 83 -91 83 -179s-20 -151 -80 -185c-64 -36 -188 -60 -366 -64z" />
    <glyph glyph-name="four" unicode="4" horiz-adv-x="578" 
d="M389 0v178h-369v78l284 475h78l-290 -485h297v220h74v-220h89v-68h-89v-178h-74z" />
    <glyph glyph-name="five" unicode="5" horiz-adv-x="536" 
d="M55 -11l-5 66c180 9 286 22 333 52c34 21 43 76 43 129s-9 105 -43 126c-47 30 -132 49 -340 56l10 308h410v-68h-341l-6 -178c166 -6 255 -30 306 -59c60 -34 80 -95 80 -183s-21 -155 -80 -189c-63 -36 -189 -56 -367 -60z" />
    <glyph glyph-name="six" unicode="6" horiz-adv-x="581" 
d="M295 -11c-215 0 -253 96 -253 260v159c0 113 11 178 55 224c55 58 169 88 368 107l8 -65c-191 -21 -278 -44 -320 -85c-39 -38 -35 -111 -35 -168c54 14 139 32 211 32c154 0 222 -58 222 -209c0 -155 -30 -255 -256 -255zM297 58c146 0 178 34 178 186
c0 102 -39 139 -149 139c-80 0 -160 -19 -208 -31v-108c0 -150 48 -186 179 -186z" />
    <glyph glyph-name="seven" unicode="7" horiz-adv-x="528" 
d="M148 0l283 658h-412v68h490v-65l-279 -661h-82z" />
    <glyph glyph-name="eight" unicode="8" horiz-adv-x="605" 
d="M300 -10c-169 0 -265 37 -265 180c0 144 23 162 163 220c-108 46 -132 84 -132 183c0 129 103 166 235 166c136 0 240 -37 240 -166c0 -116 -21 -140 -136 -187c132 -50 167 -80 167 -216c0 -143 -105 -180 -272 -180zM329 414c136 55 136 62 136 159
c0 76 -61 97 -165 97c-101 0 -158 -21 -158 -97c0 -97 35 -108 172 -154zM300 59c120 0 196 22 196 111c0 119 -32 134 -215 189l-10 3c-151 -60 -160 -68 -160 -192c0 -89 69 -111 189 -111z" />
    <glyph glyph-name="nine" unicode="9" horiz-adv-x="581" 
d="M116 -11l-8 65c191 21 278 44 320 85c39 38 35 111 35 168c-54 -14 -139 -32 -211 -32c-154 0 -222 58 -222 209c0 155 30 255 256 255c215 0 253 -96 253 -260v-159c0 -113 -11 -178 -55 -224c-55 -58 -169 -88 -368 -107zM255 345c80 0 160 19 208 31v108
c0 150 -48 186 -179 186c-146 0 -178 -34 -178 -186c0 -102 39 -139 149 -139z" />
    <glyph glyph-name="colon" unicode=":" horiz-adv-x="242" 
d="M63 350v115h117v-115h-117zM63 0v116h117v-116h-117z" />
    <glyph glyph-name="semicolon" unicode=";" horiz-adv-x="242" 
d="M63 350v115h117v-115h-117zM54 -154l-39 24l59 246h127z" />
    <glyph glyph-name="less" unicode="&#x3c;" horiz-adv-x="368" 
d="M224 121l-192 203l192 203h87l-193 -203l193 -203h-87z" />
    <glyph glyph-name="equal" unicode="=" horiz-adv-x="460" 
d="M60 388v64h340v-64h-340zM60 212v64h340v-64h-340z" />
    <glyph glyph-name="greater" unicode="&#x3e;" horiz-adv-x="368" 
d="M57 121l193 203l-193 203h87l192 -203l-192 -203h-87z" />
    <glyph glyph-name="question" unicode="?" horiz-adv-x="515" 
d="M192 201v157c199 75 233 99 233 199c0 84 -45 113 -178 113c-69 0 -124 -6 -201 -22l-14 63c43 13 131 28 215 28c182 0 251 -49 251 -180c0 -121 -43 -168 -233 -243v-115h-73zM171 0v110h111v-110h-111z" />
    <glyph glyph-name="at" unicode="@" horiz-adv-x="957" 
d="M479 -187c-306 0 -427 85 -427 433s122 435 427 435s428 -96 428 -396c0 -247 -94 -285 -341 -285l-15 54c-52 -33 -114 -62 -180 -62c-79 0 -154 33 -113 254c40 218 103 229 163 229c67 0 166 -30 202 -44l25 34h49l-74 -399c168 0 218 33 218 220
c0 269 -108 329 -362 329c-253 0 -362 -47 -362 -368s109 -368 362 -368h98v-66h-98zM394 59c54 0 124 32 168 67l45 243c-34 14 -117 39 -172 39c-48 0 -78 -29 -103 -161c-27 -145 -16 -188 62 -188z" />
    <glyph glyph-name="A" unicode="A" horiz-adv-x="661" 
d="M158 176l-67 -176h-72l279 731h65l279 -731h-75l-67 176h-342zM474 243l-145 381l-145 -381h290z" />
    <glyph glyph-name="B" unicode="B" horiz-adv-x="629" 
d="M76 0v726h266c140 0 222 -40 222 -196c0 -81 -31 -138 -102 -152c79 -12 121 -75 121 -176c0 -145 -82 -202 -222 -202h-285zM148 402h194c78 0 149 16 149 128s-72 129 -149 129h-194v-257zM148 67h213c78 0 149 23 149 135s-71 135 -149 135h-213v-270z" />
    <glyph glyph-name="C" unicode="C" horiz-adv-x="580" 
d="M336 -11c-158 0 -294 38 -294 374s137 376 295 376c95 0 171 -16 200 -26l-16 -65c-31 7 -108 22 -186 22c-142 0 -215 -52 -215 -281v-48c0 -224 76 -283 218 -283c77 0 164 17 184 23l16 -65c-45 -15 -116 -27 -202 -27z" />
    <glyph glyph-name="D" unicode="D" horiz-adv-x="651" 
d="M76 0v726h237c183 0 296 -67 296 -363s-113 -363 -296 -363h-237zM149 67h163c131 0 219 51 219 272v48c0 222 -88 272 -219 272h-163v-592z" />
    <glyph glyph-name="E" unicode="E" horiz-adv-x="544" 
d="M76 0v726h426v-68h-353v-240h270v-68h-270v-282h353v-68h-426z" />
    <glyph glyph-name="F" unicode="F" horiz-adv-x="525" 
d="M76 0v726h427v-68h-354v-290h262v-68h-262v-300h-73z" />
    <glyph glyph-name="G" unicode="G" horiz-adv-x="626" 
d="M336 -11c-158 0 -294 38 -294 374s137 376 305 376c95 0 176 -16 205 -26l-16 -65c-31 7 -113 22 -191 22c-153 0 -225 -52 -225 -281v-48c0 -224 76 -283 218 -283c85 0 128 10 157 17v264h72v-317c-35 -11 -123 -33 -231 -33z" />
    <glyph glyph-name="H" unicode="H" horiz-adv-x="705" 
d="M76 0v726h73v-303h407v303h73v-726h-73v355h-407v-355h-73z" />
    <glyph glyph-name="I" unicode="I" horiz-adv-x="242" 
d="M85 0v726h74v-726h-74z" />
    <glyph glyph-name="J" unicode="J" horiz-adv-x="484" 
d="M202 -5c-55 0 -127 8 -180 20l11 67c60 -9 125 -18 169 -18c135 0 144 56 144 201v461h73v-471c0 -187 -42 -260 -217 -260z" />
    <glyph glyph-name="K" unicode="K" horiz-adv-x="639" 
d="M149 373l356 353h89l-277 -275l287 -451h-86s-253 398 -254 398c0 1 -70 -69 -115 -114v-284h-73v726h73v-353z" />
    <glyph glyph-name="L" unicode="L" horiz-adv-x="558" 
d="M66 0v726h73v-658h397v-68h-470z" />
    <glyph glyph-name="M" unicode="M" horiz-adv-x="843" 
d="M451 0h-63l-243 546v-546h-69v726h64l281 -629l282 629h64v-726h-73v546z" />
    <glyph glyph-name="N" unicode="N" horiz-adv-x="689" 
d="M76 0v726h69l398 -596v596h70v-726h-66l-401 600v-600h-70z" />
    <glyph glyph-name="O" unicode="O" horiz-adv-x="694" 
d="M346 -11c-169 0 -304 66 -304 374s137 376 306 376s304 -66 304 -374s-137 -376 -306 -376zM348 58c132 0 226 49 226 281v48c0 232 -96 283 -228 283s-226 -49 -226 -281v-48c0 -232 96 -283 228 -283z" />
    <glyph glyph-name="P" unicode="P" horiz-adv-x="615" 
d="M76 0v726h262c167 0 245 -64 245 -227s-81 -229 -247 -229h-187v-270h-73zM149 337h189c102 0 172 17 172 160s-73 162 -174 162h-187v-322z" />
    <glyph glyph-name="Q" unicode="Q" horiz-adv-x="694" 
d="M508 23l90 -164h-80l-78 141c-29 -7 -61 -9 -94 -9c-169 0 -304 64 -304 372s137 376 306 376s304 -66 304 -374c0 -199 -57 -297 -144 -342zM406 62l-84 153h82l71 -131c61 35 99 108 99 255v48c0 232 -96 283 -228 283s-226 -49 -226 -281v-48c0 -232 96 -283 228 -283
c20 0 40 1 58 4z" />
    <glyph glyph-name="R" unicode="R" horiz-adv-x="641" 
d="M420 289l184 -289h-86l-178 280h-191v-280h-73v726h252c167 0 245 -59 245 -222c0 -132 -55 -195 -153 -215zM149 346h179c102 0 172 13 172 156s-73 157 -174 157h-177v-313z" />
    <glyph glyph-name="S" unicode="S" horiz-adv-x="583" 
d="M274 -5c-84 0 -186 19 -224 33l13 66c39 -10 136 -30 212 -30c120 0 176 20 176 132c0 96 -33 108 -160 138c-181 43 -232 74 -232 213c0 131 85 187 239 187c94 0 177 -16 202 -23l-13 -66c-24 6 -114 20 -191 20c-105 0 -160 -25 -160 -116c0 -97 36 -113 170 -144
c139 -33 223 -58 223 -207c0 -161 -95 -203 -255 -203z" />
    <glyph glyph-name="T" unicode="T" horiz-adv-x="601" 
d="M265 0v658h-243v68h557v-68h-241v-658h-73z" />
    <glyph glyph-name="U" unicode="U" horiz-adv-x="687" 
d="M344 -10c-180 0 -278 49 -278 268v468h74v-460c0 -157 51 -205 206 -205s205 41 205 203v462h71v-466c0 -216 -97 -270 -278 -270z" />
    <glyph glyph-name="V" unicode="V" horiz-adv-x="661" 
d="M298 -5l-279 731h75l238 -624l238 624h72l-279 -731h-65z" />
    <glyph glyph-name="W" unicode="W" horiz-adv-x="914" 
d="M222 -5l-203 731h75l161 -581l172 581h63l161 -581l172 581h72l-216 -731h-59l-164 591l-175 -591h-59z" />
    <glyph glyph-name="X" unicode="X" horiz-adv-x="670" 
d="M39 0l250 381l-229 345h84l191 -288l190 288h81l-229 -349l250 -377h-84l-213 320l-210 -320h-81z" />
    <glyph glyph-name="Y" unicode="Y" horiz-adv-x="652" 
d="M289 0v295l-270 431h81l228 -364l229 364h76l-271 -431v-295h-73z" />
    <glyph glyph-name="Z" unicode="Z" horiz-adv-x="577" 
d="M29 0v57l418 601h-409v68h497v-63l-414 -595h419v-68h-511z" />
    <glyph glyph-name="bracketleft" unicode="[" horiz-adv-x="280" 
d="M63 -120v866h193v-67h-126v-732h126v-67h-193z" />
    <glyph glyph-name="backslash" unicode="\" horiz-adv-x="306" 
d="M246 0l-251 726h66l250 -726h-65z" />
    <glyph glyph-name="bracketright" unicode="]" horiz-adv-x="280" 
d="M27 -120v67h125v732h-125v67h192v-866h-192z" />
    <glyph glyph-name="asciicircum" unicode="^" horiz-adv-x="392" 
d="M60 302v72h272v-72h-272z" />
    <glyph glyph-name="underscore" unicode="_" horiz-adv-x="450" 
d="M-35 -121v66h522v-66h-522z" />
    <glyph glyph-name="grave" unicode="`" horiz-adv-x="449" 
d="M234 536l-166 170h126l86 -170h-46z" />
    <glyph glyph-name="a" unicode="a" horiz-adv-x="489" 
d="M166 -7c-59 0 -125 23 -125 139c0 60 12 102 49 120c59 28 129 30 262 30v24c0 80 -13 112 -99 112c-67 0 -128 -12 -151 -18l-14 64c22 5 80 20 167 20c123 0 170 -43 170 -166v-318h-53l-15 50c-22 -14 -100 -57 -191 -57zM186 58c58 0 134 32 166 53v112
c-135 0 -186 -7 -213 -21c-22 -12 -24 -46 -24 -74c0 -58 25 -70 71 -70z" />
    <glyph glyph-name="b" unicode="b" horiz-adv-x="531" 
d="M329 -8c-80 0 -164 31 -194 45l-21 -37h-48v746h73v-326c25 14 118 56 194 56c69 0 153 -13 153 -241s-89 -243 -157 -243zM310 59c72 0 101 29 101 174s-28 176 -100 176c-56 0 -138 -32 -172 -52v-258c28 -13 113 -40 171 -40z" />
    <glyph glyph-name="c" unicode="c" horiz-adv-x="442" 
d="M250 -12c-145 0 -215 70 -215 248s73 248 218 248c50 0 115 -11 145 -19l-14 -64c-31 7 -82 17 -134 17c-87 0 -140 -24 -140 -180s55 -184 142 -184c44 0 102 9 133 18l15 -63c-40 -11 -95 -21 -150 -21z" />
    <glyph glyph-name="d" unicode="d" horiz-adv-x="531" 
d="M198 -8c-69 0 -153 13 -153 241s89 243 157 243c80 0 164 -32 190 -43v313h73v-746h-53l-15 50c-25 -14 -115 -58 -199 -58zM220 59c58 0 138 32 172 52v258c-28 13 -113 40 -171 40c-72 0 -101 -29 -101 -174s28 -176 100 -176z" />
    <glyph glyph-name="e" unicode="e" horiz-adv-x="473" 
d="M250 -12c-145 0 -215 70 -215 248c0 184 85 250 202 250c130 0 193 -56 193 -220v-38h-321c2 -146 56 -174 143 -174c48 0 114 7 145 16l13 -63c-28 -8 -98 -19 -160 -19zM112 286h242c0 106 -36 135 -120 135c-63 0 -112 -26 -122 -135z" />
    <glyph glyph-name="f" unicode="f" horiz-adv-x="332" 
d="M109 0v399h-83v66h83v112c0 100 28 137 193 171l14 -66c-123 -26 -134 -43 -134 -109v-108h125v-66h-125v-399h-73z" />
    <glyph glyph-name="g" unicode="g" horiz-adv-x="531" 
d="M245 -205c-57 0 -124 7 -154 13l9 65c45 -7 104 -11 141 -11c127 0 152 10 152 181v14c-28 -23 -119 -65 -195 -65c-68 0 -153 13 -153 241s89 243 158 243c74 0 167 -35 194 -53l21 42h47v-417c0 -207 -39 -253 -220 -253zM221 59c56 0 140 37 172 63v237
c-24 18 -115 50 -171 50c-72 0 -102 -29 -102 -174s29 -176 101 -176z" />
    <glyph glyph-name="h" unicode="h" horiz-adv-x="528" 
d="M66 0v746h72v-337c32 28 130 67 194 67c86 0 132 -38 132 -130v-346h-73v327c0 58 -15 82 -78 82c-50 0 -129 -28 -174 -62v-347h-73z" />
    <glyph glyph-name="i" unicode="i" horiz-adv-x="215" 
d="M69 582v104h77v-104h-77zM71 0v465h73v-465h-73z" />
    <glyph glyph-name="j" unicode="j" horiz-adv-x="215" 
d="M69 582v104h77v-104h-77zM-50 -199l-14 66c123 26 135 43 135 109v489h73v-493c0 -100 -29 -137 -194 -171z" />
    <glyph glyph-name="k" unicode="k" horiz-adv-x="480" 
d="M139 151v-151h-73v746h73v-512l218 231h84l-178 -185l196 -280h-83l-161 230z" />
    <glyph glyph-name="l" unicode="l" horiz-adv-x="215" 
d="M71 0v746h73v-746h-73z" />
    <glyph glyph-name="m" unicode="m" horiz-adv-x="834" 
d="M66 0v465h54l14 -57c46 33 129 68 194 68s103 -25 118 -71c49 33 128 71 197 71c86 0 126 -38 126 -130v-346h-72v327c0 58 -10 82 -73 82c-47 0 -120 -26 -170 -62v-347h-72v327c0 58 -11 82 -73 82c-51 0 -125 -28 -170 -62v-347h-73z" />
    <glyph glyph-name="n" unicode="n" horiz-adv-x="528" 
d="M66 0v465h53l15 -47c25 14 118 58 198 58c86 0 132 -39 132 -130v-346h-73v327c0 58 -15 82 -78 82c-56 0 -140 -32 -174 -52v-357h-73z" />
    <glyph glyph-name="o" unicode="o" horiz-adv-x="520" 
d="M259 -12c-143 0 -224 70 -224 248s83 250 226 250c144 0 224 -70 224 -248s-82 -250 -226 -250zM261 54c84 0 149 26 149 182s-67 184 -151 184c-83 0 -149 -26 -149 -182s68 -184 151 -184z" />
    <glyph glyph-name="p" unicode="p" horiz-adv-x="531" 
d="M66 -200v665h53l15 -47c25 14 115 58 199 58c69 0 153 -13 153 -241s-89 -243 -157 -243c-80 0 -164 32 -190 43v-235h-73zM310 59c72 0 101 29 101 174s-28 176 -100 176c-58 0 -138 -32 -172 -52v-258c28 -13 113 -40 171 -40z" />
    <glyph glyph-name="q" unicode="q" horiz-adv-x="526" 
d="M387 -200v248c-25 -14 -118 -56 -194 -56c-69 0 -153 13 -153 241s89 243 157 243c80 0 164 -31 194 -45l21 45h48v-676h-73zM215 59c56 0 138 32 172 52v258c-28 13 -113 40 -171 40c-72 0 -101 -29 -101 -174s28 -176 100 -176z" />
    <glyph glyph-name="r" unicode="r" horiz-adv-x="345" 
d="M66 0v465h53l15 -55c42 25 103 56 176 66l10 -67c-55 -8 -133 -30 -181 -60v-349h-73z" />
    <glyph glyph-name="s" unicode="s" horiz-adv-x="464" 
d="M221 -10c-62 0 -140 14 -173 26l13 63c25 -8 104 -24 160 -24c103 0 127 17 127 82c0 46 -23 57 -101 68c-147 20 -190 33 -190 140c0 99 62 136 186 136c67 0 139 -10 160 -16l-13 -63c-23 5 -101 14 -149 14c-85 0 -110 -18 -110 -69c0 -53 19 -60 127 -73
c125 -15 165 -44 165 -135c0 -126 -69 -149 -202 -149z" />
    <glyph glyph-name="t" unicode="t" horiz-adv-x="349" 
d="M201 -5c-65 0 -98 44 -98 129v275h-83v66h83v164l72 20v-184h126v-66h-126v-265c0 -57 13 -70 38 -70c22 0 43 1 87 7l6 -68c-53 -7 -79 -8 -105 -8z" />
    <glyph glyph-name="u" unicode="u" horiz-adv-x="525" 
d="M196 -9c-86 0 -132 39 -132 130v344h73v-325c0 -58 15 -82 78 -82c56 0 137 30 171 50v357h73v-465h-53l-15 47c-25 -14 -115 -56 -195 -56z" />
    <glyph glyph-name="v" unicode="v" horiz-adv-x="473" 
d="M198 -4l-179 469h79l142 -390l142 390h72l-179 -469h-77z" />
    <glyph glyph-name="w" unicode="w" horiz-adv-x="720" 
d="M166 -4l-147 469h76l109 -363l125 363h67l124 -363l110 363h71l-147 -469h-70l-125 366l-124 -366h-69z" />
    <glyph glyph-name="x" unicode="x" horiz-adv-x="478" 
d="M29 0l167 240l-156 225h83l121 -173l117 173h76l-156 -227l166 -238h-83l-131 189l-128 -189h-76z" />
    <glyph glyph-name="y" unicode="y" horiz-adv-x="473" 
d="M205 3l-186 462h79s145 -372 145 -373l141 373h70l-254 -665h-73s78 204 78 203z" />
    <glyph glyph-name="z" unicode="z" horiz-adv-x="432" 
d="M26 0v55l281 347h-268v63h355v-55l-279 -347h292v-63h-381z" />
    <glyph glyph-name="braceleft" unicode="{" horiz-adv-x="397" 
d="M371 -120c-197 4 -267 42 -271 405h-93v67h93c4 353 75 390 272 394l-1 -67c-151 0 -204 -21 -204 -366c0 -343 53 -366 204 -366v-67z" />
    <glyph glyph-name="bar" unicode="|" horiz-adv-x="309" 
d="M125 -200v990h59v-990h-59z" />
    <glyph glyph-name="braceright" unicode="}" horiz-adv-x="397" 
d="M25 -120l1 67c151 0 204 21 204 366c0 343 -53 366 -204 366v67c197 -4 267 -42 271 -405h93v-67h-93c-4 -353 -75 -390 -272 -394z" />
    <glyph glyph-name="asciitilde" unicode="~" horiz-adv-x="450" 
d="M101 532l-43 50c62 51 82 67 117 67c36 0 83 -46 100 -46c15 0 32 17 74 51l43 -50c-63 -52 -78 -68 -118 -68c-36 0 -82 46 -100 46c-14 0 -31 -16 -73 -50z" />
    <glyph glyph-name="Adieresis" unicode="&#xc4;" horiz-adv-x="661" 
d="M483 620v106h105v-106h-105zM72 620v106h104v-106h-104zM158 176l-67 -176h-72l279 731h65l279 -731h-75l-67 176h-342zM474 243l-145 381l-145 -381h290z" />
    <glyph glyph-name="Aring" unicode="&#xc5;" horiz-adv-x="661" 
d="M158 176l-67 -176h-72l264 691c-39 13 -52 45 -52 94c0 65 23 101 96 101s96 -36 96 -101c0 -46 -12 -78 -46 -92l265 -693h-75l-67 176h-342zM327 734c42 0 47 17 47 51s-5 53 -47 53s-47 -19 -47 -53s5 -51 47 -51zM474 243l-145 381l-145 -381h290z" />
    <glyph glyph-name="Ccedilla" unicode="&#xc7;" horiz-adv-x="580" 
d="M274 -8c-130 13 -232 80 -232 371c0 336 137 376 295 376c95 0 171 -16 200 -26l-16 -65c-31 7 -108 22 -186 22c-142 0 -215 -52 -215 -281v-48c0 -224 76 -283 218 -283c77 0 164 17 184 23l16 -65c-43 -14 -110 -26 -192 -27l24 -121c-25 -25 -74 -51 -149 -62l-13 71
c41 7 68 17 82 25z" />
    <glyph glyph-name="Eacute" unicode="&#xc9;" horiz-adv-x="544" 
d="M76 0v726h426v-68h-353v-240h270v-68h-270v-282h353v-68h-426zM217 776l86 170h126l-166 -170h-46z" />
    <glyph glyph-name="Ntilde" unicode="&#xd1;" horiz-adv-x="689" 
d="M76 0v726h69l398 -596v596h70v-726h-66l-401 600v-600h-70zM220 772l-43 50c62 51 82 67 117 67c36 0 83 -46 100 -46c15 0 32 17 74 51l43 -50c-63 -52 -78 -68 -118 -68c-36 0 -82 46 -100 46c-14 0 -31 -16 -73 -50z" />
    <glyph glyph-name="Odieresis" unicode="&#xd6;" horiz-adv-x="694" 
d="M346 -11c-169 0 -304 66 -304 374s137 376 306 376s304 -66 304 -374s-137 -376 -306 -376zM348 58c132 0 226 49 226 281v48c0 232 -96 283 -228 283s-226 -49 -226 -281v-48c0 -232 96 -283 228 -283zM390 786v106h105v-106h-105zM199 786v106h104v-106h-104z" />
    <glyph glyph-name="Udieresis" unicode="&#xdc;" horiz-adv-x="687" 
d="M344 -10c-180 0 -278 49 -278 268v468h74v-460c0 -157 51 -205 206 -205s205 41 205 203v462h71v-466c0 -216 -97 -270 -278 -270zM386 786v106h105v-106h-105zM195 786v106h104v-106h-104z" />
    <glyph glyph-name="aacute" unicode="&#xe1;" horiz-adv-x="489" 
d="M166 -7c-59 0 -125 23 -125 139c0 60 12 102 49 120c59 28 129 30 262 30v24c0 80 -13 112 -99 112c-67 0 -128 -12 -151 -18l-14 64c22 5 80 20 167 20c123 0 170 -43 170 -166v-318h-53l-15 50c-22 -14 -100 -57 -191 -57zM186 58c58 0 134 32 166 53v112
c-135 0 -186 -7 -213 -21c-22 -12 -24 -46 -24 -74c0 -58 25 -70 71 -70zM192 536l86 170h126l-166 -170h-46z" />
    <glyph glyph-name="agrave" unicode="&#xe0;" horiz-adv-x="489" 
d="M166 -7c-59 0 -125 23 -125 139c0 60 12 102 49 120c59 28 129 30 262 30v24c0 80 -13 112 -99 112c-67 0 -128 -12 -151 -18l-14 64c22 5 80 20 167 20c123 0 170 -43 170 -166v-318h-53l-15 50c-22 -14 -100 -57 -191 -57zM186 58c58 0 134 32 166 53v112
c-135 0 -186 -7 -213 -21c-22 -12 -24 -46 -24 -74c0 -58 25 -70 71 -70zM257 536l-166 170h126l86 -170h-46z" />
    <glyph glyph-name="acircumflex" unicode="&#xe2;" horiz-adv-x="489" 
d="M166 -7c-59 0 -125 23 -125 139c0 60 12 102 49 120c59 28 129 30 262 30v24c0 80 -13 112 -99 112c-67 0 -128 -12 -151 -18l-14 64c22 5 80 20 167 20c123 0 170 -43 170 -166v-318h-53l-15 50c-22 -14 -100 -57 -191 -57zM186 58c58 0 134 32 166 53v112
c-135 0 -186 -7 -213 -21c-22 -12 -24 -46 -24 -74c0 -58 25 -70 71 -70zM90 536l123 156h69l123 -156h-53l-105 85l-104 -85h-53z" />
    <glyph glyph-name="adieresis" unicode="&#xe4;" horiz-adv-x="489" 
d="M166 -7c-59 0 -125 23 -125 139c0 60 12 102 49 120c59 28 129 30 262 30v24c0 80 -13 112 -99 112c-67 0 -128 -12 -151 -18l-14 64c22 5 80 20 167 20c123 0 170 -43 170 -166v-318h-53l-15 50c-22 -14 -100 -57 -191 -57zM186 58c58 0 134 32 166 53v112
c-135 0 -186 -7 -213 -21c-22 -12 -24 -46 -24 -74c0 -58 25 -70 71 -70zM290 546v106h105v-106h-105zM99 546v106h104v-106h-104z" />
    <glyph glyph-name="atilde" unicode="&#xe3;" horiz-adv-x="489" 
d="M166 -7c-59 0 -125 23 -125 139c0 60 12 102 49 120c59 28 129 30 262 30v24c0 80 -13 112 -99 112c-67 0 -128 -12 -151 -18l-14 64c22 5 80 20 167 20c123 0 170 -43 170 -166v-318h-53l-15 50c-22 -14 -100 -57 -191 -57zM186 58c58 0 134 32 166 53v112
c-135 0 -186 -7 -213 -21c-22 -12 -24 -46 -24 -74c0 -58 25 -70 71 -70zM123 532l-43 50c62 51 82 67 117 67c36 0 83 -46 100 -46c15 0 32 17 74 51l43 -50c-63 -52 -78 -68 -118 -68c-36 0 -82 46 -100 46c-14 0 -31 -16 -73 -50z" />
    <glyph glyph-name="aring" unicode="&#xe5;" horiz-adv-x="489" 
d="M166 -7c-59 0 -125 23 -125 139c0 60 12 102 49 120c59 28 129 30 262 30v24c0 80 -13 112 -99 112c-67 0 -128 -12 -151 -18l-14 64c22 5 80 20 167 20c123 0 170 -43 170 -166v-318h-53l-15 50c-22 -14 -100 -57 -191 -57zM186 58c58 0 134 32 166 53v112
c-135 0 -186 -7 -213 -21c-22 -12 -24 -46 -24 -74c0 -58 25 -70 71 -70zM248 528c-73 0 -96 35 -96 100s23 101 96 101s96 -36 96 -101s-24 -100 -96 -100zM248 577c42 0 47 17 47 51s-5 53 -47 53s-47 -19 -47 -53s5 -51 47 -51z" />
    <glyph glyph-name="ccedilla" unicode="&#xe7;" horiz-adv-x="442" 
d="M205 -9c-115 14 -170 87 -170 245c0 178 73 248 218 248c50 0 115 -11 145 -19l-14 -64c-31 7 -82 17 -134 17c-87 0 -140 -24 -140 -180s55 -184 142 -184c44 0 102 9 133 18l15 -63c-33 -9 -77 -18 -123 -20l24 -121c-25 -25 -74 -51 -149 -62l-13 71c41 7 68 17 82 25
z" />
    <glyph glyph-name="eacute" unicode="&#xe9;" horiz-adv-x="473" 
d="M250 -12c-145 0 -215 70 -215 248c0 184 85 250 202 250c130 0 193 -56 193 -220v-38h-321c2 -146 56 -174 143 -174c48 0 114 7 145 16l13 -63c-28 -8 -98 -19 -160 -19zM112 286h242c0 106 -36 135 -120 135c-63 0 -112 -26 -122 -135zM181 536l86 170h126l-166 -170
h-46z" />
    <glyph glyph-name="egrave" unicode="&#xe8;" horiz-adv-x="473" 
d="M250 -12c-145 0 -215 70 -215 248c0 184 85 250 202 250c130 0 193 -56 193 -220v-38h-321c2 -146 56 -174 143 -174c48 0 114 7 145 16l13 -63c-28 -8 -98 -19 -160 -19zM112 286h242c0 106 -36 135 -120 135c-63 0 -112 -26 -122 -135zM246 536l-166 170h126l86 -170
h-46z" />
    <glyph glyph-name="ecircumflex" unicode="&#xea;" horiz-adv-x="473" 
d="M250 -12c-145 0 -215 70 -215 248c0 184 85 250 202 250c130 0 193 -56 193 -220v-38h-321c2 -146 56 -174 143 -174c48 0 114 7 145 16l13 -63c-28 -8 -98 -19 -160 -19zM112 286h242c0 106 -36 135 -120 135c-63 0 -112 -26 -122 -135zM79 536l123 156h69l123 -156h-53
l-105 85l-104 -85h-53z" />
    <glyph glyph-name="edieresis" unicode="&#xeb;" horiz-adv-x="473" 
d="M250 -12c-145 0 -215 70 -215 248c0 184 85 250 202 250c130 0 193 -56 193 -220v-38h-321c2 -146 56 -174 143 -174c48 0 114 7 145 16l13 -63c-28 -8 -98 -19 -160 -19zM112 286h242c0 106 -36 135 -120 135c-63 0 -112 -26 -122 -135zM279 546v106h105v-106h-105z
M88 546v106h104v-106h-104z" />
    <glyph glyph-name="iacute" unicode="&#xed;" horiz-adv-x="215" 
d="M71 0v465h73v-465h-73zM82 536l86 170h126l-166 -170h-46z" />
    <glyph glyph-name="igrave" unicode="&#xec;" horiz-adv-x="215" 
d="M71 0v465h73v-465h-73zM87 536l-166 170h126l86 -170h-46z" />
    <glyph glyph-name="icircumflex" unicode="&#xee;" horiz-adv-x="215" 
d="M71 0v465h73v-465h-73zM-50 536l123 156h69l123 -156h-53l-105 85l-104 -85h-53z" />
    <glyph glyph-name="idieresis" unicode="&#xef;" horiz-adv-x="215" 
d="M71 0v465h73v-465h-73zM150 546v106h105v-106h-105zM-41 546v106h104v-106h-104z" />
    <glyph glyph-name="ntilde" unicode="&#xf1;" horiz-adv-x="528" 
d="M66 0v465h53l15 -47c25 14 118 58 198 58c86 0 132 -39 132 -130v-346h-73v327c0 58 -15 82 -78 82c-56 0 -140 -32 -174 -52v-357h-73zM140 532l-43 50c62 51 82 67 117 67c36 0 83 -46 100 -46c15 0 32 17 74 51l43 -50c-63 -52 -78 -68 -118 -68c-36 0 -82 46 -100 46
c-14 0 -31 -16 -73 -50z" />
    <glyph glyph-name="oacute" unicode="&#xf3;" horiz-adv-x="520" 
d="M259 -12c-143 0 -224 70 -224 248s83 250 226 250c144 0 224 -70 224 -248s-82 -250 -226 -250zM261 54c84 0 149 26 149 182s-67 184 -151 184c-83 0 -149 -26 -149 -182s68 -184 151 -184zM205 536l86 170h126l-166 -170h-46z" />
    <glyph glyph-name="ograve" unicode="&#xf2;" horiz-adv-x="520" 
d="M259 -12c-143 0 -224 70 -224 248s83 250 226 250c144 0 224 -70 224 -248s-82 -250 -226 -250zM261 54c84 0 149 26 149 182s-67 184 -151 184c-83 0 -149 -26 -149 -182s68 -184 151 -184zM270 536l-166 170h126l86 -170h-46z" />
    <glyph glyph-name="ocircumflex" unicode="&#xf4;" horiz-adv-x="520" 
d="M259 -12c-143 0 -224 70 -224 248s83 250 226 250c144 0 224 -70 224 -248s-82 -250 -226 -250zM261 54c84 0 149 26 149 182s-67 184 -151 184c-83 0 -149 -26 -149 -182s68 -184 151 -184zM103 536l123 156h69l123 -156h-53l-105 85l-104 -85h-53z" />
    <glyph glyph-name="odieresis" unicode="&#xf6;" horiz-adv-x="520" 
d="M259 -12c-143 0 -224 70 -224 248s83 250 226 250c144 0 224 -70 224 -248s-82 -250 -226 -250zM261 54c84 0 149 26 149 182s-67 184 -151 184c-83 0 -149 -26 -149 -182s68 -184 151 -184zM303 546v106h105v-106h-105zM112 546v106h104v-106h-104z" />
    <glyph glyph-name="otilde" unicode="&#xf5;" horiz-adv-x="520" 
d="M259 -12c-143 0 -224 70 -224 248s83 250 226 250c144 0 224 -70 224 -248s-82 -250 -226 -250zM261 54c84 0 149 26 149 182s-67 184 -151 184c-83 0 -149 -26 -149 -182s68 -184 151 -184zM136 532l-43 50c62 51 82 67 117 67c36 0 83 -46 100 -46c15 0 32 17 74 51
l43 -50c-63 -52 -78 -68 -118 -68c-36 0 -82 46 -100 46c-14 0 -31 -16 -73 -50z" />
    <glyph glyph-name="uacute" unicode="&#xfa;" horiz-adv-x="525" 
d="M196 -9c-86 0 -132 39 -132 130v344h73v-325c0 -58 15 -82 78 -82c56 0 137 30 171 50v357h73v-465h-53l-15 47c-25 -14 -115 -56 -195 -56zM207 536l86 170h126l-166 -170h-46z" />
    <glyph glyph-name="ugrave" unicode="&#xf9;" horiz-adv-x="525" 
d="M196 -9c-86 0 -132 39 -132 130v344h73v-325c0 -58 15 -82 78 -82c56 0 137 30 171 50v357h73v-465h-53l-15 47c-25 -14 -115 -56 -195 -56zM272 536l-166 170h126l86 -170h-46z" />
    <glyph glyph-name="ucircumflex" unicode="&#xfb;" horiz-adv-x="525" 
d="M196 -9c-86 0 -132 39 -132 130v344h73v-325c0 -58 15 -82 78 -82c56 0 137 30 171 50v357h73v-465h-53l-15 47c-25 -14 -115 -56 -195 -56zM105 536l123 156h69l123 -156h-53l-105 85l-104 -85h-53z" />
    <glyph glyph-name="udieresis" unicode="&#xfc;" horiz-adv-x="525" 
d="M196 -9c-86 0 -132 39 -132 130v344h73v-325c0 -58 15 -82 78 -82c56 0 137 30 171 50v357h73v-465h-53l-15 47c-25 -14 -115 -56 -195 -56zM305 546v106h105v-106h-105zM114 546v106h104v-106h-104z" />
    <glyph glyph-name="dagger" unicode="&#x2020;" horiz-adv-x="456" 
d="M194 -120v567h-167v66h167v233h70v-233h167v-66h-167v-567h-70z" />
    <glyph glyph-name="degree" unicode="&#xb0;" horiz-adv-x="424" 
d="M211 341c-115 0 -181 56 -181 198s68 200 183 200s181 -56 181 -198s-68 -200 -183 -200zM213 405c62 0 110 16 110 134s-50 136 -112 136s-110 -16 -110 -134s50 -136 112 -136z" />
    <glyph glyph-name="cent" unicode="&#xa2;" horiz-adv-x="431" 
d="M281 116v-116h-66v116c-121 12 -180 84 -180 247c0 162 60 234 180 246v117h66v-116c44 -3 92 -11 117 -18l-14 -64c-25 6 -64 13 -105 16v-362c39 3 81 10 106 17l15 -63c-32 -9 -75 -17 -119 -20zM217 183v360c-67 -7 -107 -43 -107 -178c0 -134 40 -173 107 -182z" />
    <glyph glyph-name="sterling" unicode="&#xa3;" horiz-adv-x="560" 
d="M25 0v68h158c-9 44 -33 160 -53 272h-105v67h95c-11 63 -17 117 -17 145c0 119 56 187 211 187c68 0 149 -13 199 -27l-16 -65c-51 13 -113 23 -183 23c-108 0 -137 -40 -137 -117c0 -34 6 -87 15 -146h205v-67h-194c19 -107 43 -216 54 -272h271v-68h-503z" />
    <glyph glyph-name="section" unicode="&#xa7;" horiz-adv-x="540" 
d="M278 -6c-80 0 -165 10 -188 17l11 63c25 -5 111 -15 177 -15c103 0 125 20 125 76c0 75 -21 72 -164 85s-192 45 -192 127c0 53 24 102 53 140c-22 22 -33 55 -33 108c0 92 53 141 196 141c83 0 166 -15 188 -23l-15 -60c-30 7 -113 18 -173 18c-102 0 -124 -20 -124 -76
c0 -75 21 -72 163 -85c144 -13 193 -45 193 -127c0 -53 -25 -102 -53 -141c22 -21 32 -54 32 -107c0 -92 -52 -141 -196 -141zM389 270c21 31 37 63 37 96c0 50 -28 63 -140 74c-56 5 -100 10 -133 20c-22 -31 -37 -63 -37 -96c0 -50 27 -63 140 -74c56 -5 99 -10 133 -20z
" />
    <glyph glyph-name="bullet" unicode="&#x2022;" horiz-adv-x="460" 
d="M232 94c-92 0 -168 29 -168 192s74 190 166 190s168 -29 168 -192s-74 -190 -166 -190z" />
    <glyph glyph-name="paragraph" unicode="&#xb6;" horiz-adv-x="566" 
d="M245 0v304c-150 0 -218 54 -218 213c0 156 65 209 210 209h253v-726h-73v304h-99v-304h-73zM237 371h180v288h-178c-72 0 -139 -14 -139 -144s66 -144 137 -144z" />
    <glyph glyph-name="germandbls" unicode="&#xdf;" horiz-adv-x="605" 
d="M260 -9l-9 65c123 13 188 26 220 59c22 22 30 56 30 111c0 57 -9 91 -33 113c-31 28 -85 40 -172 50c-1 20 0 59 0 59c101 94 110 106 110 183c0 59 -43 63 -139 63c-70 0 -86 -18 -86 -72v-622h-72v399h-83v66h83v167c0 85 38 129 164 129c151 0 206 -26 206 -128
c0 -90 -33 -121 -107 -191c71 -11 122 -27 154 -62c30 -33 46 -79 46 -152c0 -76 -14 -122 -44 -155c-47 -52 -135 -67 -268 -82z" />
    <glyph glyph-name="registered" unicode="&#xae;" horiz-adv-x="826" 
d="M413 -12c-250 0 -361 76 -361 376s111 376 361 376s361 -76 361 -376s-111 -376 -361 -376zM413 52c210 0 297 42 297 313s-87 311 -297 311s-298 -40 -298 -311s88 -313 298 -313zM266 145v440h181c78 0 126 -39 126 -138c0 -81 -23 -119 -78 -134l118 -168h-69
l-114 157h-101v-157h-63zM329 357h104c47 0 77 19 77 90c0 72 -33 83 -69 83h-112v-173z" />
    <glyph glyph-name="copyright" unicode="&#xa9;" horiz-adv-x="826" 
d="M413 -12c-250 0 -361 76 -361 376s111 376 361 376s361 -76 361 -376s-111 -376 -361 -376zM413 52c210 0 297 42 297 313s-87 311 -297 311s-298 -40 -298 -311s88 -313 298 -313zM416 129c-99 0 -186 23 -186 234c0 212 88 236 188 236c58 0 95 -8 135 -19l-18 -56
c-52 9 -78 14 -119 14c-79 0 -119 -31 -119 -159v-29c0 -125 41 -160 121 -160c41 0 74 6 120 15l16 -57c-41 -12 -85 -19 -138 -19z" />
    <glyph glyph-name="trademark" unicode="&#x2122;" horiz-adv-x="879" 
d="M165 290v386h-137v50h333v-50h-138v-386h-58zM429 290v436h84l110 -346l110 346h88v-436h-57v378l-125 -380h-42l-117 380v-378h-51z" />
    <glyph glyph-name="acute" unicode="&#xb4;" horiz-adv-x="449" 
d="M169 536l86 170h126l-166 -170h-46z" />
    <glyph glyph-name="dieresis" unicode="&#xa8;" horiz-adv-x="450" 
d="M268 546v106h105v-106h-105zM77 546v106h104v-106h-104z" />
    <glyph glyph-name="notequal" unicode="&#x2260;" horiz-adv-x="660" 
d="M109 0v399h-83v66h83v75c0 100 28 137 193 171l14 -66c-123 -26 -134 -43 -134 -109v-71h255v112c0 100 28 137 193 171l14 -66c-123 -26 -134 -43 -134 -109v-108h125v-66h-125v-399h-73v399h-255v-399h-73z" />
    <glyph glyph-name="AE" unicode="&#xc6;" horiz-adv-x="964" 
d="M19 0l435 726h468v-68h-353v-240h270v-68h-270v-282h353v-68h-424v227h-266l-132 -227h-81zM273 296h225v377z" />
    <glyph glyph-name="Oslash" unicode="&#xd8;" horiz-adv-x="694" 
d="M554 677c60 -54 98 -149 98 -312c0 -308 -137 -376 -306 -376c-58 0 -111 8 -157 30l-43 -77h-67s33 60 61 110c-60 53 -98 148 -98 311c0 308 137 376 306 376c57 0 110 -8 155 -29l43 76h68zM177 120l291 526c-34 18 -76 24 -122 24c-132 0 -226 -49 -226 -281v-48
c0 -109 21 -178 57 -221zM516 609l-292 -526c35 -19 77 -25 124 -25c132 0 226 49 226 281v48c0 110 -22 179 -58 222z" />
    <glyph glyph-name="infinity" unicode="&#x221e;" horiz-adv-x="905" 
d="M109 0v399h-83v66h83v75c0 100 28 137 193 171l14 -66c-123 -26 -134 -43 -134 -109v-71h255v101c0 104 48 149 301 181l8 -69c-217 -29 -236 -52 -236 -116v-97h324v-465h-73v399h-251v-399h-73v399h-255v-399h-73z" />
    <glyph glyph-name="plusminus" unicode="&#xb1;" horiz-adv-x="905" 
d="M109 0v399h-83v66h83v75c0 100 28 137 193 171l14 -66c-123 -26 -134 -43 -134 -109v-71h255v112c0 100 33 140 183 171l14 -66c-110 -23 -124 -43 -124 -109v-108h125v-66h-125v-399h-73v399h-255v-399h-73zM761 0v746h73v-746h-73z" />
    <glyph glyph-name="lessequal" unicode="&#x2264;" horiz-adv-x="521" 
d="M198 -8c-68 0 -153 13 -153 241s89 243 158 243c74 0 157 -35 184 -53l21 42h47v-465h-53l-15 60c-28 -25 -113 -68 -189 -68zM221 59c56 0 130 37 162 63v237c-24 18 -105 50 -161 50c-72 0 -102 -29 -102 -174s29 -176 101 -176z" />
    <glyph glyph-name="greaterequal" unicode="&#x2265;" horiz-adv-x="510" 
d="M51 -204l-3 70c323 4 362 16 362 80c0 66 -16 77 -305 86l21 135c-75 17 -98 59 -98 153c0 134 57 162 203 162c69 0 121 -5 150 -12l34 63l58 -35l-42 -73c5 -15 15 -62 15 -104c0 -125 -48 -163 -211 -163c-17 0 -30 0 -45 1l-10 -63c250 -9 305 -27 305 -148
c0 -129 -97 -149 -434 -152zM236 223c115 0 135 9 135 97c0 31 -4 63 -11 86c-30 7 -77 11 -134 11c-101 0 -124 -17 -124 -97s19 -97 134 -97z" />
    <glyph glyph-name="yen" unicode="&#xa5;" horiz-adv-x="652" 
d="M451 437h149v-65h-190l-48 -77v-40h238v-65h-238v-190h-73v190h-238v65h238v40l-48 77h-190v65h149l-181 289h83l228 -367l228 367h75z" />
    <glyph glyph-name="mu" unicode="&#xb5;" horiz-adv-x="709" 
d="M85 0v76c0 178 104 229 238 229v95h-238v194h71v-128h167v67h-53v192h176v-192h-53v-67h162v128h70v-194h-232v-95c134 0 238 -51 238 -229v-76h-73v72c0 131 -50 162 -165 162v-100h-70v100c-115 0 -165 -31 -165 -162v-72h-73z" />
    <glyph glyph-name="mu" unicode="&#x3bc;" horiz-adv-x="709" 
d="M85 0v76c0 178 104 229 238 229v95h-238v194h71v-128h167v67h-53v192h176v-192h-53v-67h162v128h70v-194h-232v-95c134 0 238 -51 238 -229v-76h-73v72c0 131 -50 162 -165 162v-100h-70v100c-115 0 -165 -31 -165 -162v-72h-73z" />
    <glyph glyph-name="partialdiff" unicode="&#x2202;" horiz-adv-x="709" 
d="M74 0v76c0 178 104 229 238 229v95h-238v194h71v-128h167v67h-53v192h176v-192h-53v-67h162v128h70v-194h-232v-95c134 0 238 -51 238 -229v-76h-73v72c0 131 -50 162 -165 162v-100h-70v100c-115 0 -165 -31 -165 -162v-72h-73z" />
    <glyph glyph-name="summation" unicode="&#x2211;" horiz-adv-x="709" 
d="M74 0v76c0 178 104 229 238 229v95h-238v194h71v-128h167v67h-53v192h176v-192h-53v-67h162v128h70v-194h-232v-95c134 0 238 -51 238 -229v-76h-73v72c0 131 -50 162 -165 162v-100h-70v100c-115 0 -165 -31 -165 -162v-72h-73z" />
    <glyph glyph-name="product" unicode="&#x220f;" horiz-adv-x="709" 
d="M74 0v76c0 178 104 229 238 229v95h-238v194h71v-128h167v67h-53v192h176v-192h-53v-67h162v128h70v-194h-232v-95c134 0 238 -51 238 -229v-76h-73v72c0 131 -50 162 -165 162v-100h-70v100c-115 0 -165 -31 -165 -162v-72h-73z" />
    <glyph glyph-name="pi" unicode="&#x3c0;" horiz-adv-x="826" 
d="M413 -12c-250 0 -361 76 -361 376s111 376 361 376s361 -76 361 -376s-111 -376 -361 -376zM413 52c210 0 297 42 297 313s-87 311 -297 311s-298 -40 -298 -311s88 -313 298 -313zM285 141v449h185c88 0 128 -44 128 -145s-43 -153 -128 -154h-122v-150h-63zM348 347
h116c42 0 70 26 70 98c0 73 -29 89 -70 89h-116v-187z" />
    <glyph glyph-name="integral" unicode="&#x222b;" horiz-adv-x="709" 
d="M76 0v76c0 178 104 229 238 229v95h-238v194h71v-128h167v67h-53v192h176v-192h-53v-67h162v128h70v-194h-232v-95c134 0 238 -51 238 -229v-76h-73v72c0 131 -50 162 -165 162v-100h-70v100c-115 0 -165 -31 -165 -162v-72h-73z" />
    <glyph glyph-name="ordfeminine" unicode="&#xaa;" horiz-adv-x="398" 
d="M143 341c-49 0 -106 19 -106 109c0 45 4 77 35 97c36 23 97 30 215 30c0 6 1 12 1 18c0 61 -11 84 -75 84c-48 0 -106 -6 -130 -13l-13 56c33 10 87 17 138 17c99 0 149 -22 149 -126v-265l-52 -1l-12 35c-71 -28 -112 -41 -150 -41zM40 227v66h317v-66h-317zM159 401
c31 0 81 16 130 41v81c-101 0 -146 -5 -168 -18c-17 -10 -17 -27 -17 -58c0 -38 19 -46 55 -46z" />
    <glyph glyph-name="ordmasculine" unicode="&#xba;" horiz-adv-x="416" 
d="M208 341c-115 0 -181 56 -181 198s68 200 183 200c116 0 181 -56 181 -198c0 -143 -68 -200 -183 -200zM50 227v66h318v-66h-318zM210 404c62 0 110 17 110 135s-50 137 -112 137s-110 -17 -110 -135s50 -137 112 -137z" />
    <glyph glyph-name="Omega" unicode="&#x3a9;" horiz-adv-x="709" 
d="M74 0v76c0 178 104 229 238 229v95h-238v194h71v-128h167v67h-53v192h176v-192h-53v-67h162v128h70v-194h-232v-95c134 0 238 -51 238 -229v-76h-73v72c0 131 -50 162 -165 162v-100h-70v100c-115 0 -165 -31 -165 -162v-72h-73z" />
    <glyph glyph-name="Omega" unicode="&#x2126;" horiz-adv-x="709" 
d="M74 0v76c0 178 104 229 238 229v95h-238v194h71v-128h167v67h-53v192h176v-192h-53v-67h162v128h70v-194h-232v-95c134 0 238 -51 238 -229v-76h-73v72c0 131 -50 162 -165 162v-100h-70v100c-115 0 -165 -31 -165 -162v-72h-73z" />
    <glyph glyph-name="ae" unicode="&#xe6;" horiz-adv-x="791" 
d="M166 -7c-59 0 -125 23 -125 139c0 49 7 85 32 108c45 42 137 47 280 47v19c0 80 -14 112 -100 112c-67 0 -123 -11 -146 -17l-14 64c22 5 75 19 162 19c80 0 126 -18 148 -66c35 48 88 68 152 68c130 0 193 -56 193 -220v-38h-321c2 -146 56 -174 143 -174
c48 0 114 7 145 16l13 -63c-28 -8 -98 -19 -160 -19c-88 0 -148 25 -182 83c-58 -48 -135 -78 -220 -78zM430 286h242c0 106 -36 135 -120 135c-63 0 -112 -26 -122 -135zM186 58c51 0 130 26 180 64c-8 30 -12 65 -13 106c-128 0 -190 -6 -219 -30c-18 -15 -19 -39 -19 -70
c0 -58 25 -70 71 -70z" />
    <glyph glyph-name="oslash" unicode="&#xf8;" horiz-adv-x="520" 
d="M432 423c35 -40 53 -100 53 -185c0 -178 -82 -250 -226 -250c-40 0 -75 6 -105 17l-48 -71h-79l71 106c-41 40 -63 103 -63 196c0 178 83 250 226 250c46 0 86 -7 118 -23l45 67h79zM140 104l200 301c-23 11 -51 15 -81 15c-83 0 -149 -26 -149 -182
c0 -64 11 -106 30 -134zM388 357l-196 -293c21 -7 44 -10 69 -10c84 0 149 26 149 182c0 54 -8 93 -22 121z" />
    <glyph glyph-name="questiondown" unicode="&#xbf;" horiz-adv-x="515" 
d="M233 629v110h111v-110h-111zM268 0c-182 0 -251 49 -251 180c0 121 43 168 233 243v115h73v-157c-199 -75 -233 -99 -233 -199c0 -84 45 -113 178 -113c69 0 124 6 201 22l14 -63c-43 -13 -131 -28 -215 -28z" />
    <glyph glyph-name="exclamdown" unicode="&#xa1;" horiz-adv-x="283" 
d="M86 616v110h111v-110h-111zM93 0l21 525h52l21 -525h-94z" />
    <glyph glyph-name="logicalnot" unicode="&#xac;" horiz-adv-x="626" 
d="M336 -11c-158 0 -294 38 -294 374s137 376 305 376c95 0 176 -16 205 -26l-16 -65c-31 7 -113 22 -191 22c-153 0 -225 -52 -225 -281v-48c0 -224 76 -283 218 -283c85 0 128 10 157 17v215h-146v68h218v-336c-35 -11 -123 -33 -231 -33z" />
    <glyph glyph-name="radical" unicode="&#x221a;" horiz-adv-x="640" 
d="M232 -4l-164 379h76l131 -303l253 654h77l-289 -730h-84z" />
    <glyph glyph-name="florin" unicode="&#x192;" horiz-adv-x="403" 
d="M40 -120l82 479h-81v66h91l23 133c19 108 33 131 189 167l14 -65c-119 -28 -121 -38 -134 -116l-20 -119h109v-66h-119l-81 -479h-73z" />
    <glyph glyph-name="approxequal" unicode="&#x2248;" horiz-adv-x="709" 
d="M74 0v76c0 178 104 229 238 229v95h-238v194h71v-128h167v67h-53v192h176v-192h-53v-67h162v128h70v-194h-232v-95c134 0 238 -51 238 -229v-76h-73v72c0 131 -50 162 -165 162v-100h-70v100c-115 0 -165 -31 -165 -162v-72h-73z" />
    <glyph glyph-name="Delta" unicode="&#x394;" horiz-adv-x="577" 
d="M313 -199l-14 66c123 26 134 41 134 109v423h-251v-399h-73v399h-83v66h83v101c0 104 48 149 301 181l8 -69c-217 -29 -236 -52 -236 -116v-97h324v-493c0 -101 -28 -137 -193 -171z" />
    <glyph glyph-name="Delta" unicode="&#x2206;" horiz-adv-x="577" 
d="M313 -199l-14 66c123 26 134 41 134 109v423h-251v-399h-73v399h-83v66h83v101c0 104 48 149 301 181l8 -69c-217 -29 -236 -52 -236 -116v-97h324v-493c0 -101 -28 -137 -193 -171z" />
    <glyph glyph-name="guillemotleft" unicode="&#xab;" horiz-adv-x="498" 
d="M362 25l-120 204l120 206h71l-110 -206l110 -204h-71zM170 25l-120 204l120 206h71l-110 -206l110 -204h-71z" />
    <glyph glyph-name="guillemotright" unicode="&#xbb;" horiz-adv-x="498" 
d="M257 25l110 206l-110 204h71l120 -204l-120 -206h-71zM65 25l110 206l-110 204h71l120 -204l-120 -206h-71z" />
    <glyph glyph-name="ellipsis" unicode="&#x2026;" horiz-adv-x="765" 
d="M586 0v116h117v-116h-117zM325 0v116h117v-116h-117zM64 0v116h116v-116h-116z" />
    <glyph glyph-name="Agrave" unicode="&#xc0;" horiz-adv-x="661" 
d="M158 176l-67 -176h-72l279 731h65l279 -731h-75l-67 176h-342zM474 243l-145 381l-145 -381h290zM340 776l-166 170h126l86 -170h-46z" />
    <glyph glyph-name="Atilde" unicode="&#xc3;" horiz-adv-x="661" 
d="M158 176l-67 -176h-72l279 731h65l279 -731h-75l-67 176h-342zM474 243l-145 381l-145 -381h290zM206 772l-43 50c62 51 82 67 117 67c36 0 83 -46 100 -46c15 0 32 17 74 51l43 -50c-63 -52 -78 -68 -118 -68c-36 0 -82 46 -100 46c-14 0 -31 -16 -73 -50z" />
    <glyph glyph-name="Otilde" unicode="&#xd5;" horiz-adv-x="694" 
d="M346 -11c-169 0 -304 66 -304 374s137 376 306 376s304 -66 304 -374s-137 -376 -306 -376zM348 58c132 0 226 49 226 281v48c0 232 -96 283 -228 283s-226 -49 -226 -281v-48c0 -232 96 -283 228 -283zM223 772l-43 50c62 51 82 67 117 67c36 0 83 -46 100 -46
c15 0 32 17 74 51l43 -50c-63 -52 -78 -68 -118 -68c-36 0 -82 46 -100 46c-14 0 -31 -16 -73 -50z" />
    <glyph glyph-name="OE" unicode="&#x152;" horiz-adv-x="968" 
d="M336 0c-183 0 -296 67 -296 363s113 363 296 363h590v-68h-353v-240h270v-68h-270v-282h353v-68h-590zM337 67h163v592h-163c-131 0 -219 -51 -219 -272v-48c0 -222 88 -272 219 -272z" />
    <glyph glyph-name="oe" unicode="&#x153;" horiz-adv-x="853" 
d="M259 -12c-143 0 -224 70 -224 248s83 250 226 250c92 0 153 -28 186 -95c32 68 90 95 165 95c130 0 193 -56 193 -220v-38h-321c2 -146 56 -174 143 -174c48 0 114 7 145 16l13 -63c-28 -8 -98 -19 -160 -19c-92 0 -150 28 -180 94c-33 -65 -95 -94 -186 -94zM487 286
h242c0 106 -36 135 -120 135c-63 0 -112 -26 -122 -135zM261 54c84 0 149 26 149 182s-67 184 -151 184c-83 0 -149 -26 -149 -182s68 -184 151 -184z" />
    <glyph glyph-name="endash" unicode="&#x2013;" horiz-adv-x="554" 
d="M60 232v72h434v-72h-434z" />
    <glyph glyph-name="emdash" unicode="&#x2014;" horiz-adv-x="829" 
d="M60 232v72h709v-72h-709z" />
    <glyph glyph-name="quotedblleft" unicode="&#x201c;" horiz-adv-x="466" 
d="M241 507l133 240l35 -21l-50 -219h-118zM59 507l133 240l35 -21l-50 -219h-118z" />
    <glyph glyph-name="quotedblright" unicode="&#x201d;" horiz-adv-x="466" 
d="M274 486l-35 21l50 219h118zM92 486l-35 21l50 219h118z" />
    <glyph glyph-name="quoteleft" unicode="&#x2018;" horiz-adv-x="284" 
d="M59 507l133 240l35 -21l-50 -219h-118z" />
    <glyph glyph-name="quoteright" unicode="&#x2019;" horiz-adv-x="284" 
d="M92 486l-35 21l50 219h118z" />
    <glyph glyph-name="divide" unicode="&#xf7;" horiz-adv-x="507" 
d="M201 440v104h105v-104h-105zM60 300v65h387v-65h-387zM201 120v105h105v-105h-105z" />
    <glyph glyph-name="lozenge" unicode="&#x25ca;" horiz-adv-x="682" 
d="M534 -5c-65 0 -98 44 -98 129v275h-254v-399h-73v399h-83v66h83v112c0 100 28 137 193 171l14 -66c-123 -26 -134 -43 -134 -109v-108h254v164l72 20v-184h126v-66h-126v-265c0 -57 13 -70 38 -70c22 0 43 1 87 7l6 -68c-53 -7 -79 -8 -105 -8z" />
    <glyph glyph-name="ydieresis" unicode="&#xff;" horiz-adv-x="473" 
d="M205 3l-186 462h79s145 -372 145 -373l141 373h70l-254 -665h-73s78 204 78 203zM279 546v106h105v-106h-105zM88 546v106h104v-106h-104z" />
    <glyph glyph-name="Ydieresis" unicode="&#x178;" horiz-adv-x="652" 
d="M289 0v295l-270 431h81l228 -364l229 364h76l-271 -431v-295h-73zM369 786v106h105v-106h-105zM178 786v106h104v-106h-104z" />
    <glyph glyph-name="fraction" unicode="&#x2044;" horiz-adv-x="316" 
d="M0 0l252 726h64l-252 -726h-64z" />
    <glyph glyph-name="fraction" unicode="&#x2215;" horiz-adv-x="316" 
d="M0 0l252 726h64l-252 -726h-64z" />
    <glyph glyph-name="Euro" unicode="&#x20ac;" horiz-adv-x="608" 
d="M370 -11c-121 0 -217 49 -243 248h-107v66h100c0 36 -2 77 0 115h-100v66h106c26 204 125 255 246 255c91 0 165 -17 194 -28l-15 -63c-44 11 -99 22 -181 22c-96 0 -154 -50 -169 -186h233v-66h-238v-115h238v-66h-231c17 -127 72 -179 169 -179c102 0 158 16 179 22
l15 -63c-20 -7 -91 -28 -196 -28z" />
    <glyph glyph-name="guilsinglleft" unicode="&#x2039;" horiz-adv-x="308" 
d="M170 25l-120 204l120 206h73l-110 -206l110 -204h-73z" />
    <glyph glyph-name="guilsinglright" unicode="&#x203a;" horiz-adv-x="308" 
d="M65 25l110 206l-110 204h73l120 -204l-120 -206h-73z" />
    <glyph glyph-name="daggerdbl" unicode="&#x2021;" horiz-adv-x="456" 
d="M194 -120v233h-167v66h167v268h-167v66h167v233h70v-233h167v-66h-167v-268h167v-66h-167v-233h-70z" />
    <glyph glyph-name="periodcentered" unicode="&#xb7;" horiz-adv-x="237" 
d="M64 309v110h111v-110h-111z" />
    <glyph glyph-name="periodcentered" unicode="&#x2219;" horiz-adv-x="237" 
d="M64 309v110h111v-110h-111z" />
    <glyph glyph-name="quotesinglbase" unicode="&#x201a;" horiz-adv-x="284" 
d="M92 -102l-35 21l50 219h118z" />
    <glyph glyph-name="quotedblbase" unicode="&#x201e;" horiz-adv-x="466" 
d="M274 -102l-35 21l50 219h118zM92 -102l-35 21l50 219h118z" />
    <glyph glyph-name="perthousand" unicode="&#x2030;" horiz-adv-x="1220" 
d="M183 285c-101 0 -164 46 -164 226s65 228 166 228c102 0 165 -46 165 -226s-65 -228 -167 -228zM262 0l252 726h64l-252 -726h-64zM1036 -11c-101 0 -164 46 -164 226s65 228 166 228c102 0 165 -46 165 -226s-65 -228 -167 -228zM656 -11c-101 0 -164 46 -164 226
s65 228 166 228c102 0 165 -46 165 -226s-65 -228 -167 -228zM185 347c62 0 94 33 94 138v52c0 105 -34 140 -96 140c-61 0 -94 -33 -94 -138v-52c0 -105 34 -140 96 -140zM1038 51c62 0 94 33 94 138v52c0 105 -34 140 -96 140c-61 0 -94 -33 -94 -138v-52
c0 -105 35 -140 96 -140zM658 51c62 0 94 33 94 138v52c0 105 -34 140 -96 140c-61 0 -94 -33 -94 -138v-52c0 -105 35 -140 96 -140z" />
    <glyph glyph-name="Acircumflex" unicode="&#xc2;" horiz-adv-x="661" 
d="M158 176l-67 -176h-72l279 731h65l279 -731h-75l-67 176h-342zM474 243l-145 381l-145 -381h290zM173 756l123 156h69l123 -156h-53l-105 85l-104 -85h-53z" />
    <glyph glyph-name="Ecircumflex" unicode="&#xca;" horiz-adv-x="544" 
d="M76 0v726h426v-68h-353v-240h270v-68h-270v-282h353v-68h-426zM115 776l123 156h69l123 -156h-53l-105 85l-104 -85h-53z" />
    <glyph glyph-name="Aacute" unicode="&#xc1;" horiz-adv-x="661" 
d="M158 176l-67 -176h-72l279 731h65l279 -731h-75l-67 176h-342zM474 243l-145 381l-145 -381h290zM275 776l86 170h126l-166 -170h-46z" />
    <glyph glyph-name="Edieresis" unicode="&#xcb;" horiz-adv-x="544" 
d="M76 0v726h426v-68h-353v-240h270v-68h-270v-282h353v-68h-426zM315 786v106h105v-106h-105zM124 786v106h104v-106h-104z" />
    <glyph glyph-name="Egrave" unicode="&#xc8;" horiz-adv-x="544" 
d="M76 0v726h426v-68h-353v-240h270v-68h-270v-282h353v-68h-426zM282 776l-166 170h126l86 -170h-46z" />
    <glyph glyph-name="Iacute" unicode="&#xcd;" horiz-adv-x="242" 
d="M85 0v726h74v-726h-74zM96 776l86 170h126l-166 -170h-46z" />
    <glyph glyph-name="Icircumflex" unicode="&#xce;" horiz-adv-x="242" 
d="M85 0v726h74v-726h-74zM-36 776l123 156h69l123 -156h-53l-105 85l-104 -85h-53z" />
    <glyph glyph-name="Idieresis" unicode="&#xcf;" horiz-adv-x="242" 
d="M85 0v726h74v-726h-74zM164 786v106h105v-106h-105zM-27 786v106h104v-106h-104z" />
    <glyph glyph-name="Igrave" unicode="&#xcc;" horiz-adv-x="242" 
d="M85 0v726h74v-726h-74zM101 776l-166 170h126l86 -170h-46z" />
    <glyph glyph-name="Oacute" unicode="&#xd3;" horiz-adv-x="694" 
d="M346 -11c-169 0 -304 66 -304 374s137 376 306 376s304 -66 304 -374s-137 -376 -306 -376zM348 58c132 0 226 49 226 281v48c0 232 -96 283 -228 283s-226 -49 -226 -281v-48c0 -232 96 -283 228 -283zM292 776l86 170h126l-166 -170h-46z" />
    <glyph glyph-name="Ocircumflex" unicode="&#xd4;" horiz-adv-x="694" 
d="M346 -11c-169 0 -304 66 -304 374s137 376 306 376s304 -66 304 -374s-137 -376 -306 -376zM348 58c132 0 226 49 226 281v48c0 232 -96 283 -228 283s-226 -49 -226 -281v-48c0 -232 96 -283 228 -283zM190 776l123 156h69l123 -156h-53l-105 85l-104 -85h-53z" />
    <glyph glyph-name="apple" unicode="&#xf8ff;" horiz-adv-x="709" 
d="M85 0v76c0 178 104 229 238 229v95h-238v194h71v-128h167v67h-53v192h176v-192h-53v-67h162v128h70v-194h-232v-95c134 0 238 -51 238 -229v-76h-73v72c0 131 -50 162 -165 162v-100h-70v100c-115 0 -165 -31 -165 -162v-72h-73z" />
    <glyph glyph-name="Ograve" unicode="&#xd2;" horiz-adv-x="694" 
d="M346 -11c-169 0 -304 66 -304 374s137 376 306 376s304 -66 304 -374s-137 -376 -306 -376zM348 58c132 0 226 49 226 281v48c0 232 -96 283 -228 283s-226 -49 -226 -281v-48c0 -232 96 -283 228 -283zM357 776l-166 170h126l86 -170h-46z" />
    <glyph glyph-name="Uacute" unicode="&#xda;" horiz-adv-x="687" 
d="M344 -10c-180 0 -278 49 -278 268v468h74v-460c0 -157 51 -205 206 -205s205 41 205 203v462h71v-466c0 -216 -97 -270 -278 -270zM288 776l86 170h126l-166 -170h-46z" />
    <glyph glyph-name="Ucircumflex" unicode="&#xdb;" horiz-adv-x="687" 
d="M344 -10c-180 0 -278 49 -278 268v468h74v-460c0 -157 51 -205 206 -205s205 41 205 203v462h71v-466c0 -216 -97 -270 -278 -270zM186 776l123 156h69l123 -156h-53l-105 85l-104 -85h-53z" />
    <glyph glyph-name="Ugrave" unicode="&#xd9;" horiz-adv-x="687" 
d="M344 -10c-180 0 -278 49 -278 268v468h74v-460c0 -157 51 -205 206 -205s205 41 205 203v462h71v-466c0 -216 -97 -270 -278 -270zM353 776l-166 170h126l86 -170h-46z" />
    <glyph glyph-name="dotlessi" unicode="&#x131;" horiz-adv-x="215" 
d="M71 0v465h73v-465h-73z" />
    <glyph glyph-name="circumflex" unicode="&#x2c6;" horiz-adv-x="455" 
d="M70 536l123 156h69l123 -156h-53l-105 85l-104 -85h-53z" />
    <glyph glyph-name="tilde" unicode="&#x2dc;" horiz-adv-x="450" 
d="M101 532l-43 50c62 51 82 67 117 67c36 0 83 -46 100 -46c15 0 32 17 74 51l43 -50c-63 -52 -78 -68 -118 -68c-36 0 -82 46 -100 46c-14 0 -31 -16 -73 -50z" />
    <glyph glyph-name="macron" unicode="&#xaf;" horiz-adv-x="456" 
d="M100 536v77h258v-77h-258z" />
    <glyph glyph-name="macron" unicode="&#x2c9;" horiz-adv-x="456" 
d="M100 536v77h258v-77h-258z" />
    <glyph glyph-name="breve" unicode="&#x2d8;" horiz-adv-x="456" 
d="M230 527c-51 0 -118 12 -148 37v101h77v-61c14 -7 44 -10 71 -10c26 0 62 3 76 10v61h77v-102c-31 -23 -101 -36 -153 -36z" />
    <glyph glyph-name="dotaccent" unicode="&#x2d9;" horiz-adv-x="456" 
d="M169 536v120h121v-120h-121z" />
    <glyph glyph-name="ring" unicode="&#x2da;" horiz-adv-x="456" 
d="M229 528c-73 0 -96 35 -96 100s23 101 96 101s96 -36 96 -101s-24 -100 -96 -100zM229 577c42 0 47 17 47 51s-5 53 -47 53s-47 -19 -47 -53s5 -51 47 -51z" />
    <glyph glyph-name="cedilla" unicode="&#xb8;" horiz-adv-x="500" 
d="M181 -194l-13 71c41 7 68 17 82 25l-18 100l69 13l29 -147c-25 -25 -74 -51 -149 -62z" />
    <glyph glyph-name="hungarumlaut" unicode="&#x2dd;" horiz-adv-x="448" 
d="M208 536l86 170h116l-156 -170h-46zM38 536l86 170h116l-156 -170h-46z" />
    <glyph glyph-name="ogonek" unicode="&#x2db;" horiz-adv-x="500" 
d="M318 -194c-75 11 -124 37 -149 62l29 147l69 -13l-18 -100c14 -8 41 -18 82 -25z" />
    <glyph glyph-name="caron" unicode="&#x2c7;" horiz-adv-x="455" 
d="M193 536l-123 156h53l105 -85l104 85h53l-123 -156h-69z" />
    <glyph glyph-name="period.lftab" horiz-adv-x="350" 
d="M117 0v116h117v-116h-117z" />
    <glyph glyph-name="minus.lftab" 
d="M136 300v65h427v-65h-427z" />
    <glyph glyph-name="multiply.lftab" 
d="M203 139l-46 46l147 147l-147 147l46 46l147 -147l146 147l46 -46l-146 -147l146 -147l-46 -46l-146 147z" />
    <glyph glyph-name="numbersign.lftab" 
d="M151 -20l42 249h-90v65h100l24 138h-124v65h134l42 249h65l-42 -249h139l41 249h65l-42 -249h91v-65h-102l-23 -138h125v-65h-136l-42 -249h-63l41 249h-139l-41 -249h-65zM265 291h144l24 144h-144z" />
    <glyph glyph-name="dollar.lftab" 
d="M317 -5c-112 2 -179 16 -203 22l13 67c25 -5 109 -18 192 -21v280c-161 42 -206 75 -206 204c0 104 40 179 204 186v107h65v-107c82 -2 143 -13 178 -22l-14 -64c-22 4 -93 15 -166 18v-263c136 -32 214 -71 214 -204c0 -127 -53 -193 -212 -202v-123h-65v122zM319 665
c-100 -4 -129 -34 -129 -116c0 -77 17 -102 129 -132v248zM380 64c104 5 136 36 136 132c0 79 -26 103 -136 131v-263z" />
    <glyph glyph-name="plus.lftab" 
d="M315 118v182h-179v65h179v182h70v-182h178v-65h-178v-182h-70z" />
    <glyph glyph-name="zero.lftab" 
d="M349 -11c-182 0 -266 81 -266 374s86 376 268 376c181 0 266 -81 266 -374s-87 -376 -268 -376zM351 58c131 0 189 64 189 265v80c0 201 -60 267 -191 267s-189 -64 -189 -265v-80c0 -201 60 -267 191 -267z" />
    <glyph glyph-name="one.lftab" 
d="M149 0v68h199v590h-199v68h272v-658h196v-68h-468z" />
    <glyph glyph-name="two.lftab" 
d="M112 0v61l190 195c171 176 181 174 181 295c0 86 -35 119 -164 119c-69 0 -146 -12 -190 -23l-12 64c46 13 132 28 204 28c173 0 238 -57 238 -186c0 -150 -38 -170 -197 -333l-149 -152h372v-68h-473z" />
    <glyph glyph-name="three.lftab" 
d="M137 -11l-5 66c180 9 284 26 332 56c34 21 43 72 43 125s-10 100 -43 121c-48 30 -129 39 -186 42v61l182 198h-350v68h436v-68l-186 -201c36 -4 100 -17 140 -40c60 -34 83 -91 83 -179s-20 -151 -80 -185c-64 -36 -188 -60 -366 -64z" />
    <glyph glyph-name="four.lftab" 
d="M450 0v178h-369v78l284 475h78l-290 -485h297v220h74v-220h89v-68h-89v-178h-74z" />
    <glyph glyph-name="five.lftab" 
d="M137 -11l-5 66c180 9 286 22 333 52c34 21 43 76 43 129s-9 105 -43 126c-47 30 -132 49 -340 56l10 308h410v-68h-341l-6 -178c166 -6 255 -30 306 -59c60 -34 80 -95 80 -183s-21 -155 -80 -189c-63 -36 -189 -56 -367 -60z" />
    <glyph glyph-name="six.lftab" 
d="M354 -11c-215 0 -253 96 -253 260v159c0 113 11 178 55 224c55 58 169 88 368 107l8 -65c-191 -21 -278 -44 -320 -85c-39 -38 -35 -111 -35 -168c54 14 139 32 211 32c154 0 222 -58 222 -209c0 -155 -30 -255 -256 -255zM356 58c146 0 178 34 178 186
c0 102 -39 139 -149 139c-80 0 -160 -19 -208 -31v-108c0 -150 48 -186 179 -186z" />
    <glyph glyph-name="seven.lftab" 
d="M234 0l283 658h-412v68h490v-65l-279 -661h-82z" />
    <glyph glyph-name="eight.lftab" 
d="M347 -10c-169 0 -265 37 -265 180c0 144 23 162 163 220c-108 46 -132 84 -132 183c0 129 103 166 235 166c136 0 240 -37 240 -166c0 -116 -21 -140 -136 -187c132 -50 167 -80 167 -216c0 -143 -105 -180 -272 -180zM376 414c136 55 136 62 136 159
c0 76 -61 97 -165 97c-101 0 -158 -21 -158 -97c0 -97 35 -108 172 -154zM347 59c120 0 196 22 196 111c0 119 -32 134 -215 189l-10 3c-151 -60 -160 -68 -160 -192c0 -89 69 -111 189 -111z" />
    <glyph glyph-name="nine.lftab" 
d="M175 -11l-8 65c191 21 278 44 320 85c39 38 35 111 35 168c-54 -14 -139 -32 -211 -32c-154 0 -222 58 -222 209c0 155 30 255 256 255c215 0 253 -96 253 -260v-159c0 -113 -11 -178 -55 -224c-55 -58 -169 -88 -368 -107zM314 345c80 0 160 19 208 31v108
c0 150 -48 186 -179 186c-146 0 -178 -34 -178 -186c0 -102 39 -139 149 -139z" />
    <glyph glyph-name="less.lftab" 
d="M390 121l-192 203l192 203h87l-193 -203l193 -203h-87z" />
    <glyph glyph-name="equal.lftab" 
d="M160 388v64h380v-64h-380zM160 212v64h380v-64h-380z" />
    <glyph glyph-name="greater.lftab" 
d="M223 121l193 203l-193 203h87l192 -203l-192 -203h-87z" />
    <glyph glyph-name="cent.lftab" 
d="M415 116v-116h-66v116c-121 12 -180 84 -180 247c0 162 60 234 180 246v117h66v-116c44 -3 92 -11 117 -18l-14 -64c-25 6 -64 13 -105 16v-362c39 3 81 10 106 17l15 -63c-32 -9 -75 -17 -119 -20zM351 183v360c-67 -7 -107 -43 -107 -178c0 -134 40 -173 107 -182z" />
    <glyph glyph-name="sterling.lftab" 
d="M95 0v68h158c-9 44 -33 160 -53 272h-105v67h95c-11 63 -17 117 -17 145c0 119 56 187 211 187c68 0 149 -13 199 -27l-16 -65c-51 13 -113 23 -183 23c-108 0 -137 -40 -137 -117c0 -34 6 -87 15 -146h205v-67h-194c19 -107 43 -216 54 -272h271v-68h-503z" />
    <glyph glyph-name="yen.lftab" 
d="M475 437h149v-65h-190l-48 -77v-40h238v-65h-238v-190h-73v190h-238v65h238v40l-48 77h-190v65h149l-181 289h83l228 -367l228 367h75z" />
    <glyph glyph-name="florin.lftab" 
d="M188 -120l82 479h-81v66h91l23 133c19 108 33 131 189 167l14 -65c-119 -28 -121 -38 -134 -116l-20 -119h109v-66h-119l-81 -479h-73z" />
    <glyph glyph-name="divide.lftab" 
d="M297 440v104h105v-104h-105zM136 300v65h427v-65h-427zM297 120v105h105v-105h-105z" />
    <glyph glyph-name="comma.lftab" horiz-adv-x="350" 
d="M108 -154l-39 24l59 246h127z" />
    <glyph glyph-name="endash.lftab" 
d="M133 232v72h434v-72h-434z" />
    <glyph glyph-name="colon.lftab" horiz-adv-x="350" 
d="M117 350v115h117v-115h-117zM117 0v116h117v-116h-117z" />
    <glyph glyph-name="semicolon.lftab" horiz-adv-x="350" 
d="M117 350v115h117v-115h-117zM108 -154l-39 24l59 246h127z" />
    <glyph glyph-name="hyphen.lftab" 
d="M174 252v72h352v-72h-352z" />
    <glyph glyph-name="perthousand.lftab" horiz-adv-x="1050" 
d="M137 360c-84 0 -137 38 -137 187s55 189 139 189s138 -38 138 -187s-55 -189 -140 -189zM192 0l252 726h64l-252 -726h-64zM911 -10c-84 0 -137 38 -137 187s55 189 139 189s138 -38 138 -187s-55 -189 -140 -189zM560 -10c-84 0 -137 38 -137 187s55 189 139 189
s138 -38 138 -187s-55 -189 -140 -189zM139 416c49 0 75 26 75 110v42c0 84 -27 112 -77 112c-49 0 -75 -26 -75 -110v-42c0 -84 28 -112 77 -112zM913 46c49 0 75 26 75 110v42c0 84 -27 112 -77 112c-49 0 -75 -26 -75 -110v-42c0 -84 28 -112 77 -112zM562 46
c49 0 75 26 75 110v42c0 84 -27 112 -77 112c-49 0 -75 -26 -75 -110v-42c0 -84 28 -112 77 -112z" />
    <glyph glyph-name="brokenbar.lftab" 
d="M320 364v426h59v-426h-59zM320 -200v426h59v-426h-59z" />
    <glyph glyph-name="percent.lftab" 
d="M137 360c-84 0 -137 38 -137 187s55 189 139 189s138 -38 138 -187s-55 -189 -140 -189zM192 0l252 726h64l-252 -726h-64zM560 -10c-84 0 -137 38 -137 187s55 189 139 189s138 -38 138 -187s-55 -189 -140 -189zM139 416c49 0 75 26 75 110v42c0 84 -27 112 -77 112
c-49 0 -75 -26 -75 -110v-42c0 -84 28 -112 77 -112zM562 46c49 0 75 26 75 110v42c0 84 -27 112 -77 112c-49 0 -75 -26 -75 -110v-42c0 -84 28 -112 77 -112z" />
    <glyph glyph-name="slash.lftab" 
d="M192 0l250 726h66l-251 -726h-65z" />
    <glyph glyph-name="G.alt" horiz-adv-x="626" 
d="M336 -11c-158 0 -294 38 -294 374s137 376 305 376c95 0 176 -16 205 -26l-16 -65c-31 7 -113 22 -191 22c-153 0 -225 -52 -225 -281v-48c0 -224 76 -283 218 -283c85 0 128 10 157 17v215h-146v68h218v-336c-35 -11 -123 -33 -231 -33z" />
    <glyph glyph-name="NUL" horiz-adv-x="0" 
 />
    <glyph glyph-name="currency" unicode="&#xa4;" horiz-adv-x="608" 
d="M370 -11c-121 0 -217 49 -243 248h-107v66h100c0 36 -2 77 0 115h-100v66h106c26 204 125 255 246 255c91 0 165 -17 194 -28l-15 -63c-44 11 -99 22 -181 22c-96 0 -154 -50 -169 -186h233v-66h-238v-115h238v-66h-231c17 -127 72 -179 169 -179c102 0 158 16 179 22
l15 -63c-20 -7 -91 -28 -196 -28z" />
    <glyph glyph-name="g.alt" horiz-adv-x="510" 
d="M51 -204l-3 70c323 4 362 16 362 80c0 66 -16 77 -305 86l21 135c-75 17 -98 59 -98 153c0 134 57 162 203 162c69 0 121 -5 150 -12l34 63l58 -35l-42 -73c5 -15 15 -62 15 -104c0 -125 -48 -163 -211 -163c-17 0 -30 0 -45 1l-10 -63c250 -9 305 -27 305 -148
c0 -129 -97 -149 -434 -152zM236 223c115 0 135 9 135 97c0 31 -4 63 -11 86c-30 7 -77 11 -134 11c-101 0 -124 -17 -124 -97s19 -97 134 -97z" />
    <glyph glyph-name="a.alt" horiz-adv-x="521" 
d="M198 -8c-68 0 -153 13 -153 241s89 243 158 243c74 0 157 -35 184 -53l21 42h47v-465h-53l-15 60c-28 -25 -113 -68 -189 -68zM221 59c56 0 130 37 162 63v237c-24 18 -105 50 -161 50c-72 0 -102 -29 -102 -174s29 -176 101 -176z" />
    <glyph glyph-name="Euro.lftab" 
d="M427 -11c-121 0 -217 49 -243 248h-107v66h100c0 36 -2 77 0 115h-100v66h106c26 204 125 255 246 255c91 0 165 -17 194 -28l-15 -63c-44 11 -99 22 -181 22c-96 0 -154 -50 -169 -186h233v-66h-238v-115h238v-66h-231c17 -127 72 -179 169 -179c102 0 158 16 179 22
l15 -63c-20 -7 -91 -28 -196 -28z" />
    </font>
</defs>
</svg>
