<?xml version="1.0" standalone="no"?>
<!DOCTYPE svg PUBLIC "-//W3C//DTD SVG 1.1//EN" "http://www.w3.org/Graphics/SVG/1.1/DTD/svg11.dtd" >
<svg xmlns="http://www.w3.org/2000/svg" xmlns:xlink="http://www.w3.org/1999/xlink" version="1.1">
<metadata>
Created by FontForge 20170910 at Wed Oct 24 12:55:01 2007
 By Jimmy Wärting
Copyright (c) The Font Bureau, Inc., 2003. All rights reserved.
</metadata>
<defs>
<font id="Stainless-Bold" horiz-adv-x="700" >
  <font-face 
    font-family="Stainless Bold"
    font-weight="700"
    font-stretch="normal"
    units-per-em="1000"
    panose-1="2 0 5 3 4 0 0 2 0 4"
    ascent="795"
    descent="-205"
    x-height="477"
    cap-height="732"
    bbox="-85 -211 1518 979"
    underline-thickness="20"
    underline-position="-133"
    stemh="116"
    stemv="141"
    unicode-range="U+0020-FB02"
  />
<missing-glyph horiz-adv-x="500" 
 />
    <glyph glyph-name="fi" unicode="fi" horiz-adv-x="637" 
d="M105 0v362h-74v115h74v78c0 119 53 154 324 202l22 -117c-193 -39 -205 -53 -205 -104v-59h325v-477h-142v363h-183v-363h-141z" />
    <glyph glyph-name="fl" unicode="fl" horiz-adv-x="636" 
d="M429 0v752h141v-752h-141zM105 0v362h-74v115h74v73c0 121 21 169 197 203l35 -127c-85 -20 -91 -33 -91 -90v-59h92v-115h-92v-362h-141z" />
    <glyph glyph-name="f_f" unicode="ff" horiz-adv-x="708" 
d="M105 0v362h-74v115h74v52c0 118 15 165 229 198l25 -128c-108 -20 -113 -34 -113 -92v-30h185v79c0 117 15 165 229 197l25 -127c-108 -20 -113 -34 -113 -93v-56h109v-115h-109v-362h-141v362h-185v-362h-141z" />
    <glyph glyph-name="f_f_i" unicode="ffi" horiz-adv-x="963" 
d="M105 0v362h-74v115h74v52c0 118 15 165 229 198l25 -128c-108 -20 -113 -34 -113 -92v-30h185v78c0 119 53 154 324 202l22 -117c-193 -39 -205 -53 -205 -104v-59h325v-477h-141v363h-184v-363h-141v363h-185v-363h-141z" />
    <glyph glyph-name="f_f_l" unicode="ffl" horiz-adv-x="963" 
d="M756 0v752h140v-752h-140zM105 0v362h-74v115h74v52c0 118 15 165 229 198l25 -128c-108 -20 -113 -34 -113 -92v-30h185v73c0 121 21 169 197 203l35 -127c-84 -20 -91 -33 -91 -90v-59h92v-115h-92v-362h-141v362h-185v-362h-141z" />
    <glyph glyph-name="f_j" unicode="fj" horiz-adv-x="637" 
d="M338 -198l-21 123c107 20 113 40 113 99v339h-184v-363h-141v362h-74v115h74v78c0 119 53 154 324 202l22 -117c-193 -39 -205 -53 -205 -104v-59h325v-482c0 -116 -26 -172 -233 -193z" />
    <glyph glyph-name="f_t" unicode="ft" horiz-adv-x="733" 
d="M566 -5c-99 0 -135 40 -135 147v220h-185v-362h-141v362h-74v115h74v79c0 117 15 165 229 197l25 -127c-108 -20 -113 -34 -113 -93v-56h185v152l141 20v-172h115v-115h-115v-187c0 -55 13 -68 46 -68c15 0 39 1 72 5l7 -108c-35 -5 -90 -9 -131 -9z" />
    <glyph glyph-name=".notdef" horiz-adv-x="500" 
 />
    <glyph glyph-name="Eth" unicode="&#xd0;" horiz-adv-x="747" 
d="M106 322h-73v101h73v309h277c215 0 328 -51 328 -366s-113 -366 -328 -366c-164 0 -277 -1 -277 -1v323zM253 423h116v-101h-116v-212h129c128 0 175 64 175 232v48c0 169 -47 229 -175 229h-129v-196z" />
    <glyph glyph-name="eth" unicode="&#xf0;" horiz-adv-x="592" 
d="M390 536c1 0 -111 0 -111 0v109h78c-9 25 -18 50 -29 77l136 30c5 -10 22 -50 39 -107h98v-109h-70c12 -62 22 -133 22 -205c0 -265 -44 -342 -260 -342c-153 0 -255 30 -255 258s84 241 170 241c51 0 143 -21 199 -48c-3 32 -9 63 -17 96zM297 98c106 0 115 51 115 178
v54c-38 19 -96 34 -145 34c-62 0 -87 -15 -87 -119c0 -123 31 -147 117 -147z" />
    <glyph glyph-name="Lslash" unicode="&#x141;" horiz-adv-x="614" 
d="M102 282l-69 -25v102l69 25v348h148v-295l119 43v-102l-119 -43v-216h345v-119h-493v282z" />
    <glyph glyph-name="lslash" unicode="&#x142;" horiz-adv-x="362" 
d="M111 290l-84 -33v102l84 33v360h140v-305l84 33v-102l-84 -33v-345h-140v290z" />
    <glyph glyph-name="Scaron" unicode="&#x160;" horiz-adv-x="625" 
d="M297 -8c-111 0 -221 19 -255 29l23 123c30 -7 163 -27 233 -27c104 0 136 14 136 90c0 68 -21 75 -141 99c-200 40 -249 71 -249 230c0 153 98 205 265 205c89 0 212 -15 244 -25l-23 -124c-46 7 -138 21 -222 21c-85 0 -115 -19 -115 -79c0 -69 23 -77 138 -100
c192 -38 254 -62 254 -228c0 -164 -92 -214 -288 -214zM254 780l-131 181h97l95 -79l95 79h94l-131 -181h-119z" />
    <glyph glyph-name="scaron" unicode="&#x161;" horiz-adv-x="492" 
d="M232 -8c-73 0 -160 13 -192 22l14 95c30 -7 118 -20 181 -20c73 0 90 9 90 49c0 32 -13 38 -101 51c-151 21 -184 45 -184 157c0 114 72 148 204 148c78 0 160 -9 196 -18l-17 -97c-43 7 -133 15 -181 15c-53 0 -70 -9 -70 -43c0 -38 18 -39 112 -51
c145 -16 176 -45 176 -150c0 -132 -78 -158 -228 -158zM188 540l-131 181h97l95 -79l95 79h94l-131 -181h-119z" />
    <glyph glyph-name="Yacute" unicode="&#xdd;" horiz-adv-x="728" 
d="M291 0v261l-277 471h160l194 -327l194 327h152l-276 -468v-264h-147zM278 780l98 199h186l-184 -199h-100z" />
    <glyph glyph-name="yacute" unicode="&#xfd;" horiz-adv-x="544" 
d="M203 10c0 1 -192 467 -192 467h148s122 -303 122 -304l120 304h132l-274 -677h-141zM190 540l98 199h186l-184 -199h-100z" />
    <glyph glyph-name="Thorn" unicode="&#xde;" horiz-adv-x="657" 
d="M65 0v732h147v-118h177c149 0 242 -33 242 -236s-95 -238 -244 -238h-175v-140h-147zM212 258h177c54 0 95 19 95 118s-43 118 -97 118h-175v-236z" />
    <glyph glyph-name="thorn" unicode="&#xfe;" horiz-adv-x="588" 
d="M61 -200v952h141v-320c29 15 112 56 195 56c96 0 153 -47 153 -247s-62 -249 -158 -249c-81 0 -162 29 -190 41v-233h-141zM334 108c50 0 73 22 73 131c0 111 -21 128 -73 128c-55 0 -101 -16 -132 -27v-212c25 -7 75 -20 132 -20z" />
    <glyph glyph-name="Zcaron" unicode="&#x17d;" horiz-adv-x="639" 
d="M33 0v121l388 482h-379v129h558v-127l-384 -479h391v-126h-574zM261 780l-131 181h97l95 -79l95 79h94l-131 -181h-119z" />
    <glyph glyph-name="zcaron" unicode="&#x17e;" horiz-adv-x="503" 
d="M31 0v100l257 263h-246v114h424v-100l-253 -264h267v-113h-449zM193 540l-131 181h97l95 -79l95 79h94l-131 -181h-119z" />
    <glyph glyph-name="onehalf" unicode="&#xbd;" horiz-adv-x="995" 
d="M135 262v365h-69v105h189v-470h-120zM228 0l279 732h126l-279 -732h-126zM574 0v90l133 114c76 69 84 72 84 121c0 34 -14 45 -65 45c-49 0 -99 -8 -131 -15l-17 104c39 11 102 19 150 19c141 0 181 -37 181 -146c0 -84 -22 -105 -121 -190l-41 -39h175v-103h-348z" />
    <glyph glyph-name="onequarter" unicode="&#xbc;" horiz-adv-x="941" 
d="M135 262v365h-69v105h189v-470h-120zM228 0l279 732h126l-279 -732h-126zM727 0v86h-224v101l176 285h125l-177 -288h100v100h114v-100h50v-98h-50v-86h-114z" />
    <glyph glyph-name="onesuperior" unicode="&#xb9;" horiz-adv-x="357" 
d="M135 262v365h-69v105h189v-470h-120z" />
    <glyph glyph-name="threequarters" unicode="&#xbe;" horiz-adv-x="1027" 
d="M68 254l-8 105c135 4 195 10 217 27c11 8 12 26 12 42c0 15 -2 32 -11 39c-21 14 -60 17 -112 22v71l88 68h-200v104h322v-98l-91 -78c38 -8 62 -17 77 -31c29 -22 39 -56 39 -102c0 -45 -7 -79 -33 -103c-34 -40 -113 -61 -300 -66zM314 0l279 732h126l-279 -732h-126z
M814 0v86h-225v101l176 285h125l-177 -288h101v100h113v-100h50v-98h-50v-86h-113z" />
    <glyph glyph-name="threesuperior" unicode="&#xb3;" horiz-adv-x="466" 
d="M68 254l-8 105c135 4 195 10 217 27c11 8 12 26 12 42c0 15 -2 32 -11 39c-21 14 -60 17 -112 22v71l88 68h-200v104h322v-98l-91 -78c38 -8 62 -17 77 -31c29 -22 39 -56 39 -102c0 -45 -7 -79 -33 -103c-34 -40 -113 -61 -300 -66z" />
    <glyph glyph-name="twosuperior" unicode="&#xb2;" horiz-adv-x="452" 
d="M49 261v89l134 115c76 68 84 72 84 120c0 35 -15 45 -65 45c-49 0 -100 -7 -132 -14l-17 104c39 11 103 19 150 19c141 0 181 -38 181 -146c0 -85 -22 -105 -120 -190l-41 -39h174v-103h-348z" />
    <glyph glyph-name="brokenbar" unicode="&#xa6;" horiz-adv-x="377" 
d="M130 366v424h116v-424h-116zM130 -200v424h116v-424h-116z" />
    <glyph glyph-name="minus" unicode="&#x2212;" horiz-adv-x="529" 
d="M49 286v107h431v-107h-431z" />
    <glyph glyph-name="multiply" unicode="&#xd7;" horiz-adv-x="527" 
d="M133 137l-71 71l130 131l-130 130l71 71l131 -130l130 130l71 -71l-130 -130l130 -131l-71 -71l-130 130z" />
    <glyph glyph-name="space" unicode=" " horiz-adv-x="269" 
 />
    <glyph glyph-name="space" unicode="&#xa0;" horiz-adv-x="269" 
 />
    <glyph glyph-name="exclam" unicode="!" horiz-adv-x="347" 
d="M116 219l-34 513h184l-34 -513h-116zM87 0v152h172v-152h-172z" />
    <glyph glyph-name="quotedbl" unicode="&#x22;" horiz-adv-x="488" 
d="M298 467l-29 265h173l-29 -265h-115zM75 467l-28 265h173l-30 -265h-115z" />
    <glyph glyph-name="numbersign" unicode="#" horiz-adv-x="626" 
d="M78 -20l37 222h-81v107h99l19 114h-118v107h136l37 222h111l-37 -222h117l37 222h111l-37 -222h82v-107h-100l-19 -114h119v-107h-137l-38 -222h-110l37 222h-117l-37 -222h-111zM238 303h127l21 126h-127z" />
    <glyph glyph-name="dollar" unicode="$" horiz-adv-x="611" 
d="M368 739c73 -5 144 -15 173 -23l-24 -122c-47 8 -132 20 -219 20c-86 0 -110 -19 -110 -81c0 -61 15 -74 137 -99c191 -37 250 -64 250 -225c0 -135 -52 -201 -207 -214v-110h-118v108c-104 4 -181 18 -206 23l22 124c25 -6 153 -23 230 -23c108 0 131 19 131 91
c0 60 -16 73 -140 99c-199 40 -245 74 -245 232c0 125 62 189 208 200v95h118v-95z" />
    <glyph glyph-name="percent" unicode="%" horiz-adv-x="1084" 
d="M234 262c-134 0 -207 43 -207 240s75 242 209 242c133 0 206 -43 206 -240s-75 -242 -208 -242zM352 0l255 732h126l-255 -732h-126zM849 -12c-134 0 -207 43 -207 240c0 196 75 241 208 241c134 0 207 -43 207 -239c0 -197 -75 -242 -208 -242zM236 360
c60 0 79 24 79 121v42c0 97 -21 121 -81 121s-80 -22 -80 -119v-42c0 -97 22 -123 82 -123zM850 85c60 0 80 24 80 121v43c0 97 -22 121 -81 121c-60 0 -80 -22 -80 -119v-43c0 -97 22 -123 81 -123z" />
    <glyph glyph-name="ampersand" unicode="&#x26;" horiz-adv-x="768" 
d="M571 195l176 -195h-172l-68 76c-47 -72 -87 -86 -172 -86c-188 0 -290 25 -290 233c0 113 46 162 162 189c-46 58 -63 97 -63 148c0 141 65 184 238 184c83 0 163 -13 198 -23l-19 -124c-40 8 -124 20 -189 20c-76 0 -91 -18 -91 -58c0 -44 20 -62 112 -166l95 -106
l73 148h131s-120 -240 -121 -240zM426 166l-153 171c-80 -18 -94 -46 -94 -115c0 -105 48 -114 150 -114c45 0 66 7 97 58z" />
    <glyph glyph-name="quotesingle" unicode="'" horiz-adv-x="266" 
d="M75 467l-28 265h173l-30 -265h-115z" />
    <glyph glyph-name="parenleft" unicode="(" horiz-adv-x="391" 
d="M359 -144c-257 2 -323 57 -323 445s65 449 323 451v-119c-170 0 -196 -28 -196 -332c0 -302 26 -328 196 -328v-117z" />
    <glyph glyph-name="parenright" unicode=")" horiz-adv-x="391" 
d="M32 -144v117c170 0 196 26 196 328c0 304 -26 332 -197 332v119c259 -2 323 -63 323 -451s-64 -443 -322 -445z" />
    <glyph glyph-name="asterisk" unicode="*" horiz-adv-x="508" 
d="M204 267l8 163l-131 -90l-49 90l139 76l-138 74l50 91l130 -90l-9 163h99l-8 -164l131 90l50 -91l-139 -74l139 -74l-50 -90l-130 89l6 -163h-98z" />
    <glyph glyph-name="plus" unicode="+" horiz-adv-x="529" 
d="M209 123v163h-160v107h160v162h111v-162h160v-107h-160v-163h-111z" />
    <glyph glyph-name="comma" unicode="," horiz-adv-x="319" 
d="M116 -143l-73 39l43 264h187z" />
    <glyph glyph-name="hyphen" unicode="-" horiz-adv-x="379" 
d="M48 226v114h283v-114h-283z" />
    <glyph glyph-name="hyphen" unicode="&#xad;" horiz-adv-x="379" 
d="M48 226v114h283v-114h-283z" />
    <glyph glyph-name="period" unicode="." horiz-adv-x="319" 
d="M68 0v160h182v-160h-182z" />
    <glyph glyph-name="slash" unicode="/" horiz-adv-x="377" 
d="M-2 0l255 732h126l-255 -732h-126z" />
    <glyph glyph-name="zero" unicode="0" horiz-adv-x="678" 
d="M338 -12c-215 0 -302 85 -302 378s89 378 304 378s302 -83 302 -376s-89 -380 -304 -380zM340 113c114 0 153 48 153 213v80c0 165 -41 211 -155 211s-153 -44 -153 -209v-80c0 -165 41 -215 155 -215z" />
    <glyph glyph-name="one" unicode="1" horiz-adv-x="352" 
d="M137 0v609h-117v123h263v-732h-146z" />
    <glyph glyph-name="two" unicode="2" horiz-adv-x="601" 
d="M34 0v111l214 184c136 123 149 131 149 225c0 70 -26 95 -135 95c-85 0 -172 -13 -198 -20l-20 125c48 13 143 24 220 24c213 0 275 -52 275 -216c0 -133 -30 -164 -185 -298l-124 -110h332v-120h-528z" />
    <glyph glyph-name="three" unicode="3" horiz-adv-x="596" 
d="M51 -12l-9 122c209 7 305 21 345 51c23 18 29 50 29 86c0 35 -7 63 -28 79c-36 27 -101 33 -174 41v92l146 145h-329v128h483v-127l-156 -155c58 -11 110 -29 143 -56c42 -33 56 -82 56 -151c0 -68 -11 -121 -48 -156c-55 -62 -183 -92 -458 -99z" />
    <glyph glyph-name="four" unicode="4" horiz-adv-x="651" 
d="M393 0v143h-369v136l281 455h148l-289 -470h229v208h142v-208h84v-121h-84v-143h-142z" />
    <glyph glyph-name="five" unicode="5" horiz-adv-x="612" 
d="M69 -12l-9 122c208 7 305 19 345 50c23 17 29 51 29 87c0 35 -7 65 -28 81c-35 27 -141 51 -353 56l10 348h469v-129h-345l-4 -110c189 -12 285 -42 334 -83c47 -39 58 -94 58 -167c0 -68 -11 -122 -48 -157c-55 -63 -184 -91 -458 -98z" />
    <glyph glyph-name="six" unicode="6" horiz-adv-x="643" 
d="M324 -11c-254 0 -287 90 -287 331v66c0 132 14 205 74 256c58 51 198 84 414 103l15 -121c-217 -26 -300 -44 -336 -77c-29 -26 -26 -74 -26 -121c33 9 131 24 195 24c198 0 241 -35 241 -220c0 -154 -46 -241 -290 -241zM326 102c113 0 147 25 147 125
c0 85 -18 112 -112 112c-73 0 -141 -11 -183 -20v-63c0 -120 32 -154 148 -154z" />
    <glyph glyph-name="seven" unicode="7" horiz-adv-x="604" 
d="M138 0l292 603h-403v129h553v-130l-280 -602h-162z" />
    <glyph glyph-name="eight" unicode="8" horiz-adv-x="678" 
d="M336 -11c-224 0 -302 52 -302 201c0 114 20 143 147 196c-98 46 -116 86 -116 171c0 145 82 187 272 187c192 0 283 -42 283 -187c0 -87 -9 -117 -117 -167c119 -50 142 -86 142 -200c0 -149 -85 -201 -309 -201zM392 432c89 39 90 50 90 122c0 58 -53 69 -146 69
c-90 0 -127 -11 -127 -69c0 -66 27 -68 143 -108zM336 108c113 0 163 18 163 85c0 85 -27 91 -184 142l-29 10c-107 -47 -111 -56 -111 -152c0 -67 51 -85 161 -85z" />
    <glyph glyph-name="nine" unicode="9" horiz-adv-x="643" 
d="M118 -13l-15 119c218 21 300 46 336 79c29 27 26 76 26 122c-33 -9 -131 -24 -194 -24c-199 0 -242 36 -242 220c0 154 46 241 291 241c254 0 287 -90 287 -331v-66c0 -132 -14 -203 -74 -254c-57 -49 -199 -87 -415 -106zM283 395c72 0 140 10 182 19v63
c0 120 -31 152 -147 152c-114 0 -148 -23 -148 -123c0 -85 19 -111 113 -111z" />
    <glyph glyph-name="colon" unicode=":" horiz-adv-x="316" 
d="M68 318v160h179v-160h-179zM68 0v160h179v-160h-179z" />
    <glyph glyph-name="semicolon" unicode=";" horiz-adv-x="316" 
d="M68 318v160h179v-160h-179zM113 -143l-70 39l43 264h184z" />
    <glyph glyph-name="less" unicode="&#x3c;" horiz-adv-x="408" 
d="M227 118l-202 216l202 220h134l-202 -220l202 -216h-134z" />
    <glyph glyph-name="equal" unicode="=" horiz-adv-x="498" 
d="M56 382v100h386v-100h-386zM56 194v100h386v-100h-386z" />
    <glyph glyph-name="greater" unicode="&#x3e;" horiz-adv-x="408" 
d="M46 118l202 220l-202 216h135l201 -216l-201 -220h-135z" />
    <glyph glyph-name="question" unicode="?" horiz-adv-x="600" 
d="M200 219v148c205 82 224 97 224 173c0 58 -32 77 -141 77c-80 0 -178 -13 -225 -24l-24 126c46 13 158 27 249 27c225 0 288 -50 288 -194c0 -120 -36 -169 -235 -247v-86h-136zM179 0v152h173v-152h-173z" />
    <glyph glyph-name="at" unicode="@" horiz-adv-x="1005" 
d="M503 -194c-386 0 -462 110 -462 437s77 438 462 438s462 -110 462 -418c0 -200 -48 -271 -397 -271l-13 61c-40 -28 -111 -62 -171 -62c-117 0 -175 47 -134 261c38 198 83 236 175 236c58 0 151 -31 196 -55l25 44h119l-75 -394c159 0 188 44 188 181
c0 273 -66 335 -375 335s-375 -62 -375 -355s66 -355 375 -355h121v-83h-121zM436 105c46 0 102 27 129 49l32 182c-31 17 -91 34 -130 34c-37 0 -54 -12 -75 -120c-24 -122 -14 -145 44 -145z" />
    <glyph glyph-name="A" unicode="A" horiz-adv-x="731" 
d="M210 132l-49 -132h-147l284 737h135l284 -737h-155l-49 132h-303zM469 251l-107 288s-107 -288 -108 -288h215z" />
    <glyph glyph-name="B" unicode="B" horiz-adv-x="681" 
d="M65 0v732h309c160 0 248 -34 248 -188c0 -102 -39 -146 -108 -163c72 -13 127 -62 127 -176c0 -150 -76 -205 -248 -205h-328zM210 428h164c56 0 100 13 100 92c0 80 -45 92 -100 92h-164v-184zM210 118h183c56 0 100 19 100 99s-44 100 -100 100h-183v-199z" />
    <glyph glyph-name="C" unicode="C" horiz-adv-x="614" 
d="M363 -10c-202 0 -326 59 -326 376s128 377 328 377c120 0 175 -15 209 -22l-25 -125c-54 9 -108 18 -186 18c-128 0 -172 -52 -172 -219v-54c0 -163 45 -225 174 -225c96 0 163 17 185 21l24 -123c-39 -11 -94 -24 -211 -24z" />
    <glyph glyph-name="D" unicode="D" horiz-adv-x="706" 
d="M65 0v732h274c217 0 331 -51 331 -366s-114 -366 -331 -366h-274zM212 117h126c128 0 177 57 177 225v48c0 169 -49 222 -177 222h-126v-495z" />
    <glyph glyph-name="E" unicode="E" horiz-adv-x="591" 
d="M65 0v732h487v-129h-340v-163h268v-129h-268v-185h340v-126h-487z" />
    <glyph glyph-name="F" unicode="F" horiz-adv-x="572" 
d="M65 0v732h487v-129h-340v-210h265v-123h-265v-270h-147z" />
    <glyph glyph-name="G" unicode="G" horiz-adv-x="669" 
d="M363 -10c-202 0 -326 59 -326 376s128 377 332 377c120 0 196 -14 229 -23l-22 -127c-55 10 -131 21 -209 21c-132 0 -176 -52 -176 -219v-54c0 -163 40 -229 182 -229c46 0 86 5 108 9v251h137v-352c-35 -10 -130 -30 -255 -30z" />
    <glyph glyph-name="H" unicode="H" horiz-adv-x="752" 
d="M65 0v732h147v-284h327v284h148v-732h-148v313h-327v-313h-147z" />
    <glyph glyph-name="I" unicode="I" horiz-adv-x="291" 
d="M72 0v732h148v-732h-148z" />
    <glyph glyph-name="J" unicode="J" horiz-adv-x="527" 
d="M209 -6c-63 0 -148 9 -189 19l16 125c34 -4 109 -18 173 -18c93 0 114 40 114 152v460h146v-471c0 -213 -76 -267 -260 -267z" />
    <glyph glyph-name="K" unicode="K" horiz-adv-x="707" 
d="M213 436l281 296h164l-278 -294l295 -438h-172l-222 333l-68 -72c0 1 0 -261 0 -261h-148v732h148v-296z" />
    <glyph glyph-name="L" unicode="L" horiz-adv-x="585" 
d="M61 0v732h147v-606h357v-126h-504z" />
    <glyph glyph-name="M" unicode="M" horiz-adv-x="879" 
d="M492 0h-116l-180 482v-482h-131v732h173l201 -534l202 534h173v-732h-142v482z" />
    <glyph glyph-name="N" unicode="N" horiz-adv-x="739" 
d="M65 0v732h146l322 -466v466h141v-732h-126l-342 497v-497h-141z" />
    <glyph glyph-name="O" unicode="O" horiz-adv-x="752" 
d="M375 -12c-200 0 -338 61 -338 378s140 378 340 378s338 -59 338 -376s-140 -380 -340 -380zM377 113c126 0 184 50 184 226v54c0 176 -60 224 -186 224s-184 -46 -184 -222v-54c0 -176 60 -228 186 -228z" />
    <glyph glyph-name="P" unicode="P" horiz-adv-x="667" 
d="M65 0v732h302c181 0 270 -48 270 -253c0 -206 -92 -256 -272 -256h-154v-223h-146zM211 342h156c66 0 123 10 123 135s-59 134 -125 134h-154v-269z" />
    <glyph glyph-name="Q" unicode="Q" horiz-adv-x="752" 
d="M608 54l120 -188h-195l-81 131c-25 -3 -50 -4 -77 -4c-200 0 -338 56 -338 373s140 378 340 378s338 -59 338 -376c0 -166 -40 -261 -107 -314zM377 107c126 0 184 56 184 232v54c0 176 -60 230 -186 230s-184 -52 -184 -228v-54c0 -176 60 -234 186 -234z" />
    <glyph glyph-name="R" unicode="R" horiz-adv-x="698" 
d="M497 265l178 -265h-168l-157 233h-139v-233h-146v732h292c181 0 270 -43 270 -248c0 -143 -45 -198 -130 -219zM211 352h146c79 0 123 18 123 130c0 113 -49 129 -125 129h-144v-259z" />
    <glyph glyph-name="S" unicode="S" horiz-adv-x="625" 
d="M297 -8c-111 0 -221 19 -255 29l23 123c30 -7 163 -27 233 -27c104 0 136 14 136 90c0 68 -21 75 -141 99c-200 40 -249 71 -249 230c0 153 98 205 265 205c89 0 212 -15 244 -25l-23 -124c-46 7 -138 21 -222 21c-85 0 -115 -19 -115 -79c0 -69 23 -77 138 -100
c192 -38 254 -62 254 -228c0 -164 -92 -214 -288 -214z" />
    <glyph glyph-name="T" unicode="T" horiz-adv-x="662" 
d="M258 0v603h-238v129h622v-129h-237v-603h-147z" />
    <glyph glyph-name="U" unicode="U" horiz-adv-x="730" 
d="M367 -10c-208 0 -309 49 -309 268v474h148v-464c0 -119 48 -145 163 -145s162 20 162 143v466h141v-472c0 -216 -97 -270 -305 -270z" />
    <glyph glyph-name="V" unicode="V" horiz-adv-x="731" 
d="M298 -5l-284 737h154l201 -533l200 533h148l-284 -737h-135z" />
    <glyph glyph-name="W" unicode="W" horiz-adv-x="945" 
d="M220 -5l-206 737h151l128 -469l129 457h114l125 -457l132 469h139l-212 -737h-110l-137 504l-140 -504h-113z" />
    <glyph glyph-name="X" unicode="X" horiz-adv-x="753" 
d="M37 0l248 391l-226 341h173l157 -242l151 242h153l-226 -358l248 -374h-173l-180 275l-172 -275h-153z" />
    <glyph glyph-name="Y" unicode="Y" horiz-adv-x="728" 
d="M291 0v261l-277 471h160l194 -327l194 327h152l-276 -468v-264h-147z" />
    <glyph glyph-name="Z" unicode="Z" horiz-adv-x="639" 
d="M33 0v121l388 482h-379v129h558v-127l-384 -479h391v-126h-574z" />
    <glyph glyph-name="bracketleft" unicode="[" horiz-adv-x="348" 
d="M68 -144v896h250v-119h-126v-660h126v-117h-250z" />
    <glyph glyph-name="backslash" unicode="\" horiz-adv-x="377" 
d="M254 0l-256 732h126l255 -732h-125z" />
    <glyph glyph-name="bracketright" unicode="]" horiz-adv-x="348" 
d="M32 -144v117h131v660h-131v119h249v-896h-249z" />
    <glyph glyph-name="asciicircum" unicode="^" horiz-adv-x="379" 
d="M48 290v114h283v-114h-283z" />
    <glyph glyph-name="underscore" unicode="_" horiz-adv-x="513" 
d="M-36 -163v112h585v-112h-585z" />
    <glyph glyph-name="grave" unicode="`" horiz-adv-x="464" 
d="M212 540l-184 199h186l98 -199h-100z" />
    <glyph glyph-name="a" unicode="a" horiz-adv-x="535" 
d="M158 -7c-68 0 -126 41 -126 154c0 51 6 88 33 109c43 32 116 40 273 40v17c0 46 -9 66 -71 66c-77 0 -126 -7 -173 -15l-16 113c39 7 108 17 190 17c162 0 210 -47 210 -161v-333h-121l-15 49c-29 -17 -89 -56 -184 -56zM227 99c40 0 85 16 111 27v96
c-92 0 -131 -4 -150 -17c-13 -9 -15 -29 -15 -49c0 -45 16 -57 54 -57z" />
    <glyph glyph-name="b" unicode="b" horiz-adv-x="588" 
d="M392 -8c-81 0 -164 29 -195 43l-16 -35h-120v752h141v-319c28 15 120 55 195 55c96 0 153 -47 153 -247s-62 -249 -158 -249zM334 108c50 0 73 22 73 131c0 111 -21 128 -73 128c-54 0 -101 -16 -132 -27v-212c25 -7 75 -20 132 -20z" />
    <glyph glyph-name="c" unicode="c" horiz-adv-x="465" 
d="M283 -9c-174 0 -249 52 -249 251s78 252 254 252c53 0 109 -8 144 -17l-21 -114c-30 5 -69 12 -125 12c-82 0 -110 -21 -110 -131c0 -109 30 -138 112 -138c48 0 85 7 123 16l21 -111c-40 -12 -98 -20 -149 -20z" />
    <glyph glyph-name="d" unicode="d" horiz-adv-x="588" 
d="M191 -10c-96 0 -153 49 -153 249s62 249 158 249c81 0 162 -29 190 -41v305h141v-752h-122l-14 48c-29 -15 -117 -58 -200 -58zM254 113c55 0 101 16 132 27v212c-25 7 -75 20 -132 20c-50 0 -73 -22 -73 -131c0 -111 20 -128 73 -128z" />
    <glyph glyph-name="e" unicode="e" horiz-adv-x="519" 
d="M298 -9c-184 0 -264 54 -264 251c0 204 94 252 228 252c150 0 222 -51 222 -222v-56h-309c1 -91 38 -110 122 -110c46 0 104 5 145 14l18 -110c-38 -10 -119 -19 -162 -19zM176 295h172c0 81 -22 100 -87 100c-53 0 -81 -20 -85 -100z" />
    <glyph glyph-name="f" unicode="f" horiz-adv-x="382" 
d="M105 0v362h-74v115h74v79c0 117 15 165 229 197l25 -127c-108 -20 -113 -34 -113 -93v-56h109v-115h-109v-362h-141z" />
    <glyph glyph-name="g" unicode="g" horiz-adv-x="588" 
d="M291 -202c-87 0 -180 7 -213 12l13 115c47 -6 129 -10 203 -10c75 0 92 19 92 117v24c-29 -19 -116 -60 -195 -60c-95 0 -153 46 -153 246s62 246 158 246c79 0 166 -31 195 -46l17 35h119v-453c0 -157 -37 -226 -236 -226zM254 110c54 0 102 18 132 32v206
c-23 9 -76 24 -132 24c-49 0 -73 -19 -73 -128c0 -111 21 -134 73 -134z" />
    <glyph glyph-name="h" unicode="h" horiz-adv-x="585" 
d="M61 0v752h141v-324c33 23 127 60 194 60c86 0 131 -37 131 -124v-364h-141v312c0 39 -14 53 -62 53c-39 0 -94 -15 -122 -31v-334h-141z" />
    <glyph glyph-name="i" unicode="i" horiz-adv-x="273" 
d="M65 558v148h143v-148h-143zM66 0v477h141v-477h-141z" />
    <glyph glyph-name="j" unicode="j" horiz-adv-x="273" 
d="M65 558v148h143v-148h-143zM-26 -198l-21 123c107 20 113 41 113 99v453h141v-482c0 -116 -27 -172 -233 -193z" />
    <glyph glyph-name="k" unicode="k" horiz-adv-x="547" 
d="M202 154v-154h-141v752h141v-457l177 182h138l-170 -174l183 -303h-154l-125 203z" />
    <glyph glyph-name="l" unicode="l" horiz-adv-x="273" 
d="M66 0v752h141v-752h-141z" />
    <glyph glyph-name="m" unicode="m" horiz-adv-x="891" 
d="M61 0v477h123l14 -51c46 27 120 62 197 62c62 0 99 -25 113 -65c54 32 130 65 201 65c85 0 124 -37 124 -130v-358h-141v312c0 39 -9 53 -57 53c-40 0 -90 -15 -117 -31v-334h-141v312c0 39 -10 53 -57 53c-42 0 -92 -16 -117 -31v-334h-142z" />
    <glyph glyph-name="n" unicode="n" horiz-adv-x="585" 
d="M61 0v477h122l15 -47c28 17 123 58 198 58c86 0 131 -37 131 -124v-364h-141v312c0 39 -14 53 -62 53c-43 0 -101 -17 -121 -27v-338h-142z" />
    <glyph glyph-name="o" unicode="o" horiz-adv-x="575" 
d="M287 -9c-175 0 -253 57 -253 251s79 253 255 253c175 0 252 -57 252 -251s-79 -253 -254 -253zM289 98c79 0 110 31 110 144s-33 144 -112 144c-80 0 -111 -29 -111 -142s33 -146 113 -146z" />
    <glyph glyph-name="p" unicode="p" horiz-adv-x="588" 
d="M61 -200v677h122l14 -47c29 15 117 58 200 58c96 0 153 -47 153 -247s-62 -249 -158 -249c-81 0 -162 29 -190 41v-233h-141zM334 108c50 0 73 22 73 131c0 111 -21 128 -73 128c-55 0 -101 -16 -132 -27v-212c25 -7 75 -20 132 -20z" />
    <glyph glyph-name="q" unicode="q" horiz-adv-x="586" 
d="M384 -200v246c-29 -15 -116 -56 -195 -56c-96 0 -153 49 -153 249s62 249 158 249c81 0 165 -30 195 -43l16 36h120v-681h-141zM252 113c54 0 101 16 132 27v212c-25 7 -75 20 -132 20c-50 0 -73 -22 -73 -131c0 -111 20 -128 73 -128z" />
    <glyph glyph-name="r" unicode="r" horiz-adv-x="406" 
d="M61 0v477h122l15 -56c39 23 96 56 171 68l16 -129c-53 -3 -151 -16 -182 -31v-329h-142z" />
    <glyph glyph-name="s" unicode="s" horiz-adv-x="492" 
d="M232 -8c-73 0 -160 13 -192 22l14 95c30 -7 118 -20 181 -20c73 0 90 9 90 49c0 32 -13 38 -101 51c-151 21 -184 45 -184 157c0 114 72 148 204 148c78 0 160 -9 196 -18l-17 -97c-43 7 -133 15 -181 15c-53 0 -70 -9 -70 -43c0 -38 18 -39 112 -51
c145 -16 176 -45 176 -150c0 -132 -78 -158 -228 -158z" />
    <glyph glyph-name="t" unicode="t" horiz-adv-x="385" 
d="M218 -5c-99 0 -135 40 -135 147v220h-65v115h65v152l141 20v-172h115v-115h-115v-187c0 -55 13 -68 46 -68c15 0 39 1 72 5l7 -108c-35 -5 -90 -9 -131 -9z" />
    <glyph glyph-name="u" unicode="u" horiz-adv-x="584" 
d="M189 -10c-86 0 -131 37 -131 124v363h141v-311c0 -40 14 -53 62 -53c44 0 100 16 121 26v338h141v-476l-122 -1l-14 47c-29 -17 -123 -57 -198 -57z" />
    <glyph glyph-name="v" unicode="v" horiz-adv-x="541" 
d="M205 -4l-194 481h148l119 -314l119 314h133l-194 -481h-131z" />
    <glyph glyph-name="w" unicode="w" horiz-adv-x="791" 
d="M173 -4l-162 481h143l93 -285l105 273h106l102 -272l93 284h128l-163 -481h-108l-113 302l-113 -302h-111z" />
    <glyph glyph-name="x" unicode="x" horiz-adv-x="559" 
d="M16 0l179 253l-162 224h162l96 -133l93 133h142l-163 -231l179 -246h-162l-113 157l-109 -157h-142z" />
    <glyph glyph-name="y" unicode="y" horiz-adv-x="544" 
d="M203 10c0 1 -192 467 -192 467h148s122 -303 122 -304l120 304h132l-274 -677h-141z" />
    <glyph glyph-name="z" unicode="z" horiz-adv-x="503" 
d="M31 0v100l257 263h-246v114h424v-100l-253 -264h267v-113h-449z" />
    <glyph glyph-name="braceleft" unicode="{" horiz-adv-x="461" 
d="M430 -144c-244 2 -315 50 -322 391h-88v115h88c7 336 79 388 322 390v-119c-170 0 -196 -28 -196 -332c0 -302 26 -328 196 -328v-117z" />
    <glyph glyph-name="bar" unicode="|" horiz-adv-x="377" 
d="M130 -200v990h116v-990h-116z" />
    <glyph glyph-name="braceright" unicode="}" horiz-adv-x="461" 
d="M31 -144v117c171 0 197 26 197 328c0 303 -26 332 -197 332v119c244 -2 316 -55 322 -395h89v-115h-89c-6 -337 -78 -384 -322 -386z" />
    <glyph glyph-name="asciitilde" unicode="~" horiz-adv-x="465" 
d="M94 528l-65 83c46 39 100 85 141 85c42 0 101 -47 123 -47c17 0 44 24 78 53l65 -83c-46 -39 -98 -85 -142 -85c-41 0 -100 47 -122 47c-17 0 -44 -24 -78 -53z" />
    <glyph glyph-name="Adieresis" unicode="&#xc4;" horiz-adv-x="731" 
d="M531 593v139h146v-139h-146zM53 593v139h146v-139h-146zM210 132l-49 -132h-147l284 737h135l284 -737h-155l-49 132h-303zM469 251l-107 288s-107 -288 -108 -288h215z" />
    <glyph glyph-name="Aring" unicode="&#xc5;" horiz-adv-x="731" 
d="M210 132l-49 -132h-147l268 696c-37 15 -54 45 -54 99c0 85 43 114 136 114s136 -29 136 -114c0 -52 -17 -82 -52 -98l269 -697h-155l-49 132h-303zM364 741c42 0 53 11 53 54c0 44 -11 57 -53 57s-53 -13 -53 -57c0 -43 11 -54 53 -54zM469 251l-107 288
s-107 -288 -108 -288h215z" />
    <glyph glyph-name="Ccedilla" unicode="&#xc7;" horiz-adv-x="614" 
d="M283 -6c-154 18 -246 99 -246 372c0 317 128 377 328 377c120 0 175 -15 209 -22l-25 -125c-54 9 -108 18 -186 18c-128 0 -172 -52 -172 -219v-54c0 -163 45 -225 174 -225c96 0 163 17 185 21l24 -123c-37 -10 -89 -23 -194 -24l24 -129c-23 -24 -88 -56 -176 -72
l-23 102c39 7 79 20 91 28z" />
    <glyph glyph-name="Eacute" unicode="&#xc9;" horiz-adv-x="591" 
d="M65 0v732h487v-129h-340v-163h268v-129h-268v-185h340v-126h-487zM216 780l98 199h186l-184 -199h-100z" />
    <glyph glyph-name="Ntilde" unicode="&#xd1;" horiz-adv-x="739" 
d="M65 0v732h146l322 -466v466h141v-732h-126l-342 497v-497h-141zM238 768l-65 83c46 39 100 85 141 85c42 0 101 -47 123 -47c17 0 44 24 78 53l65 -83c-46 -39 -98 -85 -142 -85c-41 0 -100 47 -122 47c-17 0 -44 -24 -78 -53z" />
    <glyph glyph-name="Odieresis" unicode="&#xd6;" horiz-adv-x="752" 
d="M375 -12c-200 0 -338 61 -338 378s140 378 340 378s338 -59 338 -376s-140 -380 -340 -380zM377 113c126 0 184 50 184 226v54c0 176 -60 224 -186 224s-184 -46 -184 -222v-54c0 -176 60 -228 186 -228zM408 784v139h146v-139h-146zM199 784v139h145v-139h-145z" />
    <glyph glyph-name="Udieresis" unicode="&#xdc;" horiz-adv-x="730" 
d="M367 -10c-208 0 -309 49 -309 268v474h148v-464c0 -119 48 -145 163 -145s162 20 162 143v466h141v-472c0 -216 -97 -270 -305 -270zM396 784v139h146v-139h-146zM187 784v139h145v-139h-145z" />
    <glyph glyph-name="aacute" unicode="&#xe1;" horiz-adv-x="535" 
d="M158 -7c-68 0 -126 41 -126 154c0 51 6 88 33 109c43 32 116 40 273 40v17c0 46 -9 66 -71 66c-77 0 -126 -7 -173 -15l-16 113c39 7 108 17 190 17c162 0 210 -47 210 -161v-333h-121l-15 49c-29 -17 -89 -56 -184 -56zM227 99c40 0 85 16 111 27v96
c-92 0 -131 -4 -150 -17c-13 -9 -15 -29 -15 -49c0 -45 16 -57 54 -57zM183 540l98 199h186l-184 -199h-100z" />
    <glyph glyph-name="agrave" unicode="&#xe0;" horiz-adv-x="535" 
d="M158 -7c-68 0 -126 41 -126 154c0 51 6 88 33 109c43 32 116 40 273 40v17c0 46 -9 66 -71 66c-77 0 -126 -7 -173 -15l-16 113c39 7 108 17 190 17c162 0 210 -47 210 -161v-333h-121l-15 49c-29 -17 -89 -56 -184 -56zM227 99c40 0 85 16 111 27v96
c-92 0 -131 -4 -150 -17c-13 -9 -15 -29 -15 -49c0 -45 16 -57 54 -57zM255 540l-184 199h186l98 -199h-100z" />
    <glyph glyph-name="acircumflex" unicode="&#xe2;" horiz-adv-x="535" 
d="M158 -7c-68 0 -126 41 -126 154c0 51 6 88 33 109c43 32 116 40 273 40v17c0 46 -9 66 -71 66c-77 0 -126 -7 -173 -15l-16 113c39 7 108 17 190 17c162 0 210 -47 210 -161v-333h-121l-15 49c-29 -17 -89 -56 -184 -56zM227 99c40 0 85 16 111 27v96
c-92 0 -131 -4 -150 -17c-13 -9 -15 -29 -15 -49c0 -45 16 -57 54 -57zM77 540l131 181h119l131 -181h-97l-95 79l-95 -79h-94z" />
    <glyph glyph-name="adieresis" unicode="&#xe4;" horiz-adv-x="535" 
d="M158 -7c-68 0 -126 41 -126 154c0 51 6 88 33 109c43 32 116 40 273 40v17c0 46 -9 66 -71 66c-77 0 -126 -7 -173 -15l-16 113c39 7 108 17 190 17c162 0 210 -47 210 -161v-333h-121l-15 49c-29 -17 -89 -56 -184 -56zM227 99c40 0 85 16 111 27v96
c-92 0 -131 -4 -150 -17c-13 -9 -15 -29 -15 -49c0 -45 16 -57 54 -57zM300 544v139h146v-139h-146zM91 544v139h145v-139h-145z" />
    <glyph glyph-name="atilde" unicode="&#xe3;" horiz-adv-x="535" 
d="M158 -7c-68 0 -126 41 -126 154c0 51 6 88 33 109c43 32 116 40 273 40v17c0 46 -9 66 -71 66c-77 0 -126 -7 -173 -15l-16 113c39 7 108 17 190 17c162 0 210 -47 210 -161v-333h-121l-15 49c-29 -17 -89 -56 -184 -56zM227 99c40 0 85 16 111 27v96
c-92 0 -131 -4 -150 -17c-13 -9 -15 -29 -15 -49c0 -45 16 -57 54 -57zM138 528l-65 83c46 39 100 85 141 85c42 0 101 -47 123 -47c17 0 44 24 78 53l65 -83c-46 -39 -98 -85 -142 -85c-41 0 -100 47 -122 47c-17 0 -44 -24 -78 -53z" />
    <glyph glyph-name="aring" unicode="&#xe5;" horiz-adv-x="535" 
d="M158 -7c-68 0 -126 41 -126 154c0 51 6 88 33 109c43 32 116 40 273 40v17c0 46 -9 66 -71 66c-77 0 -126 -7 -173 -15l-16 113c39 7 108 17 190 17c162 0 210 -47 210 -161v-333h-121l-15 49c-29 -17 -89 -56 -184 -56zM227 99c40 0 85 16 111 27v96
c-92 0 -131 -4 -150 -17c-13 -9 -15 -29 -15 -49c0 -45 16 -57 54 -57zM269 531c-93 0 -136 27 -136 111c0 85 43 114 136 114s136 -29 136 -114c0 -84 -44 -111 -136 -111zM269 588c42 0 53 11 53 54c0 44 -11 57 -53 57s-53 -13 -53 -57c0 -43 11 -54 53 -54z" />
    <glyph glyph-name="ccedilla" unicode="&#xe7;" horiz-adv-x="465" 
d="M208 -5c-121 16 -174 80 -174 247c0 199 78 252 254 252c53 0 109 -8 144 -17l-21 -114c-30 5 -69 12 -125 12c-82 0 -110 -21 -110 -131c0 -109 30 -138 112 -138c48 0 85 7 123 16l21 -111c-34 -10 -82 -18 -127 -20l24 -130c-23 -24 -88 -56 -176 -72l-23 102
c39 7 79 20 91 28z" />
    <glyph glyph-name="eacute" unicode="&#xe9;" horiz-adv-x="519" 
d="M298 -9c-184 0 -264 54 -264 251c0 204 94 252 228 252c150 0 222 -51 222 -222v-56h-309c1 -91 38 -110 122 -110c46 0 104 5 145 14l18 -110c-38 -10 -119 -19 -162 -19zM176 295h172c0 81 -22 100 -87 100c-53 0 -81 -20 -85 -100zM172 540l98 199h186l-184 -199h-100
z" />
    <glyph glyph-name="egrave" unicode="&#xe8;" horiz-adv-x="519" 
d="M298 -9c-184 0 -264 54 -264 251c0 204 94 252 228 252c150 0 222 -51 222 -222v-56h-309c1 -91 38 -110 122 -110c46 0 104 5 145 14l18 -110c-38 -10 -119 -19 -162 -19zM176 295h172c0 81 -22 100 -87 100c-53 0 -81 -20 -85 -100zM244 540l-184 199h186l98 -199h-100
z" />
    <glyph glyph-name="ecircumflex" unicode="&#xea;" horiz-adv-x="519" 
d="M298 -9c-184 0 -264 54 -264 251c0 204 94 252 228 252c150 0 222 -51 222 -222v-56h-309c1 -91 38 -110 122 -110c46 0 104 5 145 14l18 -110c-38 -10 -119 -19 -162 -19zM176 295h172c0 81 -22 100 -87 100c-53 0 -81 -20 -85 -100zM66 540l131 181h119l131 -181h-97
l-95 79l-95 -79h-94z" />
    <glyph glyph-name="edieresis" unicode="&#xeb;" horiz-adv-x="519" 
d="M298 -9c-184 0 -264 54 -264 251c0 204 94 252 228 252c150 0 222 -51 222 -222v-56h-309c1 -91 38 -110 122 -110c46 0 104 5 145 14l18 -110c-38 -10 -119 -19 -162 -19zM176 295h172c0 81 -22 100 -87 100c-53 0 -81 -20 -85 -100zM289 544v139h146v-139h-146zM80 544
v139h145v-139h-145z" />
    <glyph glyph-name="iacute" unicode="&#xed;" horiz-adv-x="273" 
d="M66 0v477h141v-477h-141zM75 540l98 199h186l-184 -199h-100z" />
    <glyph glyph-name="igrave" unicode="&#xec;" horiz-adv-x="273" 
d="M66 0v477h141v-477h-141zM99 540l-184 199h186l98 -199h-100z" />
    <glyph glyph-name="icircumflex" unicode="&#xee;" horiz-adv-x="273" 
d="M66 0v477h141v-477h-141zM-56 540l131 181h119l131 -181h-97l-95 79l-95 -79h-94z" />
    <glyph glyph-name="idieresis" unicode="&#xef;" horiz-adv-x="273" 
d="M66 0v477h141v-477h-141zM168 544v139h146v-139h-146zM-41 544v139h145v-139h-145z" />
    <glyph glyph-name="ntilde" unicode="&#xf1;" horiz-adv-x="585" 
d="M61 0v477h122l15 -47c28 17 123 58 198 58c86 0 131 -37 131 -124v-364h-141v312c0 39 -14 53 -62 53c-43 0 -101 -17 -121 -27v-338h-142zM161 528l-65 83c46 39 100 85 141 85c42 0 101 -47 123 -47c17 0 44 24 78 53l65 -83c-46 -39 -98 -85 -142 -85
c-41 0 -100 47 -122 47c-17 0 -44 -24 -78 -53z" />
    <glyph glyph-name="oacute" unicode="&#xf3;" horiz-adv-x="575" 
d="M287 -9c-175 0 -253 57 -253 251s79 253 255 253c175 0 252 -57 252 -251s-79 -253 -254 -253zM289 98c79 0 110 31 110 144s-33 144 -112 144c-80 0 -111 -29 -111 -142s33 -146 113 -146zM201 540l98 199h186l-184 -199h-100z" />
    <glyph glyph-name="ograve" unicode="&#xf2;" horiz-adv-x="575" 
d="M287 -9c-175 0 -253 57 -253 251s79 253 255 253c175 0 252 -57 252 -251s-79 -253 -254 -253zM289 98c79 0 110 31 110 144s-33 144 -112 144c-80 0 -111 -29 -111 -142s33 -146 113 -146zM273 540l-184 199h186l98 -199h-100z" />
    <glyph glyph-name="ocircumflex" unicode="&#xf4;" horiz-adv-x="575" 
d="M287 -9c-175 0 -253 57 -253 251s79 253 255 253c175 0 252 -57 252 -251s-79 -253 -254 -253zM289 98c79 0 110 31 110 144s-33 144 -112 144c-80 0 -111 -29 -111 -142s33 -146 113 -146zM95 540l131 181h119l131 -181h-97l-95 79l-95 -79h-94z" />
    <glyph glyph-name="odieresis" unicode="&#xf6;" horiz-adv-x="575" 
d="M287 -9c-175 0 -253 57 -253 251s79 253 255 253c175 0 252 -57 252 -251s-79 -253 -254 -253zM289 98c79 0 110 31 110 144s-33 144 -112 144c-80 0 -111 -29 -111 -142s33 -146 113 -146zM319 544v139h146v-139h-146zM110 544v139h145v-139h-145z" />
    <glyph glyph-name="otilde" unicode="&#xf5;" horiz-adv-x="575" 
d="M287 -9c-175 0 -253 57 -253 251s79 253 255 253c175 0 252 -57 252 -251s-79 -253 -254 -253zM289 98c79 0 110 31 110 144s-33 144 -112 144c-80 0 -111 -29 -111 -142s33 -146 113 -146zM156 528l-65 83c46 39 100 85 141 85c42 0 101 -47 123 -47c17 0 44 24 78 53
l65 -83c-46 -39 -98 -85 -142 -85c-41 0 -100 47 -122 47c-17 0 -44 -24 -78 -53z" />
    <glyph glyph-name="uacute" unicode="&#xfa;" horiz-adv-x="584" 
d="M189 -10c-86 0 -131 37 -131 124v363h141v-311c0 -40 14 -53 62 -53c44 0 100 16 121 26v338h141v-476l-122 -1l-14 47c-29 -17 -123 -57 -198 -57zM206 540l98 199h186l-184 -199h-100z" />
    <glyph glyph-name="ugrave" unicode="&#xf9;" horiz-adv-x="584" 
d="M189 -10c-86 0 -131 37 -131 124v363h141v-311c0 -40 14 -53 62 -53c44 0 100 16 121 26v338h141v-476l-122 -1l-14 47c-29 -17 -123 -57 -198 -57zM278 540l-184 199h186l98 -199h-100z" />
    <glyph glyph-name="ucircumflex" unicode="&#xfb;" horiz-adv-x="584" 
d="M189 -10c-86 0 -131 37 -131 124v363h141v-311c0 -40 14 -53 62 -53c44 0 100 16 121 26v338h141v-476l-122 -1l-14 47c-29 -17 -123 -57 -198 -57zM99 540l131 181h119l131 -181h-97l-95 79l-95 -79h-94z" />
    <glyph glyph-name="udieresis" unicode="&#xfc;" horiz-adv-x="584" 
d="M189 -10c-86 0 -131 37 -131 124v363h141v-311c0 -40 14 -53 62 -53c44 0 100 16 121 26v338h141v-476l-122 -1l-14 47c-29 -17 -123 -57 -198 -57zM323 544v139h146v-139h-146zM114 544v139h145v-139h-145z" />
    <glyph glyph-name="dagger" unicode="&#x2020;" horiz-adv-x="507" 
d="M199 -129v534h-167v108h167v239h110v-239h167v-108h-167v-534h-110z" />
    <glyph glyph-name="degree" unicode="&#xb0;" horiz-adv-x="473" 
d="M236 335c-142 0 -205 62 -205 204s65 206 207 206c141 0 203 -62 203 -204s-64 -206 -205 -206zM238 425c60 0 87 16 87 114s-29 116 -89 116c-61 0 -88 -16 -88 -114s29 -116 90 -116z" />
    <glyph glyph-name="cent" unicode="&#xa2;" horiz-adv-x="473" 
d="M315 622c44 -2 88 -9 117 -16l-21 -112c-30 6 -69 13 -125 13c-82 0 -110 -24 -110 -134c0 -109 30 -141 112 -141c48 0 85 7 123 16l21 -108c-32 -10 -75 -17 -117 -19v-121h-116v126c-114 17 -165 82 -165 245c0 162 51 227 165 246v121h116v-116z" />
    <glyph glyph-name="sterling" unicode="&#xa3;" horiz-adv-x="603" 
d="M31 0v126h135c-12 48 -26 107 -42 182h-93v114h68c-7 43 -15 91 -15 119c0 140 62 204 261 204c82 0 153 -9 216 -25l-24 -125c-33 7 -117 21 -192 21c-88 0 -114 -18 -114 -84c0 -27 5 -69 12 -110h200v-114h-175c14 -72 27 -128 41 -182h258v-126h-536z" />
    <glyph glyph-name="section" unicode="&#xa7;" horiz-adv-x="587" 
d="M299 -4c-88 0 -172 11 -214 23l17 93c32 -6 118 -19 190 -19c81 0 93 11 93 47c0 48 -13 48 -124 55c-164 9 -208 42 -208 141c0 54 32 112 52 140c-28 25 -37 62 -37 119c0 100 65 147 220 147c90 0 176 -14 215 -25l-21 -94c-38 7 -130 20 -186 20
c-76 0 -93 -11 -93 -47c0 -48 19 -47 130 -54c167 -9 202 -43 202 -140c0 -47 -28 -106 -53 -141c29 -24 37 -61 37 -118c0 -101 -64 -147 -220 -147zM381 301c15 24 27 51 27 75c0 33 -13 43 -112 50c-38 3 -64 6 -90 11c-17 -30 -26 -52 -26 -75c0 -33 16 -44 112 -50
c37 -3 63 -6 89 -11z" />
    <glyph glyph-name="bullet" unicode="&#x2022;" horiz-adv-x="483" 
d="M243 82c-116 0 -183 41 -183 204s65 202 181 202s182 -41 182 -204s-64 -202 -180 -202z" />
    <glyph glyph-name="paragraph" unicode="&#xb6;" horiz-adv-x="622" 
d="M214 0v278c-104 3 -189 43 -189 221c0 190 91 233 244 233h288v-732h-136v275h-77v-275h-130zM257 383h164v229h-162c-54 0 -98 -19 -98 -115c0 -99 42 -114 96 -114z" />
    <glyph glyph-name="germandbls" unicode="&#xdf;" horiz-adv-x="667" 
d="M316 -7l-15 113c105 12 160 25 186 52c18 17 21 39 21 73c0 35 -3 56 -22 74c-26 25 -77 36 -155 47v94c65 76 82 98 82 155c0 47 -25 51 -108 51c-45 0 -60 -11 -60 -54v-598h-140v368h-74v109h74v131c0 114 50 153 206 153c171 0 238 -26 238 -158
c0 -76 -32 -108 -105 -166c63 -13 127 -33 159 -74c25 -30 39 -72 39 -132c0 -74 -12 -123 -44 -153c-54 -52 -144 -73 -282 -85z" />
    <glyph glyph-name="registered" unicode="&#xae;" horiz-adv-x="843" 
d="M421 -12c-280 0 -380 78 -380 378s100 379 380 379c281 0 381 -79 381 -379s-100 -378 -381 -378zM421 65c218 0 297 30 297 302s-79 301 -297 301c-217 0 -296 -29 -296 -301s79 -302 296 -302zM244 145v447h201c91 0 150 -30 150 -153c0 -61 -13 -113 -69 -134
l112 -160h-122l-98 138h-69v-138h-105zM349 363h85c36 0 56 20 56 74s-21 70 -54 70h-87v-144z" />
    <glyph glyph-name="copyright" unicode="&#xa9;" horiz-adv-x="843" 
d="M421 -12c-280 0 -380 78 -380 378s100 379 380 379c281 0 381 -79 381 -379s-100 -378 -381 -378zM421 65c218 0 297 30 297 302s-79 301 -297 301c-217 0 -296 -29 -296 -301s79 -302 296 -302zM429 130c-127 0 -206 37 -206 236s82 236 208 236c73 0 102 -8 137 -15
l-23 -93c-54 8 -72 11 -116 11c-70 0 -93 -33 -93 -125v-26c0 -90 23 -129 95 -129c54 0 84 7 118 13l19 -91c-33 -9 -68 -17 -139 -17z" />
    <glyph glyph-name="trademark" unicode="&#x2122;" horiz-adv-x="962" 
d="M169 290v358h-136v84h372v-84h-137v-358h-99zM458 290v442h127l94 -329l87 329h133v-442h-92v357l-97 -358h-82l-94 358v-357h-76z" />
    <glyph glyph-name="acute" unicode="&#xb4;" horiz-adv-x="464" 
d="M152 540l98 199h186l-184 -199h-100z" />
    <glyph glyph-name="dieresis" unicode="&#xa8;" horiz-adv-x="465" 
d="M264 544v139h146v-139h-146zM55 544v139h145v-139h-145z" />
    <glyph glyph-name="notequal" unicode="&#x2260;" horiz-adv-x="708" 
d="M105 0v362h-74v115h74v52c0 118 15 165 229 198l25 -128c-108 -20 -113 -34 -113 -92v-30h185v79c0 117 15 165 229 197l25 -127c-108 -20 -113 -34 -113 -93v-56h109v-115h-109v-362h-141v362h-185v-362h-141z" />
    <glyph glyph-name="AE" unicode="&#xc6;" horiz-adv-x="1046" 
d="M14 0l435 732h557v-129h-328v-163h256v-129h-256v-185h328v-126h-469v185h-257l-106 -185h-160zM346 302h191v331z" />
    <glyph glyph-name="Oslash" unicode="&#xd8;" horiz-adv-x="752" 
d="M620 675c60 -54 95 -148 95 -307c0 -317 -140 -380 -340 -380c-63 0 -119 6 -167 24l-54 -86h-105l82 132c-60 55 -94 149 -94 308c0 317 140 378 340 378c62 0 118 -6 166 -23l54 86h105zM213 189l261 420c-27 12 -60 17 -99 17c-128 0 -187 -52 -187 -231v-54
c0 -66 8 -115 25 -152zM539 544l-263 -421c27 -13 61 -19 101 -19c128 0 187 56 187 235v54c0 66 -8 116 -25 151z" />
    <glyph glyph-name="infinity" unicode="&#x221e;" horiz-adv-x="963" 
d="M105 0v362h-74v115h74v52c0 118 15 165 229 198l25 -128c-108 -20 -113 -34 -113 -92v-30h185v78c0 119 53 154 324 202l22 -117c-193 -39 -205 -53 -205 -104v-59h325v-477h-141v363h-184v-363h-141v363h-185v-363h-141z" />
    <glyph glyph-name="plusminus" unicode="&#xb1;" horiz-adv-x="963" 
d="M756 0v752h140v-752h-140zM105 0v362h-74v115h74v52c0 118 15 165 229 198l25 -128c-108 -20 -113 -34 -113 -92v-30h185v73c0 121 21 169 197 203l35 -127c-84 -20 -91 -33 -91 -90v-59h92v-115h-92v-362h-141v362h-185v-362h-141z" />
    <glyph glyph-name="lessequal" unicode="&#x2264;" horiz-adv-x="581" 
d="M191 -10c-95 0 -153 49 -153 249s62 249 158 249c79 0 159 -31 188 -46l17 35h119v-477h-122l-14 52c-30 -19 -114 -62 -193 -62zM254 113c54 0 96 18 125 32v203c-23 9 -69 24 -125 24c-49 0 -73 -22 -73 -131c0 -111 21 -128 73 -128z" />
    <glyph glyph-name="greaterequal" unicode="&#x2265;" horiz-adv-x="562" 
d="M44 -205l-1 113c332 2 359 7 359 55c0 45 -11 53 -300 60l20 142c-84 24 -102 59 -102 153c0 132 40 172 240 172c51 0 95 -3 124 -9l32 71l119 -52l-45 -101c5 -15 11 -50 11 -80c0 -132 -36 -164 -242 -167h-19l-6 -46c258 -9 306 -26 306 -144
c0 -143 -61 -165 -496 -167zM259 240c86 0 104 6 104 75c0 28 -4 52 -8 69c-24 4 -56 7 -100 7c-79 0 -98 -10 -98 -76s17 -75 102 -75z" />
    <glyph glyph-name="yen" unicode="&#xa5;" horiz-adv-x="716" 
d="M525 434h149v-95h-206l-39 -66v-8h245v-95h-245v-170h-148v170h-246v95h246v5l-40 69h-206v95h151l-172 298h167l185 -326l186 326h150z" />
    <glyph glyph-name="mu" unicode="&#xb5;" horiz-adv-x="709" 
d="M85 0v76c0 178 104 229 238 229v95h-238v194h71v-128h167v67h-53v192h176v-192h-53v-67h162v128h70v-194h-232v-95c134 0 238 -51 238 -229v-76h-73v72c0 131 -50 162 -165 162v-100h-70v100c-115 0 -165 -31 -165 -162v-72h-73z" />
    <glyph glyph-name="mu" unicode="&#x3bc;" horiz-adv-x="709" 
d="M85 0v76c0 178 104 229 238 229v95h-238v194h71v-128h167v67h-53v192h176v-192h-53v-67h162v128h70v-194h-232v-95c134 0 238 -51 238 -229v-76h-73v72c0 131 -50 162 -165 162v-100h-70v100c-115 0 -165 -31 -165 -162v-72h-73z" />
    <glyph glyph-name="partialdiff" unicode="&#x2202;" horiz-adv-x="709" 
d="M80 0v76c0 178 104 229 238 229v95h-238v194h71v-128h167v67h-53v192h176v-192h-53v-67h162v128h70v-194h-232v-95c134 0 238 -51 238 -229v-76h-73v72c0 131 -50 162 -165 162v-100h-70v100c-115 0 -165 -31 -165 -162v-72h-73z" />
    <glyph glyph-name="summation" unicode="&#x2211;" horiz-adv-x="709" 
d="M80 0v76c0 178 104 229 238 229v95h-238v194h71v-128h167v67h-53v192h176v-192h-53v-67h162v128h70v-194h-232v-95c134 0 238 -51 238 -229v-76h-73v72c0 131 -50 162 -165 162v-100h-70v100c-115 0 -165 -31 -165 -162v-72h-73z" />
    <glyph glyph-name="product" unicode="&#x220f;" horiz-adv-x="709" 
d="M80 0v76c0 178 104 229 238 229v95h-238v194h71v-128h167v67h-53v192h176v-192h-53v-67h162v128h70v-194h-232v-95c134 0 238 -51 238 -229v-76h-73v72c0 131 -50 162 -165 162v-100h-70v100c-115 0 -165 -31 -165 -162v-72h-73z" />
    <glyph glyph-name="pi" unicode="&#x3c0;" horiz-adv-x="843" 
d="M421 -12c-280 0 -380 78 -380 378s100 379 380 379c281 0 381 -79 381 -379s-100 -378 -381 -378zM421 65c218 0 297 30 297 302s-79 301 -297 301c-217 0 -296 -29 -296 -301s79 -302 296 -302zM263 141v456h206c95 0 153 -24 153 -163s-60 -168 -154 -168h-97v-125
h-108zM371 352h89c36 0 54 27 54 82c0 54 -20 76 -54 76h-89v-158z" />
    <glyph glyph-name="integral" unicode="&#x222b;" horiz-adv-x="709" 
d="M82 0v76c0 178 104 229 238 229v95h-238v194h71v-128h167v67h-53v192h176v-192h-53v-67h162v128h70v-194h-232v-95c134 0 238 -51 238 -229v-76h-73v72c0 131 -50 162 -165 162v-100h-70v100c-115 0 -165 -31 -165 -162v-72h-73z" />
    <glyph glyph-name="ordfeminine" unicode="&#xaa;" horiz-adv-x="441" 
d="M138 338c-56 0 -104 36 -104 125c0 38 5 76 33 95c33 22 85 27 210 27c0 7 1 15 1 23c0 34 -7 48 -55 48c-55 0 -114 -5 -137 -10l-16 86c38 8 99 15 151 15c129 0 177 -36 177 -129v-274h-104l-12 37c-47 -20 -90 -43 -144 -43zM58 203v90h340v-90h-340zM194 425
c27 0 54 9 84 21v74c-71 0 -90 -4 -109 -11c-15 -5 -15 -20 -15 -43c0 -32 11 -41 40 -41z" />
    <glyph glyph-name="ordmasculine" unicode="&#xba;" horiz-adv-x="480" 
d="M239 336c-144 0 -207 48 -207 203s64 205 209 205c146 0 207 -48 207 -203c0 -156 -63 -205 -209 -205zM61 203v90h359v-90h-359zM241 424c65 0 86 23 86 115s-23 116 -88 116c-64 0 -85 -22 -85 -114s23 -117 87 -117z" />
    <glyph glyph-name="Omega" unicode="&#x3a9;" horiz-adv-x="709" 
d="M80 0v76c0 178 104 229 238 229v95h-238v194h71v-128h167v67h-53v192h176v-192h-53v-67h162v128h70v-194h-232v-95c134 0 238 -51 238 -229v-76h-73v72c0 131 -50 162 -165 162v-100h-70v100c-115 0 -165 -31 -165 -162v-72h-73z" />
    <glyph glyph-name="Omega" unicode="&#x2126;" horiz-adv-x="709" 
d="M80 0v76c0 178 104 229 238 229v95h-238v194h71v-128h167v67h-53v192h176v-192h-53v-67h162v128h70v-194h-232v-95c134 0 238 -51 238 -229v-76h-73v72c0 131 -50 162 -165 162v-100h-70v100c-115 0 -165 -31 -165 -162v-72h-73z" />
    <glyph glyph-name="ae" unicode="&#xe6;" horiz-adv-x="820" 
d="M158 -7c-68 0 -126 41 -126 154c0 44 6 88 35 110c43 33 110 41 271 41v15c0 46 -9 66 -71 66c-77 0 -124 -7 -171 -15l-16 113c39 7 106 17 188 17c89 0 134 -16 157 -51c34 34 80 51 142 51c149 0 221 -51 221 -222v-56h-309c2 -91 38 -110 122 -110c46 0 104 5 145 14
l19 -110c-39 -10 -120 -19 -163 -19c-110 0 -182 19 -223 75c-46 -35 -124 -73 -221 -73zM480 295h172c0 81 -22 100 -87 100c-53 0 -81 -20 -85 -100zM227 99c34 0 84 13 122 35c-7 26 -10 55 -11 90c-90 0 -132 -3 -152 -21c-11 -10 -13 -22 -13 -47c0 -45 16 -57 54 -57z
" />
    <glyph glyph-name="oslash" unicode="&#xf8;" horiz-adv-x="574" 
d="M491 432c34 -39 50 -99 50 -188c0 -194 -79 -253 -254 -253c-43 0 -80 3 -111 11l-52 -70h-113l82 113c-40 38 -59 101 -59 197c0 194 79 253 255 253c49 0 90 -4 124 -15l41 55h113zM180 163l165 224c-16 6 -35 8 -58 8c-85 0 -114 -30 -114 -151c0 -33 2 -60 7 -81z
M398 305l-155 -211c13 -4 28 -5 46 -5c84 0 113 32 113 153c0 24 -1 45 -4 63z" />
    <glyph glyph-name="questiondown" unicode="&#xbf;" horiz-adv-x="600" 
d="M249 585v152h172v-152h-172zM317 -10c-225 0 -288 51 -288 194c0 121 36 170 235 247v87h136v-148c-205 -82 -224 -98 -224 -173c0 -59 32 -78 141 -78c81 0 178 14 225 24l24 -126c-46 -13 -158 -27 -249 -27z" />
    <glyph glyph-name="exclamdown" unicode="&#xa1;" horiz-adv-x="347" 
d="M88 580v152h172v-152h-172zM81 0l34 514h116l34 -514h-184z" />
    <glyph glyph-name="logicalnot" unicode="&#xac;" horiz-adv-x="669" 
d="M363 -10c-202 0 -326 59 -326 376s128 377 332 377c120 0 196 -14 229 -23l-22 -127c-55 10 -131 21 -209 21c-132 0 -176 -52 -176 -219v-54c0 -163 40 -229 182 -229c46 0 86 5 108 9v148h-117v120h254v-369c-35 -10 -130 -30 -255 -30z" />
    <glyph glyph-name="radical" unicode="&#x221a;" horiz-adv-x="690" 
d="M218 -4l-167 392h131l112 -269l239 613h132l-300 -736h-147z" />
    <glyph glyph-name="florin" unicode="&#x192;" horiz-adv-x="461" 
d="M40 -144l77 455h-80v114h99l21 129c19 119 48 149 242 178l19 -116c-111 -22 -116 -31 -127 -95l-16 -96h108v-114h-127l-76 -455h-140z" />
    <glyph glyph-name="approxequal" unicode="&#x2248;" horiz-adv-x="709" 
d="M80 0v76c0 178 104 229 238 229v95h-238v194h71v-128h167v67h-53v192h176v-192h-53v-67h162v128h70v-194h-232v-95c134 0 238 -51 238 -229v-76h-73v72c0 131 -50 162 -165 162v-100h-70v100c-115 0 -165 -31 -165 -162v-72h-73z" />
    <glyph glyph-name="Delta" unicode="&#x394;" horiz-adv-x="637" 
d="M338 -198l-21 123c107 20 113 40 113 99v339h-184v-363h-141v362h-74v115h74v78c0 119 53 154 324 202l22 -117c-193 -39 -205 -53 -205 -104v-59h325v-482c0 -116 -26 -172 -233 -193z" />
    <glyph glyph-name="Delta" unicode="&#x2206;" horiz-adv-x="637" 
d="M338 -198l-21 123c107 20 113 40 113 99v339h-184v-363h-141v362h-74v115h74v78c0 119 53 154 324 202l22 -117c-193 -39 -205 -53 -205 -104v-59h325v-482c0 -116 -26 -172 -233 -193z" />
    <glyph glyph-name="guillemotleft" unicode="&#xab;" horiz-adv-x="583" 
d="M400 25l-120 204l120 206h119l-105 -206l105 -204h-119zM170 25l-120 204l120 206h118l-104 -206l105 -204h-119z" />
    <glyph glyph-name="guillemotright" unicode="&#xbb;" horiz-adv-x="583" 
d="M294 25l105 206l-105 204h119l120 -204l-120 -206h-119zM64 25l104 206l-105 204h119l120 -204l-120 -206h-118z" />
    <glyph glyph-name="ellipsis" unicode="&#x2026;" horiz-adv-x="971" 
d="M721 0v160h182v-160h-182zM395 0v160h182v-160h-182zM69 0v160h181v-160h-181z" />
    <glyph glyph-name="Agrave" unicode="&#xc0;" horiz-adv-x="731" 
d="M210 132l-49 -132h-147l284 737h135l284 -737h-155l-49 132h-303zM469 251l-107 288s-107 -288 -108 -288h215zM345 780l-184 199h186l98 -199h-100z" />
    <glyph glyph-name="Atilde" unicode="&#xc3;" horiz-adv-x="731" 
d="M210 132l-49 -132h-147l284 737h135l284 -737h-155l-49 132h-303zM469 251l-107 288s-107 -288 -108 -288h215zM234 768l-65 83c46 39 100 85 141 85c42 0 101 -47 123 -47c17 0 44 24 78 53l65 -83c-46 -39 -98 -85 -142 -85c-41 0 -100 47 -122 47
c-17 0 -44 -24 -78 -53z" />
    <glyph glyph-name="Otilde" unicode="&#xd5;" horiz-adv-x="752" 
d="M375 -12c-200 0 -338 61 -338 378s140 378 340 378s338 -59 338 -376s-140 -380 -340 -380zM377 113c126 0 184 50 184 226v54c0 176 -60 224 -186 224s-184 -46 -184 -222v-54c0 -176 60 -228 186 -228zM245 768l-65 83c46 39 100 85 141 85c42 0 101 -47 123 -47
c17 0 44 24 78 53l65 -83c-46 -39 -98 -85 -142 -85c-41 0 -100 47 -122 47c-17 0 -44 -24 -78 -53z" />
    <glyph glyph-name="OE" unicode="&#x152;" horiz-adv-x="1000" 
d="M367 0c-217 0 -330 51 -330 365c0 315 113 367 330 367h594v-129h-328v-163h257v-129h-257v-185h328v-126h-594zM368 123h123v483h-123c-128 0 -179 -48 -179 -217v-48c0 -168 51 -218 179 -218z" />
    <glyph glyph-name="oe" unicode="&#x153;" horiz-adv-x="888" 
d="M290 -9c-181 0 -256 57 -256 251s76 253 258 253c94 0 152 -17 184 -64c35 45 92 63 158 63c149 0 221 -51 221 -222v-56h-309c1 -91 38 -110 122 -110c46 0 104 5 145 14l18 -110c-38 -10 -119 -19 -162 -19c-84 2 -151 14 -195 63c-32 -45 -90 -63 -184 -63zM547 295
h172c0 81 -22 100 -87 100c-54 0 -81 -20 -85 -100zM292 98c82 0 113 31 113 144s-33 144 -115 144c-83 0 -114 -29 -114 -142s33 -146 116 -146z" />
    <glyph glyph-name="endash" unicode="&#x2013;" horiz-adv-x="529" 
d="M48 226v114h433v-114h-433z" />
    <glyph glyph-name="emdash" unicode="&#x2014;" horiz-adv-x="804" 
d="M48 226v114h709v-114h-709z" />
    <glyph glyph-name="quotedblleft" unicode="&#x201c;" horiz-adv-x="555" 
d="M275 487l155 280l59 -35l-51 -245h-163zM58 487l156 280l59 -35l-52 -245h-163z" />
    <glyph glyph-name="quotedblright" unicode="&#x201d;" horiz-adv-x="555" 
d="M341 452l-59 35l51 245h163zM124 452l-59 35l52 245h163z" />
    <glyph glyph-name="quoteleft" unicode="&#x2018;" horiz-adv-x="344" 
d="M58 487l156 280l65 -35l-52 -245h-169z" />
    <glyph glyph-name="quoteright" unicode="&#x2019;" horiz-adv-x="344" 
d="M130 452l-65 35l52 245h169z" />
    <glyph glyph-name="divide" unicode="&#xf7;" horiz-adv-x="529" 
d="M195 448v134h137v-134h-137zM49 286v107h431v-107h-431zM195 95v135h137v-135h-137z" />
    <glyph glyph-name="lozenge" unicode="&#x25ca;" horiz-adv-x="733" 
d="M566 -5c-99 0 -135 40 -135 147v220h-185v-362h-141v362h-74v115h74v79c0 117 15 165 229 197l25 -127c-108 -20 -113 -34 -113 -93v-56h185v152l141 20v-172h115v-115h-115v-187c0 -55 13 -68 46 -68c15 0 39 1 72 5l7 -108c-35 -5 -90 -9 -131 -9z" />
    <glyph glyph-name="ydieresis" unicode="&#xff;" horiz-adv-x="544" 
d="M203 10c0 1 -192 467 -192 467h148s122 -303 122 -304l120 304h132l-274 -677h-141zM305 544v139h146v-139h-146zM96 544v139h145v-139h-145z" />
    <glyph glyph-name="Ydieresis" unicode="&#x178;" horiz-adv-x="728" 
d="M291 0v261l-277 471h160l194 -327l194 327h152l-276 -468v-264h-147zM396 784v139h146v-139h-146zM187 784v139h145v-139h-145z" />
    <glyph glyph-name="fraction" unicode="&#x2044;" horiz-adv-x="381" 
d="M0 0l255 732h126l-255 -732h-126z" />
    <glyph glyph-name="fraction" unicode="&#x2215;" horiz-adv-x="381" 
d="M0 0l255 732h126l-255 -732h-126z" />
    <glyph glyph-name="Euro" unicode="&#x20ac;" horiz-adv-x="651" 
d="M414 -10c-151 0 -256 49 -286 239h-108v96h98c0 25 -1 53 0 79h-98v95h107c32 194 140 244 289 244c111 0 161 -15 195 -23l-25 -124c-62 10 -97 18 -172 18c-79 0 -124 -30 -139 -115h201v-95h-212v-79h212v-96h-200c18 -81 61 -113 140 -113c90 0 149 14 170 19
l25 -120c-29 -8 -81 -25 -197 -25z" />
    <glyph glyph-name="guilsinglleft" unicode="&#x2039;" horiz-adv-x="359" 
d="M170 25l-120 204l120 206h125l-104 -206l105 -204h-126z" />
    <glyph glyph-name="guilsinglright" unicode="&#x203a;" horiz-adv-x="359" 
d="M64 25l104 206l-105 204h126l120 -204l-120 -206h-125z" />
    <glyph glyph-name="daggerdbl" unicode="&#x2021;" horiz-adv-x="507" 
d="M199 -144v239h-167v108h167v202h-167v108h167v239h110v-239h167v-108h-167v-202h167v-108h-167v-239h-110z" />
    <glyph glyph-name="periodcentered" unicode="&#xb7;" horiz-adv-x="317" 
d="M69 277v158h179v-158h-179z" />
    <glyph glyph-name="periodcentered" unicode="&#x2219;" horiz-adv-x="317" 
d="M69 277v158h179v-158h-179z" />
    <glyph glyph-name="quotesinglbase" unicode="&#x201a;" horiz-adv-x="344" 
d="M130 -111l-65 35l52 245h169z" />
    <glyph glyph-name="quotedblbase" unicode="&#x201e;" horiz-adv-x="555" 
d="M341 -111l-59 35l51 245h163zM124 -111l-59 35l52 245h163z" />
    <glyph glyph-name="perthousand" unicode="&#x2030;" horiz-adv-x="1545" 
d="M234 262c-133 0 -207 43 -207 240s76 242 209 242c134 0 206 -43 206 -240s-74 -242 -208 -242zM352 0l255 732h126l-255 -732h-126zM1309 -12c-133 0 -206 43 -206 240c0 196 75 241 208 241c134 0 207 -43 207 -239c0 -197 -75 -242 -209 -242zM849 -12
c-133 0 -206 43 -206 240c0 196 75 241 208 241s207 -43 207 -239c0 -197 -76 -242 -209 -242zM236 360c60 0 80 24 80 121v42c0 97 -22 121 -82 121s-80 -22 -80 -119v-42c0 -97 22 -123 82 -123zM1311 85c60 0 80 24 80 121v43c0 97 -22 121 -82 121
c-59 0 -80 -22 -80 -119v-43c0 -97 22 -123 82 -123zM851 85c60 0 80 24 80 121v43c0 97 -22 121 -82 121s-80 -22 -80 -119v-43c0 -97 22 -123 82 -123z" />
    <glyph glyph-name="Acircumflex" unicode="&#xc2;" horiz-adv-x="731" 
d="M210 132l-49 -132h-147l284 737h135l284 -737h-155l-49 132h-303zM469 251l-107 288s-107 -288 -108 -288h215zM173 766l131 181h119l131 -181h-97l-95 79l-95 -79h-94z" />
    <glyph glyph-name="Ecircumflex" unicode="&#xca;" horiz-adv-x="591" 
d="M65 0v732h487v-129h-340v-163h268v-129h-268v-185h340v-126h-487zM103 780l131 181h119l131 -181h-97l-95 79l-95 -79h-94z" />
    <glyph glyph-name="Aacute" unicode="&#xc1;" horiz-adv-x="731" 
d="M210 132l-49 -132h-147l284 737h135l284 -737h-155l-49 132h-303zM469 251l-107 288s-107 -288 -108 -288h215zM285 780l98 199h186l-184 -199h-100z" />
    <glyph glyph-name="Edieresis" unicode="&#xcb;" horiz-adv-x="591" 
d="M65 0v732h487v-129h-340v-163h268v-129h-268v-185h340v-126h-487zM327 784v139h146v-139h-146zM118 784v139h145v-139h-145z" />
    <glyph glyph-name="Egrave" unicode="&#xc8;" horiz-adv-x="591" 
d="M65 0v732h487v-129h-340v-163h268v-129h-268v-185h340v-126h-487zM276 780l-184 199h186l98 -199h-100z" />
    <glyph glyph-name="Iacute" unicode="&#xcd;" horiz-adv-x="291" 
d="M72 0v732h148v-732h-148zM78 780l98 199h186l-184 -199h-100z" />
    <glyph glyph-name="Icircumflex" unicode="&#xce;" horiz-adv-x="291" 
d="M72 0v732h148v-732h-148zM-47 780l131 181h119l131 -181h-97l-95 79l-95 -79h-94z" />
    <glyph glyph-name="Idieresis" unicode="&#xcf;" horiz-adv-x="291" 
d="M72 0v732h148v-732h-148zM177 784v139h146v-139h-146zM-32 784v139h145v-139h-145z" />
    <glyph glyph-name="Igrave" unicode="&#xcc;" horiz-adv-x="291" 
d="M72 0v732h148v-732h-148zM113 780l-184 199h186l98 -199h-100z" />
    <glyph glyph-name="Oacute" unicode="&#xd3;" horiz-adv-x="752" 
d="M375 -12c-200 0 -338 61 -338 378s140 378 340 378s338 -59 338 -376s-140 -380 -340 -380zM377 113c126 0 184 50 184 226v54c0 176 -60 224 -186 224s-184 -46 -184 -222v-54c0 -176 60 -228 186 -228zM290 780l98 199h186l-184 -199h-100z" />
    <glyph glyph-name="Ocircumflex" unicode="&#xd4;" horiz-adv-x="752" 
d="M375 -12c-200 0 -338 61 -338 378s140 378 340 378s338 -59 338 -376s-140 -380 -340 -380zM377 113c126 0 184 50 184 226v54c0 176 -60 224 -186 224s-184 -46 -184 -222v-54c0 -176 60 -228 186 -228zM184 780l131 181h119l131 -181h-97l-95 79l-95 -79h-94z" />
    <glyph glyph-name="apple" unicode="&#xf8ff;" horiz-adv-x="709" 
d="M85 0v76c0 178 104 229 238 229v95h-238v194h71v-128h167v67h-53v192h176v-192h-53v-67h162v128h70v-194h-232v-95c134 0 238 -51 238 -229v-76h-73v72c0 131 -50 162 -165 162v-100h-70v100c-115 0 -165 -31 -165 -162v-72h-73z" />
    <glyph glyph-name="Ograve" unicode="&#xd2;" horiz-adv-x="752" 
d="M375 -12c-200 0 -338 61 -338 378s140 378 340 378s338 -59 338 -376s-140 -380 -340 -380zM377 113c126 0 184 50 184 226v54c0 176 -60 224 -186 224s-184 -46 -184 -222v-54c0 -176 60 -228 186 -228zM362 780l-184 199h186l98 -199h-100z" />
    <glyph glyph-name="Uacute" unicode="&#xda;" horiz-adv-x="730" 
d="M367 -10c-208 0 -309 49 -309 268v474h148v-464c0 -119 48 -145 163 -145s162 20 162 143v466h141v-472c0 -216 -97 -270 -305 -270zM279 780l98 199h186l-184 -199h-100z" />
    <glyph glyph-name="Ucircumflex" unicode="&#xdb;" horiz-adv-x="730" 
d="M367 -10c-208 0 -309 49 -309 268v474h148v-464c0 -119 48 -145 163 -145s162 20 162 143v466h141v-472c0 -216 -97 -270 -305 -270zM177 780l131 181h119l131 -181h-97l-95 79l-95 -79h-94z" />
    <glyph glyph-name="Ugrave" unicode="&#xd9;" horiz-adv-x="730" 
d="M367 -10c-208 0 -309 49 -309 268v474h148v-464c0 -119 48 -145 163 -145s162 20 162 143v466h141v-472c0 -216 -97 -270 -305 -270zM351 780l-184 199h186l98 -199h-100z" />
    <glyph glyph-name="dotlessi" unicode="&#x131;" horiz-adv-x="273" 
d="M66 0v477h141v-477h-141z" />
    <glyph glyph-name="circumflex" unicode="&#x2c6;" horiz-adv-x="466" 
d="M41 540l131 181h119l131 -181h-97l-95 79l-95 -79h-94z" />
    <glyph glyph-name="tilde" unicode="&#x2dc;" horiz-adv-x="465" 
d="M94 528l-65 83c46 39 100 85 141 85c42 0 101 -47 123 -47c17 0 44 24 78 53l65 -83c-46 -39 -98 -85 -142 -85c-41 0 -100 47 -122 47c-17 0 -44 -24 -78 -53z" />
    <glyph glyph-name="macron" unicode="&#xaf;" horiz-adv-x="467" 
d="M64 540v127h340v-127h-340z" />
    <glyph glyph-name="macron" unicode="&#x2c9;" horiz-adv-x="467" 
d="M64 540v127h340v-127h-340z" />
    <glyph glyph-name="breve" unicode="&#x2d8;" horiz-adv-x="467" 
d="M234 532c-54 0 -146 14 -178 35v145h117v-64c14 -8 36 -11 61 -11c24 0 50 3 64 11v64h117v-145c-30 -22 -126 -35 -181 -35z" />
    <glyph glyph-name="dotaccent" unicode="&#x2d9;" horiz-adv-x="467" 
d="M154 540v158h160v-158h-160z" />
    <glyph glyph-name="ring" unicode="&#x2da;" horiz-adv-x="467" 
d="M234 531c-93 0 -136 27 -136 111c0 85 43 114 136 114s136 -29 136 -114c0 -84 -44 -111 -136 -111zM234 588c42 0 53 11 53 54c0 44 -11 57 -53 57s-53 -13 -53 -57c0 -43 11 -54 53 -54z" />
    <glyph glyph-name="cedilla" unicode="&#xb8;" horiz-adv-x="485" 
d="M163 -211l-23 102c39 7 79 20 91 28l-16 91l93 19l31 -168c-23 -24 -88 -56 -176 -72z" />
    <glyph glyph-name="hungarumlaut" unicode="&#x2dd;" horiz-adv-x="464" 
d="M198 540l98 199h158l-180 -199h-76zM10 540l98 199h158l-180 -199h-76z" />
    <glyph glyph-name="ogonek" unicode="&#x2db;" horiz-adv-x="485" 
d="M307 -211c-89 16 -153 48 -176 72l31 168l92 -19l-16 -91c13 -8 53 -21 92 -28z" />
    <glyph glyph-name="caron" unicode="&#x2c7;" horiz-adv-x="466" 
d="M175 540l-131 181h97l95 -79l95 79h94l-131 -181h-119z" />
    <glyph glyph-name="period.lftab" horiz-adv-x="350" 
d="M83 0v160h182v-160h-182z" />
    <glyph glyph-name="minus.lftab" 
d="M126 286v107h447v-107h-447z" />
    <glyph glyph-name="multiply.lftab" 
d="M211 129l-71 71l138 139l-138 138l71 71l139 -138l138 138l71 -71l-138 -138l138 -139l-71 -71l-138 138z" />
    <glyph glyph-name="numbersign.lftab" 
d="M115 -20l37 222h-81v107h99l19 114h-118v107h136l37 222h111l-37 -222h117l37 222h111l-37 -222h82v-107h-100l-19 -114h119v-107h-137l-38 -222h-110l37 222h-117l-37 -222h-111zM275 303h127l21 126h-127z" />
    <glyph glyph-name="dollar.lftab" 
d="M412 739c73 -5 144 -15 173 -23l-24 -122c-47 8 -132 20 -219 20c-86 0 -110 -19 -110 -81c0 -61 15 -74 137 -99c191 -37 250 -64 250 -225c0 -135 -52 -201 -207 -214v-110h-118v108c-104 4 -181 18 -206 23l22 124c25 -6 153 -23 230 -23c108 0 131 19 131 91
c0 60 -16 73 -140 99c-199 40 -245 74 -245 232c0 125 62 189 208 200v95h118v-95z" />
    <glyph glyph-name="plus.lftab" 
d="M294 115v171h-168v107h168v170h111v-170h168v-107h-168v-171h-111z" />
    <glyph glyph-name="zero.lftab" 
d="M349 -12c-215 0 -296 85 -296 378s82 378 298 378c215 0 296 -83 296 -376s-83 -380 -298 -380zM351 113c114 0 147 48 147 213v80c0 165 -35 211 -149 211s-147 -44 -147 -209v-80c0 -165 35 -215 149 -215z" />
    <glyph glyph-name="one.lftab" 
d="M304 120v489h-187v123h334v-612h184v-120h-518v120h187z" />
    <glyph glyph-name="two.lftab" 
d="M83 0v111l214 184c136 123 149 131 149 225c0 70 -26 95 -135 95c-85 0 -172 -13 -198 -20l-20 125c48 13 143 24 220 24c213 0 275 -52 275 -216c0 -133 -30 -164 -185 -298l-124 -110h332v-120h-528z" />
    <glyph glyph-name="three.lftab" 
d="M103 -12l-9 122c208 7 305 21 344 51c24 18 30 50 30 86c0 35 -8 63 -29 79c-35 27 -100 33 -174 41v92l147 145h-329v128h483v-127l-157 -155c58 -11 111 -29 143 -56c43 -33 57 -82 57 -151c0 -68 -11 -121 -48 -156c-55 -62 -184 -92 -458 -99z" />
    <glyph glyph-name="four.lftab" 
d="M412 0v143h-357v136l281 455h147l-289 -470h218v196h141v-196h84v-121h-84v-143h-141z" />
    <glyph glyph-name="five.lftab" 
d="M113 -12l-9 122c209 7 306 19 345 50c24 17 30 51 30 87c0 35 -8 65 -29 81c-35 27 -140 51 -353 56l10 348h469v-129h-345l-4 -110c189 -12 285 -42 334 -83c47 -39 58 -94 58 -167c0 -68 -11 -122 -48 -157c-54 -63 -183 -91 -458 -98z" />
    <glyph glyph-name="six.lftab" 
d="M352 -11c-254 0 -282 90 -282 331v66c0 132 14 205 75 256c58 51 186 84 402 103l15 -121c-217 -26 -288 -44 -324 -77c-29 -26 -26 -74 -26 -121c33 9 125 24 189 24c188 0 235 -35 235 -220c0 -154 -40 -241 -284 -241zM354 102c113 0 141 25 141 125
c0 85 -13 112 -106 112c-73 0 -135 -11 -177 -20v-63c0 -120 26 -154 142 -154z" />
    <glyph glyph-name="seven.lftab" 
d="M180 0l292 603h-390v129h540v-130l-280 -602h-162z" />
    <glyph glyph-name="eight.lftab" 
d="M346 -11c-224 0 -296 52 -296 201c0 114 21 143 147 196c-97 46 -115 86 -115 171c0 145 75 187 265 187c192 0 277 -42 277 -187c0 -87 -9 -117 -116 -167c118 -50 141 -86 141 -200c0 -149 -79 -201 -303 -201zM396 432c89 39 90 50 90 122c0 58 -47 69 -140 69
c-90 0 -121 -11 -121 -69c0 -57 22 -64 137 -108zM346 108c113 0 157 18 157 85c0 74 -16 80 -178 142l-23 10c-107 -47 -111 -56 -111 -152c0 -67 45 -85 155 -85z" />
    <glyph glyph-name="nine.lftab" 
d="M152 -13l-15 119c217 21 288 46 324 79c28 27 26 76 26 122c-33 -9 -125 -24 -189 -24c-180 0 -235 36 -235 220c0 154 40 241 284 241c254 0 282 -90 282 -331v-66c0 -132 -14 -203 -75 -254c-56 -49 -187 -87 -402 -106zM310 395c73 0 135 10 177 19v63
c0 120 -26 152 -142 152c-113 0 -141 -23 -141 -123c0 -85 13 -111 106 -111z" />
    <glyph glyph-name="less.lftab" 
d="M373 118l-201 216l201 220h135l-202 -220l202 -216h-135z" />
    <glyph glyph-name="equal.lftab" 
d="M149 382v100h402v-100h-402zM149 194v100h402v-100h-402z" />
    <glyph glyph-name="greater.lftab" 
d="M192 118l202 220l-202 216h135l201 -216l-201 -220h-135z" />
    <glyph glyph-name="cent.lftab" 
d="M428 622c44 -2 88 -9 117 -16l-21 -112c-30 6 -69 13 -125 13c-82 0 -110 -24 -110 -134c0 -109 30 -141 112 -141c48 0 85 7 123 16l21 -108c-32 -10 -75 -17 -117 -19v-121h-116v126c-114 17 -165 82 -165 245c0 162 51 227 165 246v121h116v-116z" />
    <glyph glyph-name="sterling.lftab" 
d="M79 0v126h135c-12 48 -26 107 -42 182h-93v114h68c-7 43 -15 91 -15 119c0 140 62 204 261 204c82 0 153 -9 216 -25l-24 -125c-33 7 -117 21 -192 21c-88 0 -114 -18 -114 -84c0 -27 5 -69 12 -110h200v-114h-175c14 -72 27 -128 41 -182h258v-126h-536z" />
    <glyph glyph-name="yen.lftab" 
d="M517 434h139v-95h-196l-39 -66v-8h235v-95h-235v-170h-148v170h-236v95h236v5l-40 69h-196v95h141l-172 298h167l185 -326l186 326h150z" />
    <glyph glyph-name="florin.lftab" 
d="M159 -144l77 455h-91v114h110l21 129c20 119 48 149 242 178l19 -116c-110 -22 -116 -31 -127 -95l-15 -96h119v-114h-138l-77 -455h-140z" />
    <glyph glyph-name="divide.lftab" 
d="M280 448v134h137v-134h-137zM126 286v107h447v-107h-447zM280 95v135h137v-135h-137z" />
    <glyph glyph-name="Euro.lftab" 
d="M438 -10c-151 0 -256 49 -286 239h-108v96h98c0 25 -1 53 0 79h-98v95h107c32 194 140 244 289 244c111 0 161 -15 195 -23l-25 -124c-62 10 -97 18 -172 18c-79 0 -124 -30 -139 -115h201v-95h-212v-79h212v-96h-200c18 -81 61 -113 140 -113c90 0 149 14 170 19
l25 -120c-29 -8 -81 -25 -197 -25z" />
    <glyph glyph-name="comma.lftab" horiz-adv-x="350" 
d="M131 -143l-73 39l43 264h187z" />
    <glyph glyph-name="endash.lftab" 
d="M133 226v114h433v-114h-433z" />
    <glyph glyph-name="colon.lftab" horiz-adv-x="350" 
d="M85 318v160h179v-160h-179zM85 0v160h179v-160h-179z" />
    <glyph glyph-name="semicolon.lftab" horiz-adv-x="350" 
d="M85 318v160h179v-160h-179zM130 -143l-70 39l43 264h184z" />
    <glyph glyph-name="hyphen.lftab" 
d="M169 246v114h363v-114h-363z" />
    <glyph glyph-name="perthousand.lftab" horiz-adv-x="1050" 
d="M156 373c-100 0 -156 32 -156 182c0 149 57 184 158 184c100 0 156 -33 156 -183c0 -149 -57 -183 -158 -183zM136 0l339 732h89l-339 -732h-89zM892 -7c-100 0 -156 33 -156 182c0 150 58 184 158 184s156 -33 156 -182s-57 -184 -158 -184zM542 -7
c-100 0 -156 33 -156 182c0 150 57 184 157 184c101 0 157 -33 157 -182s-57 -184 -158 -184zM158 453c41 0 55 18 55 86v32c0 68 -15 86 -57 86s-56 -17 -56 -85v-31c0 -69 16 -88 58 -88zM894 73c42 0 56 18 56 86v32c0 68 -15 86 -58 86c-41 0 -56 -16 -56 -84v-32
c0 -68 16 -88 58 -88zM543 73c42 0 56 18 56 86v32c0 68 -15 86 -57 86s-56 -16 -56 -84v-32c0 -68 16 -88 57 -88z" />
    <glyph glyph-name="brokenbar.lftab" 
d="M291 366v424h116v-424h-116zM291 -200v424h116v-424h-116z" />
    <glyph glyph-name="percent.lftab" 
d="M156 373c-100 0 -156 32 -156 182c0 149 57 184 158 184c100 0 156 -33 156 -183c0 -149 -57 -183 -158 -183zM136 0l339 732h89l-339 -732h-89zM542 -7c-100 0 -156 33 -156 182c0 150 57 184 157 184c101 0 157 -33 157 -182s-57 -184 -158 -184zM158 453
c41 0 55 18 55 86v32c0 68 -15 86 -57 86s-56 -17 -56 -85v-31c0 -69 16 -88 58 -88zM543 73c42 0 56 18 56 86v32c0 68 -15 86 -57 86s-56 -16 -56 -84v-32c0 -68 16 -88 57 -88z" />
    <glyph glyph-name="slash.lftab" 
d="M159 0l255 732h126l-255 -732h-126z" />
    <glyph glyph-name="G.alt" horiz-adv-x="669" 
d="M363 -10c-202 0 -326 59 -326 376s128 377 332 377c120 0 196 -14 229 -23l-22 -127c-55 10 -131 21 -209 21c-132 0 -176 -52 -176 -219v-54c0 -163 40 -229 182 -229c46 0 86 5 108 9v148h-117v120h254v-369c-35 -10 -130 -30 -255 -30z" />
    <glyph glyph-name="NUL" horiz-adv-x="0" 
 />
    <glyph glyph-name="currency" unicode="&#xa4;" horiz-adv-x="651" 
d="M414 -10c-151 0 -256 49 -286 239h-108v96h98c0 25 -1 53 0 79h-98v95h107c32 194 140 244 289 244c111 0 161 -15 195 -23l-25 -124c-62 10 -97 18 -172 18c-79 0 -124 -30 -139 -115h201v-95h-212v-79h212v-96h-200c18 -81 61 -113 140 -113c90 0 149 14 170 19
l25 -120c-29 -8 -81 -25 -197 -25z" />
    <glyph glyph-name="g.alt" horiz-adv-x="562" 
d="M44 -205l-1 113c332 2 359 7 359 55c0 45 -11 53 -300 60l20 142c-84 24 -102 59 -102 153c0 132 40 172 240 172c51 0 95 -3 124 -9l32 71l119 -52l-45 -101c5 -15 11 -50 11 -80c0 -132 -36 -164 -242 -167h-19l-6 -46c258 -9 306 -26 306 -144
c0 -143 -61 -165 -496 -167zM259 240c86 0 104 6 104 75c0 28 -4 52 -8 69c-24 4 -56 7 -100 7c-79 0 -98 -10 -98 -76s17 -75 102 -75z" />
    <glyph glyph-name="a.alt" horiz-adv-x="581" 
d="M191 -10c-95 0 -153 49 -153 249s62 249 158 249c79 0 159 -31 188 -46l17 35h119v-477h-122l-14 52c-30 -19 -114 -62 -193 -62zM254 113c54 0 96 18 125 32v203c-23 9 -69 24 -125 24c-49 0 -73 -22 -73 -131c0 -111 21 -128 73 -128z" />
    </font>
</defs>
</svg>
