<?xml version="1.0" standalone="no"?>
<!DOCTYPE svg PUBLIC "-//W3C//DTD SVG 1.1//EN" "http://www.w3.org/Graphics/SVG/1.1/DTD/svg11.dtd" >
<svg xmlns="http://www.w3.org/2000/svg" xmlns:xlink="http://www.w3.org/1999/xlink" version="1.1">
<metadata>
Created by FontForge 20170910 at Wed Oct 24 12:56:05 2007
 By Jimmy Wärting
Copyright (c) The Font Bureau, Inc., 2003. All rights reserved.
</metadata>
<defs>
<font id="Stainless-Regular" horiz-adv-x="700" >
  <font-face 
    font-family="Stainless Regular"
    font-weight="400"
    font-stretch="normal"
    units-per-em="1000"
    panose-1="2 0 5 3 4 0 0 2 0 4"
    ascent="795"
    descent="-205"
    x-height="470"
    cap-height="729"
    bbox="-82 -204 1334 960"
    underline-thickness="20"
    underline-position="-133"
    stemh="79"
    stemv="93"
    unicode-range="U+0020-FB02"
  />
<missing-glyph horiz-adv-x="500" 
 />
    <glyph glyph-name="fi" unicode="fi" horiz-adv-x="602" 
d="M107 0v383h-79v87h79v91c0 111 50 151 311 190l14 -89c-207 -33 -223 -52 -223 -111v-81h324v-470h-102v384h-222v-384h-102z" />
    <glyph glyph-name="fl" unicode="fl" horiz-adv-x="602" 
d="M107 0v383h-79v87h79v96c0 108 28 152 189 184l23 -91c-99 -22 -110 -39 -110 -101v-88h111v-87h-111v-383h-102zM431 0v749h102v-749h-102z" />
    <glyph glyph-name="f_f" unicode="ff" horiz-adv-x="680" 
d="M107 0v383h-79v87h79v65c0 108 23 149 208 183l19 -92c-117 -24 -125 -40 -125 -102v-54h225v98c0 107 23 149 209 182l18 -91c-117 -24 -125 -40 -125 -103v-86h118v-87h-118v-383h-102v383h-225v-383h-102z" />
    <glyph glyph-name="f_f_i" unicode="ffi" horiz-adv-x="929" 
d="M107 0v383h-79v87h79v65c0 108 23 149 208 183l19 -92c-117 -24 -125 -40 -125 -102v-54h225v91c0 111 50 151 311 190l14 -89c-207 -33 -223 -52 -223 -111v-81h324v-470h-101v384h-223v-384h-102v384h-225v-384h-102z" />
    <glyph glyph-name="f_f_l" unicode="ffl" horiz-adv-x="929" 
d="M107 0v383h-79v87h79v65c0 108 23 149 208 183l19 -92c-117 -24 -125 -40 -125 -102v-54h225v96c0 108 28 152 190 184l22 -91c-99 -22 -110 -39 -110 -101v-88h111v-87h-111v-383h-102v383h-225v-383h-102zM759 0v749h101v-749h-101z" />
    <glyph glyph-name="f_j" unicode="fj" horiz-adv-x="602" 
d="M324 -199l-17 90c116 24 125 41 125 105v388h-223v-384h-102v383h-79v87h79v91c0 111 50 151 311 190l14 -89c-207 -33 -223 -52 -223 -111v-81h324v-488c0 -108 -27 -152 -209 -181z" />
    <glyph glyph-name="f_t" unicode="ft" horiz-adv-x="703" 
d="M548 -5c-80 0 -114 42 -114 137v251h-225v-383h-102v383h-79v87h79v98c0 107 23 149 208 182l19 -91c-117 -24 -125 -40 -125 -103v-86h225v159l101 20v-179h121v-87h-121v-232c0 -56 13 -69 41 -69c19 0 41 1 81 6l6 -84c-45 -7 -83 -9 -115 -9z" />
    <glyph glyph-name=".notdef" horiz-adv-x="500" 
 />
    <glyph glyph-name="Eth" unicode="&#xd0;" horiz-adv-x="715" 
d="M112 335h-83v81h83v313h256c196 0 307 -61 307 -365s-111 -364 -307 -364c-148 0 -256 -1 -256 -1v336zM216 416h119v-81h-119v-252h151c131 0 198 58 198 257v48c0 200 -67 256 -198 256h-151v-228z" />
    <glyph glyph-name="eth" unicode="&#xf0;" horiz-adv-x="556" 
d="M393 545h-105v85h82c-9 30 -20 60 -33 93l96 26c6 -12 24 -55 42 -119h90v-85h-70c13 -63 22 -139 22 -221c0 -235 -29 -336 -240 -336c-120 0 -235 28 -235 256s89 237 172 237c58 0 142 -20 197 -48c-5 40 -10 76 -18 112zM280 73c128 0 136 70 136 228
c0 13 0 33 -1 45c-45 25 -115 44 -164 44c-77 0 -106 -18 -106 -146c0 -137 43 -171 135 -171z" />
    <glyph glyph-name="Lslash" unicode="&#x141;" horiz-adv-x="605" 
d="M104 300l-75 -27v81l75 27v348h105v-311l126 45v-81l-126 -45v-249h375v-88h-480v300z" />
    <glyph glyph-name="lslash" unicode="&#x142;" horiz-adv-x="335" 
d="M118 308l-92 -35v81l92 35v360h101v-321l91 35v-81l-91 -35v-347h-101v308z" />
    <glyph glyph-name="Scaron" unicode="&#x160;" horiz-adv-x="601" 
d="M284 -6c-96 0 -201 19 -237 31l17 90c35 -9 147 -29 221 -29c113 0 159 18 159 115c0 84 -28 94 -152 121c-189 42 -239 73 -239 220c0 141 90 195 250 195c92 0 191 -16 219 -24l-17 -90c-33 6 -124 20 -204 20c-96 0 -141 -22 -141 -100c0 -85 30 -98 156 -126
c162 -35 237 -60 237 -215c0 -163 -94 -208 -269 -208zM255 778l-126 166h72l101 -82l100 82h70l-126 -166h-91z" />
    <glyph glyph-name="scaron" unicode="&#x161;" horiz-adv-x="476" 
d="M226 -9c-67 0 -149 13 -181 24l13 77c27 -8 110 -23 169 -23c90 0 111 14 111 69c0 40 -19 48 -101 60c-148 21 -187 38 -187 148c0 105 66 140 193 140c72 0 148 -9 175 -16l-14 -78c-32 6 -115 15 -163 15c-71 0 -93 -15 -93 -58c0 -47 19 -52 121 -64
c133 -16 170 -45 170 -141c0 -129 -73 -153 -213 -153zM193 538l-126 166h72l101 -82l100 82h70l-126 -166h-91z" />
    <glyph glyph-name="Yacute" unicode="&#xdd;" horiz-adv-x="684" 
d="M290 0v281l-273 448h114l214 -349l214 349h108l-273 -447v-282h-104zM274 778l91 182h151l-174 -182h-68z" />
    <glyph glyph-name="yacute" unicode="&#xfd;" horiz-adv-x="503" 
d="M204 7l-189 463h108s136 -343 136 -344l132 344h96l-262 -670h-102zM185 538l91 182h151l-174 -182h-68z" />
    <glyph glyph-name="Thorn" unicode="&#xde;" horiz-adv-x="623" 
d="M71 0v729h104v-134h199c142 0 220 -45 220 -220c0 -176 -80 -223 -222 -223h-197v-152h-104zM175 239h199c64 0 116 17 116 134c0 116 -54 134 -118 134h-197v-268z" />
    <glyph glyph-name="thorn" unicode="&#xfe;" horiz-adv-x="555" 
d="M64 -200v949h101v-324c27 15 111 56 195 56c80 0 153 -27 153 -243c0 -217 -78 -246 -158 -246s-163 31 -190 42v-234h-101zM320 79c63 0 89 27 89 157s-25 155 -88 155c-57 0 -123 -25 -156 -41v-239c27 -10 98 -32 155 -32z" />
    <glyph glyph-name="Zcaron" unicode="&#x17d;" horiz-adv-x="603" 
d="M31 0v84l405 551h-396v94h522v-90l-401 -547h407v-92h-537zM257 778l-126 166h72l101 -82l100 82h70l-126 -166h-91z" />
    <glyph glyph-name="zcaron" unicode="&#x17e;" horiz-adv-x="462" 
d="M28 0v74l271 312h-259v84h384v-74l-268 -312h282v-84h-410zM186 538l-126 166h72l101 -82l100 82h70l-126 -166h-91z" />
    <glyph glyph-name="onehalf" unicode="&#xbd;" horiz-adv-x="922" 
d="M143 264v383h-78v82h167v-465h-89zM207 0l281 729h90l-281 -729h-90zM519 0v68l124 118c90 88 97 88 97 149c0 40 -18 53 -77 53c-45 0 -92 -7 -127 -15l-15 79c39 11 97 20 143 20c125 0 166 -39 166 -134c0 -89 -23 -105 -122 -199l-58 -59h194v-80h-325z" />
    <glyph glyph-name="onequarter" unicode="&#xbc;" horiz-adv-x="863" 
d="M143 264v383h-78v82h167v-465h-89zM207 0l281 729h90l-281 -729h-90zM675 0v97h-221v79l175 290h95l-175 -290h126v119h88v-119h52v-79h-52v-97h-88z" />
    <glyph glyph-name="onesuperior" unicode="&#xb9;" horiz-adv-x="330" 
d="M143 264v383h-78v82h167v-465h-89z" />
    <glyph glyph-name="threequarters" unicode="&#xbe;" horiz-adv-x="949" 
d="M68 257l-5 82c124 4 184 12 210 29c15 10 17 33 17 56c0 21 -2 44 -16 52c-25 16 -68 19 -113 23v61l91 88h-199v81h301v-75l-98 -96c29 -6 55 -13 72 -25c36 -22 49 -58 49 -110c0 -53 -12 -91 -45 -114c-37 -30 -115 -48 -264 -52zM293 0l280 729h90l-281 -729h-89z
M761 0v97h-222v79l175 290h96l-176 -290h127v119h87v-119h52v-79h-52v-97h-87z" />
    <glyph glyph-name="threesuperior" unicode="&#xb3;" horiz-adv-x="440" 
d="M68 257l-5 82c124 4 184 12 210 29c15 10 17 33 17 56c0 21 -2 44 -16 52c-25 16 -68 19 -113 23v61l91 88h-199v81h301v-75l-98 -96c29 -6 55 -13 72 -25c36 -22 49 -58 49 -110c0 -53 -12 -91 -45 -114c-37 -30 -115 -48 -264 -52z" />
    <glyph glyph-name="twosuperior" unicode="&#xb2;" horiz-adv-x="432" 
d="M51 263v69l124 117c90 88 96 88 96 149c0 40 -17 54 -77 54c-44 0 -91 -8 -126 -16l-15 79c39 11 97 20 143 20c125 0 165 -38 165 -133c0 -90 -23 -106 -121 -200l-58 -58h194v-81h-325z" />
    <glyph glyph-name="brokenbar" unicode="&#xa6;" horiz-adv-x="337" 
d="M127 365v425h83v-425h-83zM127 -200v425h83v-425h-83z" />
    <glyph glyph-name="minus" unicode="&#x2212;" horiz-adv-x="516" 
d="M55 294v83h406v-83h-406z" />
    <glyph glyph-name="multiply" unicode="&#xd7;" horiz-adv-x="513" 
d="M129 150l-57 56l128 129l-128 128l57 57l128 -129l128 129l56 -57l-127 -128l127 -129l-56 -56l-128 128z" />
    <glyph glyph-name="space" unicode=" " horiz-adv-x="256" 
 />
    <glyph glyph-name="space" unicode="&#xa0;" horiz-adv-x="256" 
 />
    <glyph glyph-name="exclam" unicode="!" horiz-adv-x="310" 
d="M116 209l-26 520h132l-27 -520h-79zM87 0v128h136v-128h-136z" />
    <glyph glyph-name="quotedbl" unicode="&#x22;" horiz-adv-x="440" 
d="M278 481l-26 248h133l-26 -248h-81zM81 481l-25 248h133l-26 -248h-82z" />
    <glyph glyph-name="numbersign" unicode="#" horiz-adv-x="583" 
d="M78 -20l40 238h-86v82h99l22 128h-121v83h135l40 238h84l-40 -238h130l39 238h84l-40 -238h88v-83h-102l-21 -128h123v-82h-137l-40 -238h-83l39 238h-129l-40 -238h-84zM211 296h137l23 136h-137z" />
    <glyph glyph-name="dollar" unicode="$" horiz-adv-x="592" 
d="M254 -6c-108 3 -180 17 -204 23l16 91c24 -5 112 -18 190 -21v244c-165 40 -208 76 -208 212c0 114 50 184 206 193v101h87v-101c77 -3 144 -14 176 -23l-18 -88c-27 5 -91 14 -159 18v-231c146 -33 211 -70 211 -209c0 -131 -52 -197 -210 -207v-118h-87v116zM256 643
c-79 -5 -102 -32 -102 -101c0 -64 13 -86 102 -110v211zM340 88c81 7 104 35 104 113c0 64 -17 86 -104 109c0 1 0 -222 0 -222z" />
    <glyph glyph-name="percent" unicode="%" horiz-adv-x="941" 
d="M204 275c-115 0 -182 45 -182 232s69 234 184 234s182 -45 182 -232s-69 -234 -184 -234zM300 0l253 729h90l-254 -729h-89zM736 -12c-115 0 -182 45 -182 232s69 234 184 234s182 -45 182 -232s-69 -234 -184 -234zM206 352c61 0 88 30 88 131v48c0 102 -29 132 -90 132
s-88 -28 -88 -130v-48c0 -101 29 -133 90 -133zM738 65c61 0 88 30 88 131v48c0 102 -29 132 -90 132s-88 -28 -88 -130v-48c0 -101 29 -133 90 -133z" />
    <glyph glyph-name="ampersand" unicode="&#x26;" horiz-adv-x="718" 
d="M542 178l155 -178h-123l-78 89c-48 -79 -88 -99 -172 -99c-183 0 -280 27 -280 229c0 122 52 168 172 194c-53 66 -73 107 -73 161c0 124 62 167 210 167c81 0 161 -15 192 -24l-16 -90c-35 8 -117 21 -180 21c-91 0 -106 -22 -106 -74c0 -50 24 -79 129 -200l108 -125
l82 170h96s-116 -240 -116 -241zM436 158l-169 194c-101 -21 -126 -51 -126 -134c0 -124 54 -140 177 -140c55 0 80 11 118 80z" />
    <glyph glyph-name="quotesingle" unicode="'" horiz-adv-x="245" 
d="M81 481l-25 248h133l-26 -248h-82z" />
    <glyph glyph-name="parenleft" unicode="(" horiz-adv-x="360" 
d="M332 -130c-226 3 -293 50 -293 438s67 438 293 441v-89c-159 0 -201 -24 -201 -352c0 -326 42 -350 201 -350v-88z" />
    <glyph glyph-name="parenright" unicode=")" horiz-adv-x="360" 
d="M29 -130v88c159 0 201 24 201 350c0 328 -43 352 -202 352v89c227 -3 294 -53 294 -441s-68 -435 -293 -438z" />
    <glyph glyph-name="asterisk" unicode="*" horiz-adv-x="439" 
d="M181 325l6 149l-121 -80l-37 69l126 71l-125 70l38 69l119 -80l-5 148h76l-6 -149l120 80l39 -70l-126 -69l125 -70l-38 -69l-120 80l4 -149h-75z" />
    <glyph glyph-name="plus" unicode="+" horiz-adv-x="516" 
d="M215 132v162h-160v83h160v162h87v-162h159v-83h-159v-162h-87z" />
    <glyph glyph-name="comma" unicode="," horiz-adv-x="274" 
d="M80 -149l-53 30l52 254h152z" />
    <glyph glyph-name="hyphen" unicode="-" horiz-adv-x="386" 
d="M55 229v90h277v-90h-277z" />
    <glyph glyph-name="hyphen" unicode="&#xad;" horiz-adv-x="386" 
d="M55 229v90h277v-90h-277z" />
    <glyph glyph-name="period" unicode="." horiz-adv-x="274" 
d="M65 0v135h144v-135h-144z" />
    <glyph glyph-name="slash" unicode="/" horiz-adv-x="336" 
d="M-4 0l253 729h91l-253 -729h-91z" />
    <glyph glyph-name="zero" unicode="0" horiz-adv-x="641" 
d="M320 -11c-196 0 -281 82 -281 375s87 377 283 377c195 0 281 -82 281 -375s-88 -377 -283 -377zM322 81c124 0 174 57 174 243v80c0 186 -52 244 -176 244s-174 -56 -174 -242v-80c0 -186 52 -245 176 -245z" />
    <glyph glyph-name="one" unicode="1" horiz-adv-x="331" 
d="M154 0v638h-130v91h234v-729h-104z" />
    <glyph glyph-name="two" unicode="2" horiz-adv-x="570" 
d="M35 0v82l200 190c157 154 168 156 168 266c0 79 -32 109 -152 109c-76 0 -157 -13 -193 -22l-16 90c47 13 137 26 211 26c190 0 254 -55 254 -199c0 -142 -35 -167 -192 -318l-139 -134h355v-90h-496z" />
    <glyph glyph-name="three" unicode="3" horiz-adv-x="562" 
d="M54 -12l-7 90c192 8 293 24 338 54c29 20 37 63 37 109c0 45 -9 84 -37 103c-43 29 -117 37 -181 41v75l167 175h-341v94h456v-93l-174 -182c45 -7 104 -22 141 -47c53 -33 72 -87 72 -167s-16 -138 -67 -173c-60 -47 -186 -73 -404 -79z" />
    <glyph glyph-name="four" unicode="4" horiz-adv-x="608" 
d="M391 0v163h-369v103l283 466h107l-290 -478h269v215h102v-215h87v-91h-87v-163h-102z" />
    <glyph glyph-name="five" unicode="5" horiz-adv-x="568" 
d="M61 -12l-7 90c192 8 294 21 338 51c30 20 38 66 38 112c0 45 -9 88 -37 107c-42 28 -136 49 -346 56l10 325h435v-94h-343l-5 -150c176 -8 267 -34 318 -69c54 -36 71 -94 71 -176c0 -80 -17 -141 -67 -176c-60 -47 -187 -70 -405 -76z" />
    <glyph glyph-name="six" unicode="6" horiz-adv-x="607" 
d="M307 -11c-231 0 -267 93 -267 290v120c0 121 12 189 63 237c56 55 181 87 387 106l11 -89c-202 -23 -287 -44 -327 -82c-34 -33 -31 -95 -31 -148c45 12 136 29 204 29c173 0 230 -49 230 -214c0 -154 -36 -249 -270 -249zM309 77c132 0 165 30 165 160
c0 95 -30 127 -133 127c-77 0 -152 -15 -198 -26v-89c0 -137 41 -172 166 -172z" />
    <glyph glyph-name="seven" unicode="7" horiz-adv-x="560" 
d="M144 0l286 635h-407v94h516v-93l-280 -636h-115z" />
    <glyph glyph-name="eight" unicode="8" horiz-adv-x="636" 
d="M315 -10c-192 0 -281 43 -281 189c0 131 22 153 157 209c-104 46 -125 85 -125 178c0 136 94 175 250 175c159 0 258 -39 258 -175c0 -103 -16 -130 -128 -178c126 -50 156 -83 156 -209c0 -146 -96 -189 -287 -189zM355 422c117 48 117 57 117 143c0 69 -58 85 -157 85
c-96 0 -145 -16 -145 -85c0 -84 32 -91 160 -135zM315 80c117 0 182 20 182 100c0 104 -29 116 -202 169l-18 6c-132 -55 -139 -63 -139 -175c0 -80 61 -100 177 -100z" />
    <glyph glyph-name="nine" unicode="9" horiz-adv-x="607" 
d="M117 -12l-11 88c202 21 287 45 327 82c34 34 31 97 31 149c-45 -12 -136 -28 -204 -28c-173 0 -231 48 -231 213c0 155 37 249 271 249c231 0 267 -93 267 -290v-120c0 -120 -12 -188 -63 -236c-55 -54 -181 -88 -387 -107zM267 366c77 0 152 15 197 26v89
c0 138 -41 172 -166 172c-132 0 -165 -30 -165 -160c0 -95 30 -127 134 -127z" />
    <glyph glyph-name="colon" unicode=":" horiz-adv-x="273" 
d="M65 336v134h143v-134h-143zM65 0v135h143v-135h-143z" />
    <glyph glyph-name="semicolon" unicode=";" horiz-adv-x="273" 
d="M65 336v134h143v-134h-143zM79 -149l-52 30l52 254h151z" />
    <glyph glyph-name="less" unicode="&#x3c;" horiz-adv-x="385" 
d="M225 120l-196 208l196 210h107l-197 -210l197 -208h-107z" />
    <glyph glyph-name="equal" unicode="=" horiz-adv-x="476" 
d="M58 385v80h360v-80h-360zM58 204v80h360v-80h-360z" />
    <glyph glyph-name="greater" unicode="&#x3e;" horiz-adv-x="385" 
d="M52 120l197 210l-197 208h107l196 -208l-196 -210h-107z" />
    <glyph glyph-name="question" unicode="?" horiz-adv-x="551" 
d="M195 209v153c202 78 229 98 229 188c0 73 -39 98 -162 98c-74 0 -147 -9 -211 -23l-18 90c44 13 142 27 229 27c200 0 267 -49 267 -186c0 -121 -41 -169 -234 -245v-102h-100zM175 0v128h136v-128h-136z" />
    <glyph glyph-name="at" unicode="@" horiz-adv-x="977" 
d="M489 -190c-339 0 -442 96 -442 435s103 436 442 436s442 -102 442 -405c0 -228 -74 -279 -364 -279l-14 56c-47 -30 -113 -61 -176 -61c-95 0 -164 38 -122 257c39 209 94 231 168 231c63 0 159 -30 199 -48l25 38h78l-74 -397c164 0 205 38 205 204
c0 270 -90 331 -367 331s-367 -53 -367 -362c0 -310 91 -363 367 -363h108v-73h-108zM412 78c50 0 115 30 151 60l40 217c-33 15 -106 37 -155 37c-43 0 -67 -22 -91 -144c-26 -135 -15 -170 55 -170z" />
    <glyph glyph-name="A" unicode="A" horiz-adv-x="690" 
d="M179 157l-59 -157h-103l281 734h94l281 -734h-108l-59 157h-327zM472 246l-129 342l-130 -342h259z" />
    <glyph glyph-name="B" unicode="B" horiz-adv-x="651" 
d="M71 0v729h284c149 0 233 -38 233 -193c0 -90 -34 -141 -104 -157c76 -12 123 -69 123 -176c0 -147 -79 -203 -233 -203h-303zM174 413h181c69 0 129 15 129 113s-61 113 -129 113h-181v-226zM174 88h200c69 0 129 22 129 120c0 99 -60 121 -129 121h-200v-241z" />
    <glyph glyph-name="C" unicode="C" horiz-adv-x="594" 
d="M347 -10c-176 0 -307 46 -307 374s133 377 309 377c105 0 172 -16 203 -25l-19 -90c-41 8 -108 20 -186 20c-136 0 -197 -52 -197 -254v-51c0 -198 63 -259 199 -259c85 0 164 17 185 23l19 -90c-42 -13 -107 -25 -206 -25z" />
    <glyph glyph-name="D" unicode="D" horiz-adv-x="674" 
d="M71 0v729h253c197 0 310 -61 310 -365s-113 -364 -310 -364h-253zM175 88h148c130 0 201 53 201 252v48c0 200 -71 251 -201 251h-148v-551z" />
    <glyph glyph-name="E" unicode="E" horiz-adv-x="564" 
d="M71 0v729h452v-94h-348v-208h270v-93h-270v-242h348v-92h-452z" />
    <glyph glyph-name="F" unicode="F" horiz-adv-x="545" 
d="M71 0v729h453v-94h-349v-257h264v-91h-264v-287h-104z" />
    <glyph glyph-name="G" unicode="G" horiz-adv-x="644" 
d="M347 -10c-176 0 -307 46 -307 374s133 377 316 377c106 0 185 -15 215 -25l-18 -91c-41 8 -121 21 -199 21c-144 0 -204 -52 -204 -254v-51c0 -198 61 -260 203 -260c68 0 110 7 136 13v259h99v-332c-35 -11 -125 -31 -241 -31z" />
    <glyph glyph-name="H" unicode="H" horiz-adv-x="725" 
d="M71 0v729h104v-296h374v296h104v-729h-104v337h-374v-337h-104z" />
    <glyph glyph-name="I" unicode="I" horiz-adv-x="262" 
d="M79 0v729h105v-729h-105z" />
    <glyph glyph-name="J" unicode="J" horiz-adv-x="502" 
d="M205 -5c-58 0 -136 8 -184 19l13 92c49 -8 119 -18 171 -18c117 0 131 49 131 180v461h104v-471c0 -198 -56 -263 -235 -263z" />
    <glyph glyph-name="K" unicode="K" horiz-adv-x="667" 
d="M176 399l324 330h121l-277 -283l290 -446h-122l-241 372l-95 -97v-275h-105v729h105v-330z" />
    <glyph glyph-name="L" unicode="L" horiz-adv-x="569" 
d="M64 0v729h104v-637h380v-92h-484z" />
    <glyph glyph-name="M" unicode="M" horiz-adv-x="858" 
d="M468 0h-85l-217 519v-519h-95v729h110l248 -590l248 590h110v-729h-102v519z" />
    <glyph glyph-name="N" unicode="N" horiz-adv-x="710" 
d="M71 0v729h102l366 -542v542h100v-729h-91l-377 557v-557h-100z" />
    <glyph glyph-name="O" unicode="O" horiz-adv-x="718" 
d="M358 -11c-182 0 -318 63 -318 375s138 377 320 377s318 -63 318 -375s-138 -377 -320 -377zM360 81c130 0 208 49 208 258v51c0 208 -80 258 -210 258c-129 0 -208 -48 -208 -256v-51c0 -209 81 -260 210 -260z" />
    <glyph glyph-name="P" unicode="P" horiz-adv-x="637" 
d="M71 0v729h279c173 0 256 -58 256 -239c0 -180 -86 -240 -258 -240h-173v-250h-104zM175 339h175c87 0 152 14 152 149c0 136 -68 151 -154 151h-173v-300z" />
    <glyph glyph-name="Q" unicode="Q" horiz-adv-x="718" 
d="M544 31l98 -169h-128l-78 135c-25 -4 -51 -5 -78 -5c-182 0 -318 60 -318 372s138 377 320 377s318 -63 318 -375c0 -191 -53 -288 -134 -335zM388 80l-91 156h128l70 -121c47 36 73 104 73 224v51c0 208 -80 260 -210 260c-129 0 -208 -50 -208 -258v-51
c0 -209 81 -262 210 -262c9 0 19 0 28 1z" />
    <glyph glyph-name="R" unicode="R" horiz-adv-x="665" 
d="M452 279l182 -279h-121l-170 260h-168v-260h-104v729h269c173 0 256 -53 256 -234c0 -138 -51 -195 -144 -216zM175 349h165c93 0 152 15 152 144c0 131 -63 146 -154 146h-163v-290z" />
    <glyph glyph-name="S" unicode="S" horiz-adv-x="601" 
d="M284 -6c-96 0 -201 19 -237 31l17 90c35 -9 147 -29 221 -29c113 0 159 18 159 115c0 84 -28 94 -152 121c-189 42 -239 73 -239 220c0 141 90 195 250 195c92 0 191 -16 219 -24l-17 -90c-33 6 -124 20 -204 20c-96 0 -141 -22 -141 -100c0 -85 30 -98 156 -126
c162 -35 237 -60 237 -215c0 -163 -94 -208 -269 -208z" />
    <glyph glyph-name="T" unicode="T" horiz-adv-x="627" 
d="M262 0v635h-241v94h584v-94h-239v-635h-104z" />
    <glyph glyph-name="U" unicode="U" horiz-adv-x="705" 
d="M354 -10c-192 0 -291 49 -291 268v471h105v-462c0 -141 49 -180 188 -180c138 0 186 32 186 178v464h101v-469c0 -216 -97 -270 -289 -270z" />
    <glyph glyph-name="V" unicode="V" horiz-adv-x="690" 
d="M298 -5l-281 734h108l222 -586l223 586h103l-281 -734h-94z" />
    <glyph glyph-name="W" unicode="W" horiz-adv-x="927" 
d="M221 -5l-204 734h107l147 -535l154 529h84l146 -529l155 535h100l-214 -734h-80l-153 555l-160 -555h-82z" />
    <glyph glyph-name="X" unicode="X" horiz-adv-x="705" 
d="M38 0l249 385l-228 344h122l177 -269l173 269h111l-227 -353l249 -376h-121l-199 301l-195 -301h-111z" />
    <glyph glyph-name="Y" unicode="Y" horiz-adv-x="684" 
d="M290 0v281l-273 448h114l214 -349l214 349h108l-273 -447v-282h-104z" />
    <glyph glyph-name="Z" unicode="Z" horiz-adv-x="603" 
d="M31 0v84l405 551h-396v94h522v-90l-401 -547h407v-92h-537z" />
    <glyph glyph-name="bracketleft" unicode="[" horiz-adv-x="309" 
d="M65 -130v879h217v-89h-126v-702h126v-88h-217z" />
    <glyph glyph-name="backslash" unicode="\" horiz-adv-x="336" 
d="M249 0l-253 729h91l253 -729h-91z" />
    <glyph glyph-name="bracketright" unicode="]" horiz-adv-x="309" 
d="M29 -130v88h128v702h-128v89h216v-879h-216z" />
    <glyph glyph-name="asciicircum" unicode="^" horiz-adv-x="386" 
d="M55 297v90h277v-90h-277z" />
    <glyph glyph-name="underscore" unicode="_" horiz-adv-x="476" 
d="M-35 -139v86h548v-86h-548z" />
    <glyph glyph-name="grave" unicode="`" horiz-adv-x="455" 
d="M225 538l-174 182h152l91 -182h-69z" />
    <glyph glyph-name="a" unicode="a" horiz-adv-x="508" 
d="M163 -7c-63 0 -126 31 -126 145c0 57 10 96 43 116c52 29 123 34 266 34v21c0 66 -11 93 -87 93c-71 0 -127 -10 -161 -17l-14 84c29 6 92 19 177 19c139 0 186 -44 186 -164v-324h-81l-15 49c-25 -15 -96 -56 -188 -56zM203 75c51 0 114 25 143 42v106
c-117 0 -163 -6 -186 -20c-19 -10 -21 -39 -21 -63c0 -53 22 -65 64 -65z" />
    <glyph glyph-name="b" unicode="b" horiz-adv-x="555" 
d="M355 -8c-80 0 -164 30 -194 44l-19 -36h-78v749h101v-324c27 15 119 56 195 56c80 0 153 -27 153 -243c0 -217 -78 -246 -158 -246zM320 79c63 0 89 27 89 157s-25 155 -88 155c-55 0 -123 -25 -156 -41v-239c27 -10 98 -32 155 -32z" />
    <glyph glyph-name="c" unicode="c" horiz-adv-x="452" 
d="M264 -11c-157 0 -230 63 -230 250c0 186 76 249 234 249c51 0 112 -10 144 -18l-17 -85c-30 6 -76 15 -130 15c-85 0 -127 -23 -127 -159c0 -137 44 -165 129 -165c46 0 95 8 129 17l18 -83c-40 -11 -97 -21 -150 -21z" />
    <glyph glyph-name="d" unicode="d" horiz-adv-x="555" 
d="M195 -9c-80 0 -153 28 -153 245c0 216 78 245 157 245c81 0 163 -31 190 -42v310h102v-749h-82l-15 49c-26 -14 -116 -58 -199 -58zM234 82c57 0 123 25 155 41v239c-26 10 -97 32 -154 32c-63 0 -89 -27 -89 -156c0 -131 24 -156 88 -156z" />
    <glyph glyph-name="e" unicode="e" horiz-adv-x="492" 
d="M270 -11c-161 0 -236 63 -236 250c0 192 90 251 214 251c138 0 205 -54 205 -221v-46h-316c1 -123 48 -147 134 -147c47 0 110 6 145 15l15 -83c-32 -9 -107 -19 -161 -19zM139 290h212c0 95 -30 120 -106 120c-59 0 -99 -24 -106 -120z" />
    <glyph glyph-name="f" unicode="f" horiz-adv-x="353" 
d="M107 0v383h-79v87h79v98c0 107 23 149 208 182l19 -91c-117 -24 -125 -40 -125 -103v-86h118v-87h-118v-383h-102z" />
    <glyph glyph-name="g" unicode="g" horiz-adv-x="555" 
d="M264 -204c-69 0 -147 7 -178 13l10 86c46 -7 115 -11 167 -11c105 0 127 14 127 154v18c-29 -21 -118 -62 -195 -62c-79 0 -153 26 -153 243c0 216 78 244 158 244c76 0 167 -33 194 -50l20 39h77v-432c0 -186 -38 -242 -227 -242zM235 80c55 0 124 29 155 50v224
c-24 15 -98 40 -154 40c-63 0 -90 -25 -90 -155c0 -131 25 -159 89 -159z" />
    <glyph glyph-name="h" unicode="h" horiz-adv-x="552" 
d="M64 0v749h101v-332c32 26 128 64 194 64c86 0 131 -37 131 -127v-354h-101v321c0 50 -15 70 -71 70c-46 0 -115 -23 -153 -50v-341h-101z" />
    <glyph glyph-name="i" unicode="i" horiz-adv-x="239" 
d="M67 572v123h105v-123h-105zM69 0v470h101v-470h-101z" />
    <glyph glyph-name="j" unicode="j" horiz-adv-x="239" 
d="M67 572v123h105v-123h-105zM-40 -199l-17 90c116 24 126 42 126 105v474h101v-488c0 -107 -28 -152 -210 -181z" />
    <glyph glyph-name="k" unicode="k" horiz-adv-x="508" 
d="M165 151v-151h-101v749h101v-489l201 210h107l-174 -180l190 -290h-113s-145 219 -146 219c0 0 -65 -67 -65 -68z" />
    <glyph glyph-name="l" unicode="l" horiz-adv-x="239" 
d="M69 0v749h101v-749h-101z" />
    <glyph glyph-name="m" unicode="m" horiz-adv-x="858" 
d="M64 0v470h83l14 -54c46 30 125 65 195 65c64 0 101 -25 116 -68c51 32 129 68 199 68c85 0 125 -37 125 -130v-351h-101v321c0 50 -10 70 -66 70c-44 0 -108 -22 -148 -50v-341h-101v321c0 50 -11 70 -66 70c-47 0 -112 -23 -148 -50v-341h-102z" />
    <glyph glyph-name="n" unicode="n" horiz-adv-x="552" 
d="M64 0v470h82l15 -47c26 15 120 58 198 58c86 0 131 -38 131 -127v-354h-101v321c0 50 -15 70 -71 70c-51 0 -124 -26 -152 -42v-349h-102z" />
    <glyph glyph-name="o" unicode="o" horiz-adv-x="543" 
d="M271 -11c-157 0 -237 65 -237 250c0 184 82 251 239 251s235 -65 235 -249c0 -185 -80 -252 -237 -252zM273 72c82 0 132 28 132 167c0 138 -52 167 -134 167s-133 -27 -133 -165c0 -139 53 -169 135 -169z" />
    <glyph glyph-name="p" unicode="p" horiz-adv-x="555" 
d="M64 -200v670h82l14 -47c27 15 116 58 200 58c80 0 153 -27 153 -243c0 -217 -78 -246 -158 -246s-163 31 -190 42v-234h-101zM320 79c63 0 89 27 89 157s-25 155 -88 155c-57 0 -123 -25 -156 -41v-239c27 -10 98 -32 155 -32z" />
    <glyph glyph-name="q" unicode="q" horiz-adv-x="551" 
d="M386 -200v247c-27 -14 -117 -56 -195 -56c-80 0 -153 28 -153 245c0 216 78 245 158 245s164 -30 194 -44l19 41h78v-678h-101zM230 82c56 0 123 25 156 41v239c-27 10 -97 32 -155 32c-63 0 -89 -27 -89 -156c0 -131 25 -156 88 -156z" />
    <glyph glyph-name="r" unicode="r" horiz-adv-x="370" 
d="M64 0v470h82l15 -55c40 24 100 56 174 67l12 -94c-54 -6 -140 -24 -181 -47v-341h-102z" />
    <glyph glyph-name="s" unicode="s" horiz-adv-x="476" 
d="M226 -9c-67 0 -149 13 -181 24l13 77c27 -8 110 -23 169 -23c90 0 111 14 111 69c0 40 -19 48 -101 60c-148 21 -187 38 -187 148c0 105 66 140 193 140c72 0 148 -9 175 -16l-14 -78c-32 6 -115 15 -163 15c-71 0 -93 -15 -93 -58c0 -47 19 -52 121 -64
c133 -16 170 -45 170 -141c0 -129 -73 -153 -213 -153z" />
    <glyph glyph-name="t" unicode="t" horiz-adv-x="364" 
d="M208 -5c-79 0 -114 42 -114 137v251h-75v87h75v159l101 20v-179h122v-87h-122v-232c0 -56 13 -69 42 -69c19 0 41 1 81 6l6 -84c-45 -7 -84 -9 -116 -9z" />
    <glyph glyph-name="u" unicode="u" horiz-adv-x="550" 
d="M193 -10c-86 0 -132 39 -132 128v352h102v-319c0 -50 15 -70 71 -70c51 0 122 24 150 40v349h102v-470h-82l-15 47c-27 -15 -118 -57 -196 -57z" />
    <glyph glyph-name="v" unicode="v" horiz-adv-x="501" 
d="M201 -4l-186 474h108l133 -358l132 358h98l-186 -474h-99z" />
    <glyph glyph-name="w" unicode="w" horiz-adv-x="750" 
d="M169 -4l-154 474h105l102 -330l117 325h83l115 -325l103 330h94l-153 -474h-86l-120 339l-120 -339h-86z" />
    <glyph glyph-name="x" unicode="x" horiz-adv-x="512" 
d="M24 0l172 245l-159 225h116l111 -156l107 156h103l-159 -228l172 -242h-116l-124 175l-120 -175h-103z" />
    <glyph glyph-name="y" unicode="y" horiz-adv-x="503" 
d="M204 7l-189 463h108s136 -343 136 -344l132 344h96l-262 -670h-102z" />
    <glyph glyph-name="z" unicode="z" horiz-adv-x="462" 
d="M28 0v74l271 312h-259v84h384v-74l-268 -312h282v-84h-410z" />
    <glyph glyph-name="braceleft" unicode="{" horiz-adv-x="424" 
d="M396 -130c-217 3 -287 45 -293 399h-91v87h91c6 346 77 390 293 393v-89c-159 0 -201 -24 -201 -352c0 -326 42 -350 201 -350v-88z" />
    <glyph glyph-name="bar" unicode="|" horiz-adv-x="337" 
d="M127 -200v990h83v-990h-83z" />
    <glyph glyph-name="braceright" unicode="}" horiz-adv-x="424" 
d="M28 -130v88c159 0 201 23 201 350c0 326 -42 352 -201 352v89c217 -3 288 -48 293 -401h91v-87h-91c-5 -347 -77 -388 -293 -391z" />
    <glyph glyph-name="asciitilde" unicode="~" horiz-adv-x="456" 
d="M98 530l-52 64c55 46 89 75 127 75s90 -47 110 -47c16 0 37 20 75 52l52 -64c-56 -46 -86 -75 -127 -75c-39 0 -90 46 -110 46c-15 0 -36 -19 -75 -51z" />
    <glyph glyph-name="Adieresis" unicode="&#xc4;" horiz-adv-x="690" 
d="M503 609v120h122v-120h-122zM64 609v120h122v-120h-122zM179 157l-59 -157h-103l281 734h94l281 -734h-108l-59 157h-327zM472 246l-129 342l-130 -342h259z" />
    <glyph glyph-name="Aring" unicode="&#xc5;" horiz-adv-x="690" 
d="M179 157l-59 -157h-103l265 693c-37 14 -53 45 -53 96c0 73 32 106 113 106c82 0 113 -33 113 -106c0 -49 -15 -79 -48 -94l266 -695h-108l-59 157h-327zM342 737c42 0 50 14 50 52s-8 55 -50 55s-49 -17 -49 -55s7 -52 49 -52zM472 246l-129 342l-130 -342h259z" />
    <glyph glyph-name="Ccedilla" unicode="&#xc7;" horiz-adv-x="594" 
d="M277 -7c-139 15 -237 88 -237 371c0 328 133 377 309 377c105 0 172 -16 203 -25l-19 -90c-41 8 -108 20 -186 20c-136 0 -197 -52 -197 -254v-51c0 -198 63 -259 199 -259c85 0 164 17 185 23l19 -90c-40 -12 -101 -24 -193 -25l24 -125c-24 -25 -80 -53 -161 -66
l-17 84c40 7 73 18 86 26z" />
    <glyph glyph-name="Eacute" unicode="&#xc9;" horiz-adv-x="564" 
d="M71 0v729h452v-94h-348v-208h270v-93h-270v-242h348v-92h-452zM217 778l91 182h151l-174 -182h-68z" />
    <glyph glyph-name="Ntilde" unicode="&#xd1;" horiz-adv-x="710" 
d="M71 0v729h102l366 -542v542h100v-729h-91l-377 557v-557h-100zM228 770l-52 64c55 46 89 75 127 75s90 -47 110 -47c16 0 37 20 75 52l52 -64c-56 -46 -86 -75 -127 -75c-39 0 -90 46 -110 46c-15 0 -36 -19 -75 -51z" />
    <glyph glyph-name="Odieresis" unicode="&#xd6;" horiz-adv-x="718" 
d="M358 -11c-182 0 -318 63 -318 375s138 377 320 377s318 -63 318 -375s-138 -377 -320 -377zM360 81c130 0 208 49 208 258v51c0 208 -80 258 -210 258c-129 0 -208 -48 -208 -256v-51c0 -209 81 -260 210 -260zM397 785v120h123v-120h-123zM199 785v120h121v-120h-121z
" />
    <glyph glyph-name="Udieresis" unicode="&#xdc;" horiz-adv-x="705" 
d="M354 -10c-192 0 -291 49 -291 268v471h105v-462c0 -141 49 -180 188 -180c138 0 186 32 186 178v464h101v-469c0 -216 -97 -270 -289 -270zM390 785v120h123v-120h-123zM192 785v120h121v-120h-121z" />
    <glyph glyph-name="aacute" unicode="&#xe1;" horiz-adv-x="508" 
d="M163 -7c-63 0 -126 31 -126 145c0 57 10 96 43 116c52 29 123 34 266 34v21c0 66 -11 93 -87 93c-71 0 -127 -10 -161 -17l-14 84c29 6 92 19 177 19c139 0 186 -44 186 -164v-324h-81l-15 49c-25 -15 -96 -56 -188 -56zM203 75c51 0 114 25 143 42v106
c-117 0 -163 -6 -186 -20c-19 -10 -21 -39 -21 -63c0 -53 22 -65 64 -65zM188 538l91 182h151l-174 -182h-68z" />
    <glyph glyph-name="agrave" unicode="&#xe0;" horiz-adv-x="508" 
d="M163 -7c-63 0 -126 31 -126 145c0 57 10 96 43 116c52 29 123 34 266 34v21c0 66 -11 93 -87 93c-71 0 -127 -10 -161 -17l-14 84c29 6 92 19 177 19c139 0 186 -44 186 -164v-324h-81l-15 49c-25 -15 -96 -56 -188 -56zM203 75c51 0 114 25 143 42v106
c-117 0 -163 -6 -186 -20c-19 -10 -21 -39 -21 -63c0 -53 22 -65 64 -65zM256 538l-174 182h152l91 -182h-69z" />
    <glyph glyph-name="acircumflex" unicode="&#xe2;" horiz-adv-x="508" 
d="M163 -7c-63 0 -126 31 -126 145c0 57 10 96 43 116c52 29 123 34 266 34v21c0 66 -11 93 -87 93c-71 0 -127 -10 -161 -17l-14 84c29 6 92 19 177 19c139 0 186 -44 186 -164v-324h-81l-15 49c-25 -15 -96 -56 -188 -56zM203 75c51 0 114 25 143 42v106
c-117 0 -163 -6 -186 -20c-19 -10 -21 -39 -21 -63c0 -53 22 -65 64 -65zM85 538l126 166h90l127 -166h-72l-101 82l-100 -82h-70z" />
    <glyph glyph-name="adieresis" unicode="&#xe4;" horiz-adv-x="508" 
d="M163 -7c-63 0 -126 31 -126 145c0 57 10 96 43 116c52 29 123 34 266 34v21c0 66 -11 93 -87 93c-71 0 -127 -10 -161 -17l-14 84c29 6 92 19 177 19c139 0 186 -44 186 -164v-324h-81l-15 49c-25 -15 -96 -56 -188 -56zM203 75c51 0 114 25 143 42v106
c-117 0 -163 -6 -186 -20c-19 -10 -21 -39 -21 -63c0 -53 22 -65 64 -65zM294 545v120h123v-120h-123zM96 545v120h121v-120h-121z" />
    <glyph glyph-name="atilde" unicode="&#xe3;" horiz-adv-x="508" 
d="M163 -7c-63 0 -126 31 -126 145c0 57 10 96 43 116c52 29 123 34 266 34v21c0 66 -11 93 -87 93c-71 0 -127 -10 -161 -17l-14 84c29 6 92 19 177 19c139 0 186 -44 186 -164v-324h-81l-15 49c-25 -15 -96 -56 -188 -56zM203 75c51 0 114 25 143 42v106
c-117 0 -163 -6 -186 -20c-19 -10 -21 -39 -21 -63c0 -53 22 -65 64 -65zM129 530l-52 64c55 46 89 75 127 75s90 -47 110 -47c16 0 37 20 75 52l52 -64c-56 -46 -86 -75 -127 -75c-39 0 -90 46 -110 46c-15 0 -36 -19 -75 -51z" />
    <glyph glyph-name="aring" unicode="&#xe5;" horiz-adv-x="508" 
d="M163 -7c-63 0 -126 31 -126 145c0 57 10 96 43 116c52 29 123 34 266 34v21c0 66 -11 93 -87 93c-71 0 -127 -10 -161 -17l-14 84c29 6 92 19 177 19c139 0 186 -44 186 -164v-324h-81l-15 49c-25 -15 -96 -56 -188 -56zM203 75c51 0 114 25 143 42v106
c-117 0 -163 -6 -186 -20c-19 -10 -21 -39 -21 -63c0 -53 22 -65 64 -65zM257 529c-81 0 -113 32 -113 105s32 106 113 106c82 0 113 -33 113 -106s-33 -105 -113 -105zM257 582c42 0 50 14 50 52s-8 55 -50 55s-49 -17 -49 -55s7 -52 49 -52z" />
    <glyph glyph-name="ccedilla" unicode="&#xe7;" horiz-adv-x="452" 
d="M206 -8c-117 16 -172 85 -172 247c0 186 76 249 234 249c51 0 112 -10 144 -18l-17 -85c-30 6 -76 15 -130 15c-85 0 -127 -23 -127 -159c0 -137 44 -165 129 -165c46 0 95 8 129 17l18 -83c-34 -9 -80 -18 -125 -20l24 -125c-24 -25 -80 -53 -161 -66l-17 84
c40 7 73 18 86 26z" />
    <glyph glyph-name="eacute" unicode="&#xe9;" horiz-adv-x="492" 
d="M270 -11c-161 0 -236 63 -236 250c0 192 90 251 214 251c138 0 205 -54 205 -221v-46h-316c1 -123 48 -147 134 -147c47 0 110 6 145 15l15 -83c-32 -9 -107 -19 -161 -19zM139 290h212c0 95 -30 120 -106 120c-59 0 -99 -24 -106 -120zM177 538l91 182h151l-174 -182
h-68z" />
    <glyph glyph-name="egrave" unicode="&#xe8;" horiz-adv-x="492" 
d="M270 -11c-161 0 -236 63 -236 250c0 192 90 251 214 251c138 0 205 -54 205 -221v-46h-316c1 -123 48 -147 134 -147c47 0 110 6 145 15l15 -83c-32 -9 -107 -19 -161 -19zM139 290h212c0 95 -30 120 -106 120c-59 0 -99 -24 -106 -120zM245 538l-174 182h152l91 -182
h-69z" />
    <glyph glyph-name="ecircumflex" unicode="&#xea;" horiz-adv-x="492" 
d="M270 -11c-161 0 -236 63 -236 250c0 192 90 251 214 251c138 0 205 -54 205 -221v-46h-316c1 -123 48 -147 134 -147c47 0 110 6 145 15l15 -83c-32 -9 -107 -19 -161 -19zM139 290h212c0 95 -30 120 -106 120c-59 0 -99 -24 -106 -120zM74 538l126 166h90l127 -166h-72
l-101 82l-100 -82h-70z" />
    <glyph glyph-name="edieresis" unicode="&#xeb;" horiz-adv-x="492" 
d="M270 -11c-161 0 -236 63 -236 250c0 192 90 251 214 251c138 0 205 -54 205 -221v-46h-316c1 -123 48 -147 134 -147c47 0 110 6 145 15l15 -83c-32 -9 -107 -19 -161 -19zM139 290h212c0 95 -30 120 -106 120c-59 0 -99 -24 -106 -120zM283 545v120h123v-120h-123z
M85 545v120h121v-120h-121z" />
    <glyph glyph-name="iacute" unicode="&#xed;" horiz-adv-x="239" 
d="M69 0v470h101v-470h-101zM79 538l91 182h151l-174 -182h-68z" />
    <glyph glyph-name="igrave" unicode="&#xec;" horiz-adv-x="239" 
d="M69 0v470h101v-470h-101zM92 538l-174 182h152l91 -182h-69z" />
    <glyph glyph-name="icircumflex" unicode="&#xee;" horiz-adv-x="239" 
d="M69 0v470h101v-470h-101zM-52 538l126 166h90l127 -166h-72l-101 82l-100 -82h-70z" />
    <glyph glyph-name="idieresis" unicode="&#xef;" horiz-adv-x="239" 
d="M69 0v470h101v-470h-101zM157 545v120h123v-120h-123zM-41 545v120h121v-120h-121z" />
    <glyph glyph-name="ntilde" unicode="&#xf1;" horiz-adv-x="552" 
d="M64 0v470h82l15 -47c26 15 120 58 198 58c86 0 131 -38 131 -127v-354h-101v321c0 50 -15 70 -71 70c-51 0 -124 -26 -152 -42v-349h-102zM149 530l-52 64c55 46 89 75 127 75s90 -47 110 -47c16 0 37 20 75 52l52 -64c-56 -46 -86 -75 -127 -75c-39 0 -90 46 -110 46
c-15 0 -36 -19 -75 -51z" />
    <glyph glyph-name="oacute" unicode="&#xf3;" horiz-adv-x="543" 
d="M271 -11c-157 0 -237 65 -237 250c0 184 82 251 239 251s235 -65 235 -249c0 -185 -80 -252 -237 -252zM273 72c82 0 132 28 132 167c0 138 -52 167 -134 167s-133 -27 -133 -165c0 -139 53 -169 135 -169zM204 538l91 182h151l-174 -182h-68z" />
    <glyph glyph-name="ograve" unicode="&#xf2;" horiz-adv-x="543" 
d="M271 -11c-157 0 -237 65 -237 250c0 184 82 251 239 251s235 -65 235 -249c0 -185 -80 -252 -237 -252zM273 72c82 0 132 28 132 167c0 138 -52 167 -134 167s-133 -27 -133 -165c0 -139 53 -169 135 -169zM272 538l-174 182h152l91 -182h-69z" />
    <glyph glyph-name="ocircumflex" unicode="&#xf4;" horiz-adv-x="543" 
d="M271 -11c-157 0 -237 65 -237 250c0 184 82 251 239 251s235 -65 235 -249c0 -185 -80 -252 -237 -252zM273 72c82 0 132 28 132 167c0 138 -52 167 -134 167s-133 -27 -133 -165c0 -139 53 -169 135 -169zM100 538l126 166h90l127 -166h-72l-101 82l-100 -82h-70z" />
    <glyph glyph-name="odieresis" unicode="&#xf6;" horiz-adv-x="543" 
d="M271 -11c-157 0 -237 65 -237 250c0 184 82 251 239 251s235 -65 235 -249c0 -185 -80 -252 -237 -252zM273 72c82 0 132 28 132 167c0 138 -52 167 -134 167s-133 -27 -133 -165c0 -139 53 -169 135 -169zM309 545v120h123v-120h-123zM111 545v120h121v-120h-121z" />
    <glyph glyph-name="otilde" unicode="&#xf5;" horiz-adv-x="543" 
d="M271 -11c-157 0 -237 65 -237 250c0 184 82 251 239 251s235 -65 235 -249c0 -185 -80 -252 -237 -252zM273 72c82 0 132 28 132 167c0 138 -52 167 -134 167s-133 -27 -133 -165c0 -139 53 -169 135 -169zM144 530l-52 64c55 46 89 75 127 75s90 -47 110 -47
c16 0 37 20 75 52l52 -64c-56 -46 -86 -75 -127 -75c-39 0 -90 46 -110 46c-15 0 -36 -19 -75 -51z" />
    <glyph glyph-name="uacute" unicode="&#xfa;" horiz-adv-x="550" 
d="M193 -10c-86 0 -132 39 -132 128v352h102v-319c0 -50 15 -70 71 -70c51 0 122 24 150 40v349h102v-470h-82l-15 47c-27 -15 -118 -57 -196 -57zM207 538l91 182h151l-174 -182h-68z" />
    <glyph glyph-name="ugrave" unicode="&#xf9;" horiz-adv-x="550" 
d="M193 -10c-86 0 -132 39 -132 128v352h102v-319c0 -50 15 -70 71 -70c51 0 122 24 150 40v349h102v-470h-82l-15 47c-27 -15 -118 -57 -196 -57zM275 538l-174 182h152l91 -182h-69z" />
    <glyph glyph-name="ucircumflex" unicode="&#xfb;" horiz-adv-x="550" 
d="M193 -10c-86 0 -132 39 -132 128v352h102v-319c0 -50 15 -70 71 -70c51 0 122 24 150 40v349h102v-470h-82l-15 47c-27 -15 -118 -57 -196 -57zM103 538l126 166h90l127 -166h-72l-101 82l-100 -82h-70z" />
    <glyph glyph-name="udieresis" unicode="&#xfc;" horiz-adv-x="550" 
d="M193 -10c-86 0 -132 39 -132 128v352h102v-319c0 -50 15 -70 71 -70c51 0 122 24 150 40v349h102v-470h-82l-15 47c-27 -15 -118 -57 -196 -57zM312 545v120h123v-120h-123zM114 545v120h121v-120h-121z" />
    <glyph glyph-name="dagger" unicode="&#x2020;" horiz-adv-x="477" 
d="M196 -124v553h-167v84h167v236h87v-236h167v-84h-167v-553h-87z" />
    <glyph glyph-name="degree" unicode="&#xb0;" horiz-adv-x="444" 
d="M221 338c-126 0 -190 59 -190 201s66 203 192 203s191 -59 191 -201s-67 -203 -193 -203zM223 413c62 0 101 16 101 126s-41 128 -103 128c-61 0 -100 -16 -100 -126s41 -128 102 -128z" />
    <glyph glyph-name="cent" unicode="&#xa2;" horiz-adv-x="449" 
d="M295 118v-118h-87v120c-118 15 -174 83 -174 246c0 162 57 231 174 246v119h87v-116c44 -2 91 -10 117 -17l-17 -84c-24 5 -60 12 -101 14v-325c37 2 75 10 102 17l18 -82c-32 -10 -76 -17 -119 -20zM210 209v314c-48 -13 -72 -52 -72 -155c0 -101 24 -144 72 -159z" />
    <glyph glyph-name="sterling" unicode="&#xa3;" horiz-adv-x="578" 
d="M28 0v92h148c-11 46 -30 138 -49 235h-99v86h83c-9 55 -16 106 -16 134c0 128 59 195 232 195c74 0 151 -12 206 -26l-19 -91c-44 11 -115 22 -187 22c-100 0 -127 -31 -127 -103c0 -31 5 -79 13 -131h203v-86h-186c17 -93 37 -179 49 -235h265v-92h-516z" />
    <glyph glyph-name="section" unicode="&#xa7;" horiz-adv-x="560" 
d="M287 -5c-84 0 -168 10 -199 19l14 76c28 -5 113 -17 182 -17c93 0 111 16 111 64c0 64 -17 62 -147 73c-151 11 -198 43 -198 132c0 54 27 106 52 140c-25 23 -34 58 -34 113c0 96 57 144 206 144c85 0 170 -15 199 -24l-18 -75c-33 7 -120 19 -178 19
c-91 0 -111 -16 -111 -64c0 -63 20 -61 149 -72c154 -11 197 -44 197 -132c0 -51 -27 -104 -53 -141c25 -22 34 -57 34 -112c0 -95 -57 -143 -206 -143zM386 283c18 28 32 58 32 87c0 43 -21 55 -128 64c-48 4 -85 8 -115 16c-20 -30 -32 -58 -32 -87c0 -43 22 -55 128 -64
c48 -4 84 -8 115 -16z" />
    <glyph glyph-name="bullet" unicode="&#x2022;" horiz-adv-x="470" 
d="M237 89c-103 0 -175 34 -175 197s70 195 173 195c102 0 174 -34 174 -197s-70 -195 -172 -195z" />
    <glyph glyph-name="paragraph" unicode="&#xb6;" horiz-adv-x="589" 
d="M232 0v293c-131 1 -206 49 -206 216c0 171 76 220 224 220h268v-729h-99v292h-90v-292h-97zM246 376h173v263h-171c-65 0 -123 -16 -123 -132s57 -131 121 -131z" />
    <glyph glyph-name="germandbls" unicode="&#xdf;" horiz-adv-x="631" 
d="M284 -8l-12 85c115 13 176 25 206 56c20 20 26 49 26 95c0 48 -7 76 -28 97c-29 26 -82 38 -165 48c-1 20 0 74 0 74c85 86 98 103 98 171c0 54 -36 58 -126 58c-60 0 -75 -15 -75 -64v-612h-101v386h-79v84h79v152c0 97 44 139 182 139c159 0 219 -26 219 -141
c0 -84 -32 -115 -106 -180c68 -12 124 -30 156 -67c28 -32 43 -76 43 -144c0 -75 -13 -122 -44 -154c-50 -52 -138 -69 -273 -83z" />
    <glyph glyph-name="registered" unicode="&#xae;" horiz-adv-x="833" 
d="M417 -12c-263 0 -370 77 -370 377s107 377 370 377c262 0 369 -77 369 -377s-107 -377 -369 -377zM417 58c213 0 296 36 296 308c0 271 -83 306 -296 306c-214 0 -298 -35 -298 -306c0 -272 84 -308 298 -308zM257 145v443h189c84 0 136 -35 136 -144
c0 -73 -18 -117 -74 -134l115 -165h-91l-107 149h-87v-149h-81zM338 360h95c43 0 68 19 68 83s-28 77 -62 77h-101v-160z" />
    <glyph glyph-name="copyright" unicode="&#xa9;" horiz-adv-x="833" 
d="M417 -12c-263 0 -370 77 -370 377s107 377 370 377c262 0 369 -77 369 -377s-107 -377 -369 -377zM417 58c213 0 296 36 296 308c0 271 -83 306 -296 306c-214 0 -298 -35 -298 -306c0 -272 84 -308 298 -308zM421 130c-110 0 -194 28 -194 234c0 207 85 236 196 236
c65 0 98 -8 136 -17l-20 -72c-53 9 -75 13 -118 13c-75 0 -108 -32 -108 -144v-28c0 -111 34 -147 110 -147c47 0 79 6 120 14l17 -71c-38 -11 -78 -18 -139 -18z" />
    <glyph glyph-name="trademark" unicode="&#x2122;" horiz-adv-x="914" 
d="M441 290v439h102l103 -339l101 339h107v-439h-72v369l-113 -370h-59l-107 370v-369h-62zM167 290v374h-137v65h349v-65h-137v-374h-75z" />
    <glyph glyph-name="acute" unicode="&#xb4;" horiz-adv-x="455" 
d="M162 538l91 182h151l-174 -182h-68z" />
    <glyph glyph-name="dieresis" unicode="&#xa8;" horiz-adv-x="456" 
d="M266 545v120h123v-120h-123zM68 545v120h121v-120h-121z" />
    <glyph glyph-name="notequal" unicode="&#x2260;" horiz-adv-x="680" 
d="M107 0v383h-79v87h79v65c0 108 23 149 208 183l19 -92c-117 -24 -125 -40 -125 -102v-54h225v98c0 107 23 149 209 182l18 -91c-117 -24 -125 -40 -125 -103v-86h118v-87h-118v-383h-102v383h-225v-383h-102z" />
    <glyph glyph-name="AE" unicode="&#xc6;" horiz-adv-x="998" 
d="M17 0l435 729h505v-94h-343v-208h265v-93h-265v-242h343v-92h-443v209h-262l-121 -209h-114zM303 299h211v357z" />
    <glyph glyph-name="Oslash" unicode="&#xd8;" horiz-adv-x="718" 
d="M582 676c60 -54 96 -149 96 -310c0 -312 -138 -377 -320 -377c-60 0 -115 7 -162 27l-47 -81h-83l70 120c-60 54 -96 148 -96 309c0 312 138 377 320 377c59 0 114 -7 160 -27l47 81h84zM190 149l281 481c-31 16 -69 22 -113 22c-130 0 -210 -51 -210 -260v-51
c0 -90 15 -151 42 -192zM527 582l-282 -482c32 -17 71 -23 115 -23c131 0 210 52 210 262v51c0 90 -15 152 -43 192z" />
    <glyph glyph-name="infinity" unicode="&#x221e;" horiz-adv-x="929" 
d="M107 0v383h-79v87h79v65c0 108 23 149 208 183l19 -92c-117 -24 -125 -40 -125 -102v-54h225v91c0 111 50 151 311 190l14 -89c-207 -33 -223 -52 -223 -111v-81h324v-470h-101v384h-223v-384h-102v384h-225v-384h-102z" />
    <glyph glyph-name="plusminus" unicode="&#xb1;" horiz-adv-x="929" 
d="M107 0v383h-79v87h79v65c0 108 23 149 208 183l19 -92c-117 -24 -125 -40 -125 -102v-54h225v96c0 108 28 152 190 184l22 -91c-99 -22 -110 -39 -110 -101v-88h111v-87h-111v-383h-102v383h-225v-383h-102zM759 0v749h101v-749h-101z" />
    <glyph glyph-name="lessequal" unicode="&#x2264;" horiz-adv-x="546" 
d="M195 -9c-79 0 -153 28 -153 245c0 216 78 245 158 245c76 0 158 -33 186 -50l19 39h77v-470h-82l-14 57c-29 -23 -114 -66 -191 -66zM235 82c55 0 115 29 146 50v222c-23 15 -89 40 -145 40c-63 0 -90 -27 -90 -156c0 -131 25 -156 89 -156z" />
    <glyph glyph-name="greaterequal" unicode="&#x2265;" horiz-adv-x="532" 
d="M48 -204l-2 88c327 3 361 12 361 69s-14 67 -303 75l20 138c-78 20 -100 59 -100 153c0 133 51 167 219 167c62 0 110 -5 139 -11l33 66l84 -42l-43 -85c5 -15 13 -57 13 -94c0 -128 -43 -163 -224 -165c-13 0 -23 0 -34 1l-8 -56c253 -9 305 -26 305 -146
c0 -135 -82 -156 -460 -158zM246 230c102 0 121 8 121 88c0 29 -3 58 -9 79c-27 6 -68 9 -120 9c-92 0 -113 -14 -113 -88s18 -88 121 -88z" />
    <glyph glyph-name="yen" unicode="&#xa5;" horiz-adv-x="679" 
d="M482 436h149v-78h-197l-44 -72v-27h241v-77h-241v-182h-104v182h-242v77h242v25l-45 74h-197v78h150l-177 293h118l210 -350l210 350h107z" />
    <glyph glyph-name="mu" unicode="&#xb5;" horiz-adv-x="709" 
d="M85 0v76c0 178 104 229 238 229v95h-238v194h71v-128h167v67h-53v192h176v-192h-53v-67h162v128h70v-194h-232v-95c134 0 238 -51 238 -229v-76h-73v72c0 131 -50 162 -165 162v-100h-70v100c-115 0 -165 -31 -165 -162v-72h-73z" />
    <glyph glyph-name="mu" unicode="&#x3bc;" horiz-adv-x="709" 
d="M85 0v76c0 178 104 229 238 229v95h-238v194h71v-128h167v67h-53v192h176v-192h-53v-67h162v128h70v-194h-232v-95c134 0 238 -51 238 -229v-76h-73v72c0 131 -50 162 -165 162v-100h-70v100c-115 0 -165 -31 -165 -162v-72h-73z" />
    <glyph glyph-name="partialdiff" unicode="&#x2202;" horiz-adv-x="709" 
d="M76 0v76c0 178 104 229 238 229v95h-238v194h71v-128h167v67h-53v192h176v-192h-53v-67h162v128h70v-194h-232v-95c134 0 238 -51 238 -229v-76h-73v72c0 131 -50 162 -165 162v-100h-70v100c-115 0 -165 -31 -165 -162v-72h-73z" />
    <glyph glyph-name="summation" unicode="&#x2211;" horiz-adv-x="709" 
d="M76 0v76c0 178 104 229 238 229v95h-238v194h71v-128h167v67h-53v192h176v-192h-53v-67h162v128h70v-194h-232v-95c134 0 238 -51 238 -229v-76h-73v72c0 131 -50 162 -165 162v-100h-70v100c-115 0 -165 -31 -165 -162v-72h-73z" />
    <glyph glyph-name="product" unicode="&#x220f;" horiz-adv-x="709" 
d="M76 0v76c0 178 104 229 238 229v95h-238v194h71v-128h167v67h-53v192h176v-192h-53v-67h162v128h70v-194h-232v-95c134 0 238 -51 238 -229v-76h-73v72c0 131 -50 162 -165 162v-100h-70v100c-115 0 -165 -31 -165 -162v-72h-73z" />
    <glyph glyph-name="pi" unicode="&#x3c0;" horiz-adv-x="833" 
d="M417 -12c-263 0 -370 77 -370 377s107 377 370 377c262 0 369 -77 369 -377s-107 -377 -369 -377zM417 58c213 0 296 36 296 308c0 271 -83 306 -296 306c-214 0 -298 -35 -298 -306c0 -272 84 -308 298 -308zM276 141v452h193c92 0 139 -36 139 -153s-50 -159 -139 -160
h-111v-139h-82zM358 349h104c40 0 63 27 63 91c0 65 -25 84 -63 84h-104v-175z" />
    <glyph glyph-name="integral" unicode="&#x222b;" horiz-adv-x="709" 
d="M79 0v76c0 178 104 229 238 229v95h-238v194h71v-128h167v67h-53v192h176v-192h-53v-67h162v128h70v-194h-232v-95c134 0 238 -51 238 -229v-76h-73v72c0 131 -50 162 -165 162v-100h-70v100c-115 0 -165 -31 -165 -162v-72h-73z" />
    <glyph glyph-name="ordfeminine" unicode="&#xaa;" horiz-adv-x="416" 
d="M141 340c-52 0 -105 26 -105 116c0 42 4 76 34 96c35 22 92 29 213 29c0 6 1 13 1 19c0 50 -10 69 -67 69c-51 0 -109 -5 -133 -12l-14 69c35 10 92 16 144 16c111 0 160 -28 160 -127v-269h-74l-12 35c-61 -24 -102 -41 -147 -41zM48 217v76h326v-76h-326zM174 411
c29 0 70 13 110 33v78c-88 0 -122 -5 -143 -15c-16 -8 -16 -24 -16 -52c0 -35 16 -44 49 -44z" />
    <glyph glyph-name="ordmasculine" unicode="&#xba;" horiz-adv-x="443" 
d="M221 339c-127 0 -192 52 -192 200s67 202 194 202c128 0 192 -52 192 -200s-66 -202 -194 -202zM55 217v76h335v-76h-335zM223 412c63 0 100 20 100 127s-39 128 -102 128s-99 -19 -99 -126s38 -129 101 -129z" />
    <glyph glyph-name="Omega" unicode="&#x3a9;" horiz-adv-x="709" 
d="M76 0v76c0 178 104 229 238 229v95h-238v194h71v-128h167v67h-53v192h176v-192h-53v-67h162v128h70v-194h-232v-95c134 0 238 -51 238 -229v-76h-73v72c0 131 -50 162 -165 162v-100h-70v100c-115 0 -165 -31 -165 -162v-72h-73z" />
    <glyph glyph-name="Omega" unicode="&#x2126;" horiz-adv-x="709" 
d="M76 0v76c0 178 104 229 238 229v95h-238v194h71v-128h167v67h-53v192h176v-192h-53v-67h162v128h70v-194h-232v-95c134 0 238 -51 238 -229v-76h-73v72c0 131 -50 162 -165 162v-100h-70v100c-115 0 -165 -31 -165 -162v-72h-73z" />
    <glyph glyph-name="ae" unicode="&#xe6;" horiz-adv-x="803" 
d="M163 -7c-63 0 -126 31 -126 145c0 47 7 87 33 109c44 38 126 45 277 45v17c0 66 -12 93 -88 93c-71 0 -123 -10 -157 -16l-15 84c30 6 89 18 174 18c83 0 129 -17 151 -60c35 43 85 62 148 62c138 0 205 -54 205 -221v-46h-316c2 -123 48 -147 134 -147
c47 0 110 6 145 15l15 -83c-32 -9 -107 -19 -161 -19c-97 0 -162 23 -199 80c-53 -43 -130 -76 -220 -76zM451 290h213c0 95 -31 120 -106 120c-59 0 -99 -24 -107 -120zM203 75c44 0 111 21 156 52c-8 28 -11 61 -12 99c-112 0 -166 -5 -191 -26c-15 -13 -17 -32 -17 -60
c0 -53 22 -65 64 -65z" />
    <glyph glyph-name="oslash" unicode="&#xf8;" horiz-adv-x="543" 
d="M457 427c34 -40 51 -100 51 -186c0 -185 -80 -252 -237 -252c-41 0 -77 5 -108 15l-49 -71h-94l76 109c-41 40 -62 103 -62 197c0 184 82 251 239 251c48 0 88 -6 121 -20l43 62h93zM155 128l188 268c-20 10 -44 13 -72 13c-84 0 -135 -27 -135 -168c0 -51 7 -87 19 -113
zM394 336l-180 -259c17 -6 37 -8 59 -8c84 0 133 28 133 170c0 41 -4 72 -12 97z" />
    <glyph glyph-name="questiondown" unicode="&#xbf;" horiz-adv-x="551" 
d="M240 610v128h136v-128h-136zM289 -4c-200 0 -267 49 -267 186c0 121 40 169 234 245v102h99v-153c-201 -78 -229 -98 -229 -188c0 -73 40 -98 163 -98c73 0 146 9 211 23l18 -90c-44 -13 -142 -27 -229 -27z" />
    <glyph glyph-name="exclamdown" unicode="&#xa1;" horiz-adv-x="310" 
d="M87 601v128h136v-128h-136zM88 0l27 520h78l27 -520h-132z" />
    <glyph glyph-name="logicalnot" unicode="&#xac;" horiz-adv-x="644" 
d="M347 -10c-176 0 -307 46 -307 374s133 377 316 377c106 0 185 -15 215 -25l-18 -91c-41 8 -121 21 -199 21c-144 0 -204 -52 -204 -254v-51c0 -198 61 -260 203 -260c68 0 110 7 136 13v187h-134v90h233v-350c-35 -11 -125 -31 -241 -31z" />
    <glyph glyph-name="radical" unicode="&#x221a;" horiz-adv-x="661" 
d="M226 -4l-165 384h99l123 -288l247 637h100l-293 -733h-111z" />
    <glyph glyph-name="florin" unicode="&#x192;" horiz-adv-x="427" 
d="M40 -130l80 469h-81v86h95l22 131c19 113 39 139 211 172l16 -87c-115 -25 -119 -34 -131 -107l-18 -109h108v-86h-122l-79 -469h-101z" />
    <glyph glyph-name="approxequal" unicode="&#x2248;" horiz-adv-x="709" 
d="M76 0v76c0 178 104 229 238 229v95h-238v194h71v-128h167v67h-53v192h176v-192h-53v-67h162v128h70v-194h-232v-95c134 0 238 -51 238 -229v-76h-73v72c0 131 -50 162 -165 162v-100h-70v100c-115 0 -165 -31 -165 -162v-72h-73z" />
    <glyph glyph-name="Delta" unicode="&#x394;" horiz-adv-x="602" 
d="M324 -199l-17 90c116 24 125 41 125 105v388h-223v-384h-102v383h-79v87h79v91c0 111 50 151 311 190l14 -89c-207 -33 -223 -52 -223 -111v-81h324v-488c0 -108 -27 -152 -209 -181z" />
    <glyph glyph-name="Delta" unicode="&#x2206;" horiz-adv-x="602" 
d="M324 -199l-17 90c116 24 125 41 125 105v388h-223v-384h-102v383h-79v87h79v91c0 111 50 151 311 190l14 -89c-207 -33 -223 -52 -223 -111v-81h324v-488c0 -108 -27 -152 -209 -181z" />
    <glyph glyph-name="guillemotleft" unicode="&#xab;" horiz-adv-x="533" 
d="M378 25l-120 204l120 206h91l-108 -206l108 -204h-91zM170 25l-120 204l120 206h91l-108 -206l108 -204h-91z" />
    <glyph glyph-name="guillemotright" unicode="&#xbb;" horiz-adv-x="533" 
d="M273 25l107 206l-108 204h91l120 -204l-120 -206h-90zM64 25l108 206l-108 204h91l120 -204l-120 -206h-91z" />
    <glyph glyph-name="ellipsis" unicode="&#x2026;" horiz-adv-x="851" 
d="M642 0v135h144v-135h-144zM354 0v135h144v-135h-144zM66 0v135h143v-135h-143z" />
    <glyph glyph-name="Agrave" unicode="&#xc0;" horiz-adv-x="690" 
d="M179 157l-59 -157h-103l281 734h94l281 -734h-108l-59 157h-327zM472 246l-129 342l-130 -342h259zM342 778l-174 182h152l91 -182h-69z" />
    <glyph glyph-name="Atilde" unicode="&#xc3;" horiz-adv-x="690" 
d="M179 157l-59 -157h-103l281 734h94l281 -734h-108l-59 157h-327zM472 246l-129 342l-130 -342h259zM218 770l-52 64c55 46 89 75 127 75s90 -47 110 -47c16 0 37 20 75 52l52 -64c-56 -46 -86 -75 -127 -75c-39 0 -90 46 -110 46c-15 0 -36 -19 -75 -51z" />
    <glyph glyph-name="Otilde" unicode="&#xd5;" horiz-adv-x="718" 
d="M358 -11c-182 0 -318 63 -318 375s138 377 320 377s318 -63 318 -375s-138 -377 -320 -377zM360 81c130 0 208 49 208 258v51c0 208 -80 258 -210 258c-129 0 -208 -48 -208 -256v-51c0 -209 81 -260 210 -260zM232 770l-52 64c55 46 89 75 127 75s90 -47 110 -47
c16 0 37 20 75 52l52 -64c-56 -46 -86 -75 -127 -75c-39 0 -90 46 -110 46c-15 0 -36 -19 -75 -51z" />
    <glyph glyph-name="OE" unicode="&#x152;" horiz-adv-x="981" 
d="M349 0c-198 0 -311 60 -311 364s113 365 311 365h591v-94h-342v-208h264v-93h-264v-242h342v-92h-591zM350 91h146v546h-146c-130 0 -203 -50 -203 -249v-48c0 -200 73 -249 203 -249z" />
    <glyph glyph-name="oe" unicode="&#x153;" horiz-adv-x="868" 
d="M272 -11c-159 0 -238 65 -238 250c0 184 81 251 240 251c93 0 153 -24 185 -82c33 58 91 82 162 82c138 0 205 -54 205 -221v-46h-316c2 -123 48 -147 134 -147c47 0 110 6 145 15l15 -83c-32 -9 -107 -19 -161 -19c-88 1 -150 22 -186 81c-32 -56 -93 -81 -185 -81z
M512 290h213c0 95 -30 120 -106 120c-59 0 -99 -24 -107 -120zM274 72c83 0 134 28 134 167c0 138 -53 167 -136 167s-134 -27 -134 -165c0 -139 53 -169 136 -169z" />
    <glyph glyph-name="endash" unicode="&#x2013;" horiz-adv-x="544" 
d="M55 229v90h434v-90h-434z" />
    <glyph glyph-name="emdash" unicode="&#x2014;" horiz-adv-x="819" 
d="M55 229v90h709v-90h-709z" />
    <glyph glyph-name="quotedblleft" unicode="&#x201c;" horiz-adv-x="503" 
d="M255 499l143 257l45 -27l-51 -230h-137zM59 499l142 257l45 -27l-50 -230h-137z" />
    <glyph glyph-name="quotedblright" unicode="&#x201d;" horiz-adv-x="503" 
d="M302 472l-45 27l51 230h136zM106 472l-45 27l50 230h137z" />
    <glyph glyph-name="quoteleft" unicode="&#x2018;" horiz-adv-x="309" 
d="M59 499l142 257l48 -27l-51 -230h-139z" />
    <glyph glyph-name="quoteright" unicode="&#x2019;" horiz-adv-x="309" 
d="M108 472l-47 27l50 230h139z" />
    <glyph glyph-name="divide" unicode="&#xf7;" horiz-adv-x="516" 
d="M198 444v116h119v-116h-119zM55 294v83h406v-83h-406zM198 110v117h119v-117h-119z" />
    <glyph glyph-name="lozenge" unicode="&#x25ca;" horiz-adv-x="703" 
d="M548 -5c-80 0 -114 42 -114 137v251h-225v-383h-102v383h-79v87h79v98c0 107 23 149 208 182l19 -91c-117 -24 -125 -40 -125 -103v-86h225v159l101 20v-179h121v-87h-121v-232c0 -56 13 -69 41 -69c19 0 41 1 81 6l6 -84c-45 -7 -83 -9 -115 -9z" />
    <glyph glyph-name="ydieresis" unicode="&#xff;" horiz-adv-x="503" 
d="M204 7l-189 463h108s136 -343 136 -344l132 344h96l-262 -670h-102zM290 545v120h123v-120h-123zM92 545v120h121v-120h-121z" />
    <glyph glyph-name="Ydieresis" unicode="&#x178;" horiz-adv-x="684" 
d="M290 0v281l-273 448h114l214 -349l214 349h108l-273 -447v-282h-104zM380 785v120h123v-120h-123zM182 785v120h121v-120h-121z" />
    <glyph glyph-name="fraction" unicode="&#x2044;" horiz-adv-x="343" 
d="M0 0l253 729h90l-253 -729h-90z" />
    <glyph glyph-name="fraction" unicode="&#x2215;" horiz-adv-x="343" 
d="M0 0l253 729h90l-253 -729h-90z" />
    <glyph glyph-name="Euro" unicode="&#x20ac;" horiz-adv-x="626" 
d="M389 -10c-134 0 -234 48 -262 244h-107v78h99c0 32 -2 67 0 100h-99v78s107 0 106 0c29 200 132 251 265 251c99 0 163 -16 194 -26l-19 -89c-52 11 -98 20 -177 20c-89 0 -142 -41 -157 -156h220v-78h-228v-100h228v-78h-218c17 -108 67 -152 157 -152
c97 0 154 15 175 21l19 -87c-24 -7 -87 -26 -196 -26z" />
    <glyph glyph-name="guilsinglleft" unicode="&#x2039;" horiz-adv-x="329" 
d="M170 25l-120 204l120 206h95l-108 -206l108 -204h-95z" />
    <glyph glyph-name="guilsinglright" unicode="&#x203a;" horiz-adv-x="329" 
d="M64 25l108 206l-108 204h95l120 -204l-120 -206h-95z" />
    <glyph glyph-name="daggerdbl" unicode="&#x2021;" horiz-adv-x="477" 
d="M196 -130v235h-167v84h167v240h-167v84h167v236h87v-236h167v-84h-167v-240h167v-84h-167v-235h-87z" />
    <glyph glyph-name="periodcentered" unicode="&#xb7;" horiz-adv-x="270" 
d="M66 296v130h140v-130h-140z" />
    <glyph glyph-name="periodcentered" unicode="&#x2219;" horiz-adv-x="270" 
d="M66 296v130h140v-130h-140z" />
    <glyph glyph-name="quotesinglbase" unicode="&#x201a;" horiz-adv-x="309" 
d="M108 -106l-47 27l50 230h139z" />
    <glyph glyph-name="quotedblbase" unicode="&#x201e;" horiz-adv-x="503" 
d="M302 -106l-45 27l51 230h136zM106 -106l-45 27l50 230h137z" />
    <glyph glyph-name="perthousand" unicode="&#x2030;" horiz-adv-x="1355" 
d="M204 275c-114 0 -181 45 -181 232s69 234 183 234c116 0 183 -45 183 -232s-69 -234 -185 -234zM300 0l253 729h90l-254 -729h-89zM1150 -12c-114 0 -182 45 -182 232s70 234 184 234c115 0 182 -45 182 -232s-69 -234 -184 -234zM737 -12c-115 0 -182 45 -182 232
s69 234 183 234c116 0 183 -45 183 -232s-69 -234 -184 -234zM206 352c62 0 88 30 88 131v48c0 102 -28 132 -90 132c-60 0 -88 -28 -88 -130v-48c0 -101 29 -133 90 -133zM1152 65c61 0 88 30 88 131v48c0 102 -29 132 -90 132c-60 0 -88 -28 -88 -130v-48
c0 -101 29 -133 90 -133zM738 65c62 0 89 30 89 131v48c0 102 -29 132 -90 132s-89 -28 -89 -130v-48c0 -101 30 -133 90 -133z" />
    <glyph glyph-name="Acircumflex" unicode="&#xc2;" horiz-adv-x="690" 
d="M179 157l-59 -157h-103l281 734h94l281 -734h-108l-59 157h-327zM472 246l-129 342l-130 -342h259zM173 761l126 166h90l127 -166h-72l-101 82l-100 -82h-70z" />
    <glyph glyph-name="Ecircumflex" unicode="&#xca;" horiz-adv-x="564" 
d="M71 0v729h452v-94h-348v-208h270v-93h-270v-242h348v-92h-452zM110 778l126 166h90l127 -166h-72l-101 82l-100 -82h-70z" />
    <glyph glyph-name="Aacute" unicode="&#xc1;" horiz-adv-x="690" 
d="M179 157l-59 -157h-103l281 734h94l281 -734h-108l-59 157h-327zM472 246l-129 342l-130 -342h259zM279 778l91 182h151l-174 -182h-68z" />
    <glyph glyph-name="Edieresis" unicode="&#xcb;" horiz-adv-x="564" 
d="M71 0v729h452v-94h-348v-208h270v-93h-270v-242h348v-92h-452zM320 785v120h123v-120h-123zM122 785v120h121v-120h-121z" />
    <glyph glyph-name="Egrave" unicode="&#xc8;" horiz-adv-x="564" 
d="M71 0v729h452v-94h-348v-208h270v-93h-270v-242h348v-92h-452zM280 778l-174 182h152l91 -182h-69z" />
    <glyph glyph-name="Iacute" unicode="&#xcd;" horiz-adv-x="262" 
d="M79 0v729h105v-729h-105zM88 778l91 182h151l-174 -182h-68z" />
    <glyph glyph-name="Icircumflex" unicode="&#xce;" horiz-adv-x="262" 
d="M79 0v729h105v-729h-105zM-41 778l126 166h90l127 -166h-72l-101 82l-100 -82h-70z" />
    <glyph glyph-name="Idieresis" unicode="&#xcf;" horiz-adv-x="262" 
d="M79 0v729h105v-729h-105zM169 785v120h123v-120h-123zM-29 785v120h121v-120h-121z" />
    <glyph glyph-name="Igrave" unicode="&#xcc;" horiz-adv-x="262" 
d="M79 0v729h105v-729h-105zM106 778l-174 182h152l91 -182h-69z" />
    <glyph glyph-name="Oacute" unicode="&#xd3;" horiz-adv-x="718" 
d="M358 -11c-182 0 -318 63 -318 375s138 377 320 377s318 -63 318 -375s-138 -377 -320 -377zM360 81c130 0 208 49 208 258v51c0 208 -80 258 -210 258c-129 0 -208 -48 -208 -256v-51c0 -209 81 -260 210 -260zM291 778l91 182h151l-174 -182h-68z" />
    <glyph glyph-name="Ocircumflex" unicode="&#xd4;" horiz-adv-x="718" 
d="M358 -11c-182 0 -318 63 -318 375s138 377 320 377s318 -63 318 -375s-138 -377 -320 -377zM360 81c130 0 208 49 208 258v51c0 208 -80 258 -210 258c-129 0 -208 -48 -208 -256v-51c0 -209 81 -260 210 -260zM188 778l126 166h90l127 -166h-72l-101 82l-100 -82h-70z
" />
    <glyph glyph-name="apple" unicode="&#xf8ff;" horiz-adv-x="709" 
d="M85 0v76c0 178 104 229 238 229v95h-238v194h71v-128h167v67h-53v192h176v-192h-53v-67h162v128h70v-194h-232v-95c134 0 238 -51 238 -229v-76h-73v72c0 131 -50 162 -165 162v-100h-70v100c-115 0 -165 -31 -165 -162v-72h-73z" />
    <glyph glyph-name="Ograve" unicode="&#xd2;" horiz-adv-x="718" 
d="M358 -11c-182 0 -318 63 -318 375s138 377 320 377s318 -63 318 -375s-138 -377 -320 -377zM360 81c130 0 208 49 208 258v51c0 208 -80 258 -210 258c-129 0 -208 -48 -208 -256v-51c0 -209 81 -260 210 -260zM359 778l-174 182h152l91 -182h-69z" />
    <glyph glyph-name="Uacute" unicode="&#xda;" horiz-adv-x="705" 
d="M354 -10c-192 0 -291 49 -291 268v471h105v-462c0 -141 49 -180 188 -180c138 0 186 32 186 178v464h101v-469c0 -216 -97 -270 -289 -270zM284 778l91 182h151l-174 -182h-68z" />
    <glyph glyph-name="Ucircumflex" unicode="&#xdb;" horiz-adv-x="705" 
d="M354 -10c-192 0 -291 49 -291 268v471h105v-462c0 -141 49 -180 188 -180c138 0 186 32 186 178v464h101v-469c0 -216 -97 -270 -289 -270zM183 778l126 166h90l127 -166h-72l-101 82l-100 -82h-70z" />
    <glyph glyph-name="Ugrave" unicode="&#xd9;" horiz-adv-x="705" 
d="M354 -10c-192 0 -291 49 -291 268v471h105v-462c0 -141 49 -180 188 -180c138 0 186 32 186 178v464h101v-469c0 -216 -97 -270 -289 -270zM352 778l-174 182h152l91 -182h-69z" />
    <glyph glyph-name="dotlessi" unicode="&#x131;" horiz-adv-x="239" 
d="M69 0v470h101v-470h-101z" />
    <glyph glyph-name="circumflex" unicode="&#x2c6;" horiz-adv-x="460" 
d="M58 538l126 166h90l127 -166h-72l-101 82l-100 -82h-70z" />
    <glyph glyph-name="tilde" unicode="&#x2dc;" horiz-adv-x="456" 
d="M98 530l-52 64c55 46 89 75 127 75s90 -47 110 -47c16 0 37 20 75 52l52 -64c-56 -46 -86 -75 -127 -75c-39 0 -90 46 -110 46c-15 0 -36 -19 -75 -51z" />
    <glyph glyph-name="macron" unicode="&#xaf;" horiz-adv-x="461" 
d="M85 538v98h292v-98h-292z" />
    <glyph glyph-name="macron" unicode="&#x2c9;" horiz-adv-x="461" 
d="M85 538v98h292v-98h-292z" />
    <glyph glyph-name="breve" unicode="&#x2d8;" horiz-adv-x="461" 
d="M232 529c-52 0 -130 13 -161 36v120h94v-63c14 -7 41 -10 67 -10c25 0 56 3 71 10v63h93v-120c-30 -23 -111 -36 -164 -36z" />
    <glyph glyph-name="dotaccent" unicode="&#x2d9;" horiz-adv-x="461" 
d="M163 538v136h137v-136h-137z" />
    <glyph glyph-name="ring" unicode="&#x2da;" horiz-adv-x="461" 
d="M231 529c-81 0 -113 32 -113 105s32 106 113 106c82 0 113 -33 113 -106s-33 -105 -113 -105zM231 582c42 0 50 14 50 52s-8 55 -50 55s-49 -17 -49 -55s7 -52 49 -52z" />
    <glyph glyph-name="cedilla" unicode="&#xb8;" horiz-adv-x="494" 
d="M173 -201l-17 84c40 7 73 18 86 26l-17 96l79 16l30 -156c-24 -25 -80 -53 -161 -66z" />
    <glyph glyph-name="hungarumlaut" unicode="&#x2dd;" horiz-adv-x="455" 
d="M204 538l91 182h133l-166 -182h-58zM26 538l91 182h134l-166 -182h-59z" />
    <glyph glyph-name="ogonek" unicode="&#x2db;" horiz-adv-x="494" 
d="M313 -201c-80 13 -136 41 -160 66l30 156l79 -16l-18 -96c14 -8 46 -19 86 -26z" />
    <glyph glyph-name="caron" unicode="&#x2c7;" horiz-adv-x="460" 
d="M185 538l-126 166h72l101 -82l100 82h70l-126 -166h-91z" />
    <glyph glyph-name="period.lftab" horiz-adv-x="350" 
d="M103 0v135h144v-135h-144z" />
    <glyph glyph-name="minus.lftab" 
d="M132 294v83h435v-83h-435z" />
    <glyph glyph-name="multiply.lftab" 
d="M207 135l-57 56l143 144l-143 143l57 57l143 -144l143 144l56 -57l-142 -143l142 -144l-56 -56l-143 143z" />
    <glyph glyph-name="numbersign.lftab" 
d="M136 -20l40 238h-86v82h99l22 128h-121v83h135l40 238h84l-40 -238h130l39 238h84l-40 -238h88v-83h-102l-21 -128h123v-82h-137l-40 -238h-83l39 238h-129l-40 -238h-84zM269 296h137l23 136h-137z" />
    <glyph glyph-name="dollar.lftab" 
d="M308 -6c-108 3 -180 17 -204 23l16 91c24 -5 112 -18 190 -21v244c-165 40 -208 76 -208 212c0 114 50 184 206 193v101h87v-101c77 -3 144 -14 176 -23l-18 -88c-27 5 -91 14 -159 18v-231c146 -33 211 -70 211 -209c0 -131 -52 -197 -210 -207v-118h-87v116zM310 643
c-79 -5 -102 -32 -102 -101c0 -64 13 -86 102 -110v211zM394 88c81 7 104 35 104 113c0 64 -17 86 -104 109c0 1 0 -222 0 -222z" />
    <glyph glyph-name="plus.lftab" 
d="M306 117v177h-174v83h174v177h88v-177h173v-83h-173v-177h-88z" />
    <glyph glyph-name="zero.lftab" 
d="M349 -11c-196 0 -279 82 -279 375s85 377 281 377c195 0 279 -82 279 -375s-86 -377 -281 -377zM351 81c124 0 171 57 171 243v80c0 186 -49 244 -173 244s-171 -56 -171 -242v-80c0 -186 49 -245 173 -245z" />
    <glyph glyph-name="one.lftab" 
d="M330 90v548h-194v91h298v-639h191v-90h-489v90h194z" />
    <glyph glyph-name="two.lftab" 
d="M100 0v82l200 190c156 154 167 156 167 266c0 79 -31 109 -151 109c-76 0 -157 -13 -194 -22l-15 90c47 13 137 26 211 26c189 0 253 -55 253 -199c0 -142 -34 -167 -192 -318l-138 -134h355v-90h-496z" />
    <glyph glyph-name="three.lftab" 
d="M123 -12l-7 90c192 8 293 24 337 54c30 20 38 63 38 109c0 45 -9 84 -37 103c-43 29 -117 37 -181 41v75l167 175h-341v94h455v-93l-173 -182c45 -7 104 -22 141 -47c53 -33 72 -87 72 -167s-16 -138 -67 -173c-60 -47 -186 -73 -404 -79z" />
    <glyph glyph-name="four.lftab" 
d="M434 0v163h-364v103l283 466h107l-290 -478h264v209h102v-209h87v-91h-87v-163h-102z" />
    <glyph glyph-name="five.lftab" 
d="M127 -12l-7 90c192 8 294 21 338 51c30 20 38 66 38 112c0 45 -9 88 -37 107c-42 28 -136 49 -346 56l10 325h435v-94h-343l-5 -150c176 -8 268 -34 318 -69c55 -36 71 -94 71 -176c0 -80 -17 -141 -67 -176c-59 -47 -187 -70 -405 -76z" />
    <glyph glyph-name="six.lftab" 
d="M353 -11c-231 0 -265 93 -265 290v120c0 121 12 189 63 237c57 55 177 87 383 106l11 -89c-202 -23 -283 -44 -322 -82c-35 -33 -31 -95 -31 -148c45 12 133 29 201 29c169 0 228 -49 228 -214c0 -154 -34 -249 -268 -249zM355 77c132 0 163 30 163 160
c0 95 -28 127 -131 127c-77 0 -150 -15 -195 -26v-89c0 -137 38 -172 163 -172z" />
    <glyph glyph-name="seven.lftab" 
d="M211 0l287 635h-403v94h511v-93l-279 -636h-116z" />
    <glyph glyph-name="eight.lftab" 
d="M347 -10c-192 0 -278 43 -278 189c0 131 22 153 156 209c-104 46 -125 85 -125 178c0 136 91 175 248 175c159 0 255 -39 255 -175c0 -103 -16 -130 -128 -178c127 -50 157 -83 157 -209c0 -146 -94 -189 -285 -189zM385 422c116 48 116 57 116 143c0 69 -55 85 -154 85
c-97 0 -143 -16 -143 -85c0 -80 30 -90 158 -135zM347 80c117 0 179 20 179 100c0 100 -25 111 -199 169l-16 6c-132 -55 -139 -63 -139 -175c0 -80 59 -100 175 -100z" />
    <glyph glyph-name="nine.lftab" 
d="M165 -12l-11 88c202 21 283 45 322 82c35 34 31 97 31 149c-45 -12 -133 -28 -201 -28c-165 0 -228 48 -228 213c0 155 34 249 268 249c231 0 265 -93 265 -290v-120c0 -120 -12 -188 -63 -236c-56 -54 -177 -88 -383 -107zM312 366c77 0 150 15 195 26v89
c0 138 -38 172 -163 172c-132 0 -163 -30 -163 -160c0 -95 28 -127 131 -127z" />
    <glyph glyph-name="less.lftab" 
d="M383 120l-196 208l196 210h107l-197 -210l197 -208h-107z" />
    <glyph glyph-name="equal.lftab" 
d="M155 385v80h390v-80h-390zM155 204v80h390v-80h-390z" />
    <glyph glyph-name="greater.lftab" 
d="M210 120l197 210l-197 208h107l196 -208l-196 -210h-107z" />
    <glyph glyph-name="cent.lftab" 
d="M420 118v-118h-87v120c-118 15 -174 83 -174 246c0 162 57 231 174 246v119h87v-116c44 -2 91 -10 117 -17l-17 -84c-24 5 -60 12 -101 14v-325c37 2 75 10 102 17l18 -82c-32 -10 -76 -17 -119 -20zM335 209v314c-48 -13 -72 -52 -72 -155c0 -101 24 -144 72 -159z" />
    <glyph glyph-name="sterling.lftab" 
d="M89 0v92h148c-11 46 -30 138 -49 235h-99v86h83c-9 55 -16 106 -16 134c0 128 59 195 232 195c74 0 151 -12 206 -26l-19 -91c-44 11 -115 22 -187 22c-100 0 -127 -31 -127 -103c0 -31 5 -79 13 -131h203v-86h-186c17 -93 37 -179 49 -235h265v-92h-516z" />
    <glyph glyph-name="yen.lftab" 
d="M492 436h149v-78h-197l-44 -72v-27h241v-77h-241v-182h-104v182h-242v77h242v25l-45 74h-197v78h150l-177 293h118l210 -350l210 350h107z" />
    <glyph glyph-name="florin.lftab" 
d="M176 -130l80 469h-86v86h99l23 131c19 113 39 139 211 172l16 -87c-115 -25 -119 -34 -131 -107l-18 -109h113v-86h-127l-79 -469h-101z" />
    <glyph glyph-name="divide.lftab" 
d="M290 444v116h118v-116h-118zM132 294v83h435v-83h-435zM290 110v117h118v-117h-118z" />
    <glyph glyph-name="comma.lftab" horiz-adv-x="350" 
d="M118 -149l-53 30l52 254h152z" />
    <glyph glyph-name="endash.lftab" 
d="M133 229v90h434v-90h-434z" />
    <glyph glyph-name="colon.lftab" horiz-adv-x="350" 
d="M103 336v134h143v-134h-143zM103 0v135h143v-135h-143z" />
    <glyph glyph-name="semicolon.lftab" horiz-adv-x="350" 
d="M103 336v134h143v-134h-143zM117 -149l-52 30l52 254h151z" />
    <glyph glyph-name="hyphen.lftab" 
d="M172 249v90h357v-90h-357z" />
    <glyph glyph-name="perthousand.lftab" horiz-adv-x="1050" 
d="M145 365c-91 0 -145 36 -145 185c0 150 56 187 147 187s146 -36 146 -185s-56 -187 -148 -187zM168 0l289 729h75l-289 -729h-75zM903 -9c-91 0 -145 36 -145 185s56 187 147 187s146 -36 146 -185s-56 -187 -148 -187zM552 -9c-90 0 -145 36 -145 185s56 187 147 187
s146 -36 146 -185s-56 -187 -148 -187zM147 431c46 0 67 23 67 100v38c0 77 -22 101 -69 101c-46 0 -67 -22 -67 -99v-38c0 -77 23 -102 69 -102zM905 57c46 0 67 23 67 100v38c0 77 -22 101 -69 101c-46 0 -67 -22 -67 -99v-38c0 -77 23 -102 69 -102zM554 57
c46 0 67 23 67 100v38c0 77 -22 101 -69 101c-46 0 -67 -22 -67 -99v-38c0 -77 23 -102 69 -102z" />
    <glyph glyph-name="brokenbar.lftab" 
d="M308 365v425h83v-425h-83zM308 -200v425h83v-425h-83z" />
    <glyph glyph-name="percent.lftab" 
d="M145 365c-91 0 -145 36 -145 185c0 150 56 187 147 187s146 -36 146 -185s-56 -187 -148 -187zM168 0l289 729h75l-289 -729h-75zM552 -9c-90 0 -145 36 -145 185s56 187 147 187s146 -36 146 -185s-56 -187 -148 -187zM147 431c46 0 67 23 67 100v38
c0 77 -22 101 -69 101c-46 0 -67 -22 -67 -99v-38c0 -77 23 -102 69 -102zM554 57c46 0 67 23 67 100v38c0 77 -22 101 -69 101c-46 0 -67 -22 -67 -99v-38c0 -77 23 -102 69 -102z" />
    <glyph glyph-name="slash.lftab" 
d="M178 0l253 729h91l-253 -729h-91z" />
    <glyph glyph-name="G.alt" horiz-adv-x="644" 
d="M347 -10c-176 0 -307 46 -307 374s133 377 316 377c106 0 185 -15 215 -25l-18 -91c-41 8 -121 21 -199 21c-144 0 -204 -52 -204 -254v-51c0 -198 61 -260 203 -260c68 0 110 7 136 13v187h-134v90h233v-350c-35 -11 -125 -31 -241 -31z" />
    <glyph glyph-name="NUL" horiz-adv-x="0" 
 />
    <glyph glyph-name="currency" unicode="&#xa4;" horiz-adv-x="626" 
d="M389 -10c-134 0 -234 48 -262 244h-107v78h99c0 32 -2 67 0 100h-99v78s107 0 106 0c29 200 132 251 265 251c99 0 163 -16 194 -26l-19 -89c-52 11 -98 20 -177 20c-89 0 -142 -41 -157 -156h220v-78h-228v-100h228v-78h-218c17 -108 67 -152 157 -152
c97 0 154 15 175 21l19 -87c-24 -7 -87 -26 -196 -26z" />
    <glyph glyph-name="g.alt" horiz-adv-x="532" 
d="M48 -204l-2 88c327 3 361 12 361 69s-14 67 -303 75l20 138c-78 20 -100 59 -100 153c0 133 51 167 219 167c62 0 110 -5 139 -11l33 66l84 -42l-43 -85c5 -15 13 -57 13 -94c0 -128 -43 -163 -224 -165c-13 0 -23 0 -34 1l-8 -56c253 -9 305 -26 305 -146
c0 -135 -82 -156 -460 -158zM246 230c102 0 121 8 121 88c0 29 -3 58 -9 79c-27 6 -68 9 -120 9c-92 0 -113 -14 -113 -88s18 -88 121 -88z" />
    <glyph glyph-name="a.alt" horiz-adv-x="546" 
d="M195 -9c-79 0 -153 28 -153 245c0 216 78 245 158 245c76 0 158 -33 186 -50l19 39h77v-470h-82l-14 57c-29 -23 -114 -66 -191 -66zM235 82c55 0 115 29 146 50v222c-23 15 -89 40 -145 40c-63 0 -90 -27 -90 -156c0 -131 25 -156 89 -156z" />
    <glyph glyph-name="Euro.lftab" 
d="M436 -10c-134 0 -234 48 -262 244h-107v78h99c0 32 -2 67 0 100h-99v78s107 0 106 0c29 200 132 251 265 251c99 0 163 -16 194 -26l-19 -89c-52 11 -98 20 -177 20c-89 0 -142 -41 -157 -156h220v-78h-228v-100h228v-78h-218c17 -108 67 -152 157 -152
c97 0 154 15 175 21l19 -87c-24 -7 -87 -26 -196 -26z" />
    </font>
</defs>
</svg>
